{
.appVersion = "1230";
date = "2020-05-20 08:14:17 +0000";
familyName = "Fortune Lover Basic";
fontMaster = (
{
ascender = 800;
capHeight = 700;
descender = -200;
id = "A4322E26-1E68-404E-BC15-B577A9E05BE3";
userData = {
GSOffsetHorizontal = 15;
GSOffsetVertical = 10;
};
xHeight = 400;
}
);
glyphs = (
{
glyphname = A;
lastChange = "2020-05-19 09:16:26 +0000";
layers = (
{
background = {
paths = (
{
closed = 1;
nodes = (
"114 63 OFFCURVE",
"113 64 OFFCURVE",
"111 65 CURVE",
"110 66 OFFCURVE",
"87 86 OFFCURVE",
"64 117 CURVE",
"32 158 OFFCURVE",
"16 196 OFFCURVE",
"16 230 CURVE",
"16 267 OFFCURVE",
"36 303 OFFCURVE",
"73 331 CURVE",
"106 355 OFFCURVE",
"149 371 OFFCURVE",
"193 374 CURVE",
"220 376 OFFCURVE",
"243 372 OFFCURVE",
"263 365 CURVE",
"297 451 OFFCURVE",
"324 634 OFFCURVE",
"332 695 CURVE",
"285 653 OFFCURVE",
"229 638 OFFCURVE",
"189 634 CURVE",
"141 628 OFFCURVE",
"105 635 OFFCURVE",
"104 635 CURVE",
"100 636 OFFCURVE",
"97 640 OFFCURVE",
"98 643 CURVE",
"99 647 OFFCURVE",
"103 649 OFFCURVE",
"106 649 CURVE",
"106 649 LINE",
"107 649 OFFCURVE",
"142 642 OFFCURVE",
"188 648 CURVE",
"230 653 OFFCURVE",
"290 669 OFFCURVE",
"336 718 CURVE",
"339 721 OFFCURVE",
"342 721 OFFCURVE",
"345 720 CURVE",
"347 719 OFFCURVE",
"349 716 OFFCURVE",
"348 713 CURVE",
"347 702 OFFCURVE",
"317 465 OFFCURVE",
"276 359 CURVE",
"296 349 OFFCURVE",
"314 336 OFFCURVE",
"330 324 CURVE",
"335 320 OFFCURVE",
"340 316 OFFCURVE",
"346 312 CURVE",
"388 282 OFFCURVE",
"442 264 OFFCURVE",
"490 264 CURVE",
"520 264 OFFCURVE",
"553 271 OFFCURVE",
"584 284 CURVE",
"613 296 OFFCURVE",
"637 312 OFFCURVE",
"650 328 CURVE",
"652 331 OFFCURVE",
"657 331 OFFCURVE",
"659 328 CURVE",
"662 326 OFFCURVE",
"663 322 OFFCURVE",
"660 319 CURVE",
"646 301 OFFCURVE",
"620 284 OFFCURVE",
"590 271 CURVE",
"557 258 OFFCURVE",
"522 250 OFFCURVE",
"490 250 CURVE",
"439 250 OFFCURVE",
"382 269 OFFCURVE",
"337 301 CURVE",
"332 305 OFFCURVE",
"327 309 OFFCURVE",
"321 313 CURVE",
"305 325 OFFCURVE",
"289 337 OFFCURVE",
"270 346 CURVE",
"226 248 OFFCURVE",
"123 68 OFFCURVE",
"122 67 CURVE",
"121 65 OFFCURVE",
"119 64 OFFCURVE",
"117 63 CURVE",
"117 63 OFFCURVE",
"116 63 OFFCURVE",
"116 63 CURVE"
);
},
{
closed = 1;
nodes = (
"202 361 OFFCURVE",
"198 360 OFFCURVE",
"194 360 CURVE",
"115 354 OFFCURVE",
"30 302 OFFCURVE",
"30 230 CURVE",
"30 168 OFFCURVE",
"94 101 OFFCURVE",
"114 81 CURVE",
"135 117 OFFCURVE",
"219 265 OFFCURVE",
"257 352 CURVE",
"243 357 OFFCURVE",
"226 361 OFFCURVE",
"207 361 CURVE"
);
},
{
closed = 1;
nodes = (
"392 -96 OFFCURVE",
"352 -86 OFFCURVE",
"318 -68 CURVE",
"287 -51 OFFCURVE",
"267 -30 OFFCURVE",
"263 -8 CURVE",
"251 51 OFFCURVE",
"331 208 OFFCURVE",
"352 244 CURVE",
"356 251 OFFCURVE",
"363 263 OFFCURVE",
"373 278 CURVE",
"394 312 OFFCURVE",
"426 363 OFFCURVE",
"450 408 CURVE",
"463 433 OFFCURVE",
"472 453 OFFCURVE",
"477 469 CURVE",
"484 491 OFFCURVE",
"481 498 OFFCURVE",
"479 500 CURVE",
"475 505 OFFCURVE",
"462 504 OFFCURVE",
"444 499 CURVE",
"427 493 OFFCURVE",
"405 483 OFFCURVE",
"379 468 CURVE",
"334 443 OFFCURVE",
"292 414 OFFCURVE",
"292 414 CURVE",
"288 412 OFFCURVE",
"284 412 OFFCURVE",
"282 416 CURVE",
"280 419 OFFCURVE",
"280 423 OFFCURVE",
"284 425 CURVE",
"284 426 OFFCURVE",
"327 455 OFFCURVE",
"372 481 CURVE",
"399 496 OFFCURVE",
"422 506 OFFCURVE",
"440 512 CURVE",
"465 520 OFFCURVE",
"481 519 OFFCURVE",
"490 509 CURVE",
"502 494 OFFCURVE",
"494 461 OFFCURVE",
"463 402 CURVE",
"439 356 OFFCURVE",
"406 305 OFFCURVE",
"385 271 CURVE",
"375 256 OFFCURVE",
"368 244 OFFCURVE",
"364 237 CURVE",
"338 192 OFFCURVE",
"267 45 OFFCURVE",
"277 -6 CURVE",
"280 -23 OFFCURVE",
"297 -40 OFFCURVE",
"325 -55 CURVE",
"369 -79 OFFCURVE",
"426 -89 OFFCURVE",
"454 -77 CURVE",
"474 -70 OFFCURVE",
"504 -31 OFFCURVE",
"532 20 CURVE",
"560 71 OFFCURVE",
"578 121 OFFCURVE",
"577 147 CURVE",
"577 156 OFFCURVE",
"574 161 OFFCURVE",
"570 162 CURVE",
"525 177 OFFCURVE",
"457 115 OFFCURVE",
"456 114 CURVE",
"453 112 OFFCURVE",
"449 112 OFFCURVE",
"446 115 CURVE",
"444 118 OFFCURVE",
"444 122 OFFCURVE",
"447 125 CURVE",
"450 128 OFFCURVE",
"522 193 OFFCURVE",
"575 176 CURVE",
"582 173 OFFCURVE",
"590 167 OFFCURVE",
"591 148 CURVE",
"592 113 OFFCURVE",
"568 56 OFFCURVE",
"545 13 CURVE",
"533 -8 OFFCURVE",
"494 -77 OFFCURVE",
"460 -90 CURVE",
"450 -94 OFFCURVE",
"438 -96 OFFCURVE",
"424 -96 CURVE"
);
}
);
};
layerId = "A4322E26-1E68-404E-BC15-B577A9E05BE3";
paths = (
{
closed = 1;
nodes = (
"661 331 OFFCURVE",
"656 331 OFFCURVE",
"654 328 CURVE",
"641 312 OFFCURVE",
"617 296 OFFCURVE",
"588 284 CURVE SMOOTH",
"557 271 OFFCURVE",
"524 264 OFFCURVE",
"494 264 CURVE SMOOTH",
"463 264 OFFCURVE",
"429 272 OFFCURVE",
"398 285 CURVE",
"418 318 OFFCURVE",
"446 362 OFFCURVE",
"467 402 CURVE SMOOTH",
"498 461 OFFCURVE",
"506 494 OFFCURVE",
"494 509 CURVE",
"485 519 OFFCURVE",
"469 520 OFFCURVE",
"444 512 CURVE SMOOTH",
"426 506 OFFCURVE",
"403 496 OFFCURVE",
"376 481 CURVE SMOOTH",
"347 465 OFFCURVE",
"320 447 OFFCURVE",
"303 436 CURVE",
"332 551 OFFCURVE",
"351 704 OFFCURVE",
"352 713 CURVE",
"353 716 OFFCURVE",
"351 719 OFFCURVE",
"349 720 CURVE",
"346 721 OFFCURVE",
"343 721 OFFCURVE",
"340 718 CURVE SMOOTH",
"292 670 OFFCURVE",
"234 653 OFFCURVE",
"192 648 CURVE SMOOTH",
"146 643 OFFCURVE",
"111 649 OFFCURVE",
"110 649 CURVE SMOOTH",
"107 649 OFFCURVE",
"103 647 OFFCURVE",
"102 643 CURVE",
"101 640 OFFCURVE",
"104 636 OFFCURVE",
"108 635 CURVE",
"109 635 OFFCURVE",
"145 628 OFFCURVE",
"193 634 CURVE SMOOTH",
"233 639 OFFCURVE",
"289 653 OFFCURVE",
"336 695 CURVE",
"330 646 OFFCURVE",
"311 516 OFFCURVE",
"285 423 CURVE",
"285 420 LINE",
"279 399 OFFCURVE",
"273 381 OFFCURVE",
"267 365 CURVE",
"247 372 OFFCURVE",
"224 376 OFFCURVE",
"197 374 CURVE SMOOTH",
"153 371 OFFCURVE",
"110 355 OFFCURVE",
"77 331 CURVE SMOOTH",
"39 304 OFFCURVE",
"20 267 OFFCURVE",
"20 230 CURVE SMOOTH",
"20 196 OFFCURVE",
"36 158 OFFCURVE",
"68 117 CURVE SMOOTH",
"92 87 OFFCURVE",
"114 66 OFFCURVE",
"115 65 CURVE",
"117 64 OFFCURVE",
"118 63 OFFCURVE",
"120 63 CURVE SMOOTH",
"121 63 LINE",
"123 64 OFFCURVE",
"125 65 OFFCURVE",
"126 67 CURVE",
"127 68 OFFCURVE",
"230 248 OFFCURVE",
"274 346 CURVE",
"293 337 OFFCURVE",
"309 325 OFFCURVE",
"325 313 CURVE",
"331 309 OFFCURVE",
"336 305 OFFCURVE",
"341 301 CURVE",
"353 293 OFFCURVE",
"365 285 OFFCURVE",
"378 279 CURVE",
"377 279 OFFCURVE",
"377 278 OFFCURVE",
"377 278 CURVE",
"367 263 OFFCURVE",
"360 251 OFFCURVE",
"356 244 CURVE SMOOTH",
"335 208 OFFCURVE",
"256 51 OFFCURVE",
"267 -8 CURVE SMOOTH",
"271 -30 OFFCURVE",
"291 -51 OFFCURVE",
"322 -68 CURVE SMOOTH",
"356 -86 OFFCURVE",
"396 -96 OFFCURVE",
"428 -96 CURVE SMOOTH",
"442 -96 OFFCURVE",
"454 -94 OFFCURVE",
"464 -90 CURVE SMOOTH",
"498 -76 OFFCURVE",
"537 -8 OFFCURVE",
"549 13 CURVE SMOOTH",
"573 55 OFFCURVE",
"597 113 OFFCURVE",
"595 148 CURVE SMOOTH",
"594 167 OFFCURVE",
"586 173 OFFCURVE",
"579 176 CURVE",
"526 193 OFFCURVE",
"454 128 OFFCURVE",
"451 125 CURVE SMOOTH",
"448 122 OFFCURVE",
"448 118 OFFCURVE",
"450 115 CURVE",
"453 112 OFFCURVE",
"457 112 OFFCURVE",
"460 114 CURVE",
"461 115 OFFCURVE",
"529 177 OFFCURVE",
"574 162 CURVE",
"578 161 OFFCURVE",
"581 156 OFFCURVE",
"581 147 CURVE",
"582 121 OFFCURVE",
"564 71 OFFCURVE",
"536 20 CURVE SMOOTH",
"508 -31 OFFCURVE",
"478 -70 OFFCURVE",
"458 -77 CURVE",
"430 -89 OFFCURVE",
"373 -79 OFFCURVE",
"329 -55 CURVE SMOOTH",
"301 -40 OFFCURVE",
"284 -23 OFFCURVE",
"281 -6 CURVE SMOOTH",
"272 45 OFFCURVE",
"342 192 OFFCURVE",
"368 237 CURVE SMOOTH",
"372 244 OFFCURVE",
"379 256 OFFCURVE",
"389 271 CURVE",
"389 272 OFFCURVE",
"390 272 OFFCURVE",
"390 273 CURVE",
"424 258 OFFCURVE",
"460 250 OFFCURVE",
"494 250 CURVE SMOOTH",
"526 250 OFFCURVE",
"561 258 OFFCURVE",
"594 271 CURVE SMOOTH",
"624 283 OFFCURVE",
"650 301 OFFCURVE",
"664 319 CURVE",
"667 322 OFFCURVE",
"666 326 OFFCURVE",
"663 328 CURVE"
);
},
{
closed = 1;
nodes = (
"344 316 OFFCURVE",
"339 320 OFFCURVE",
"334 324 CURVE SMOOTH",
"318 336 OFFCURVE",
"300 349 OFFCURVE",
"280 359 CURVE",
"286 375 OFFCURVE",
"292 394 OFFCURVE",
"298 415 CURVE",
"307 421 OFFCURVE",
"344 446 OFFCURVE",
"383 468 CURVE SMOOTH",
"409 483 OFFCURVE",
"431 493 OFFCURVE",
"448 499 CURVE",
"466 504 OFFCURVE",
"479 505 OFFCURVE",
"483 500 CURVE",
"485 498 OFFCURVE",
"488 491 OFFCURVE",
"481 469 CURVE SMOOTH",
"476 453 OFFCURVE",
"467 433 OFFCURVE",
"454 408 CURVE SMOOTH",
"433 368 OFFCURVE",
"406 324 OFFCURVE",
"385 291 CURVE",
"373 297 OFFCURVE",
"361 304 OFFCURVE",
"350 312 CURVE"
);
},
{
closed = 1;
nodes = (
"98 101 OFFCURVE",
"34 168 OFFCURVE",
"34 230 CURVE SMOOTH",
"34 302 OFFCURVE",
"119 354 OFFCURVE",
"198 360 CURVE",
"202 360 OFFCURVE",
"206 361 OFFCURVE",
"211 361 CURVE SMOOTH",
"230 361 OFFCURVE",
"247 357 OFFCURVE",
"261 352 CURVE",
"223 265 OFFCURVE",
"139 117 OFFCURVE",
"118 81 CURVE"
);
}
);
width = 686;
}
);
unicode = 0041;
},
{
glyphname = B;
lastChange = "2020-05-19 09:16:35 +0000";
layers = (
{
layerId = "A4322E26-1E68-404E-BC15-B577A9E05BE3";
paths = (
{
closed = 1;
nodes = (
"245 -3 OFFCURVE",
"238 0 OFFCURVE",
"231 8 CURVE",
"216 26 OFFCURVE",
"211 70 OFFCURVE",
"216 141 CURVE",
"221 201 OFFCURVE",
"232 272 OFFCURVE",
"242 327 CURVE",
"252 383 OFFCURVE",
"289 451 OFFCURVE",
"353 529 CURVE",
"359 538 OFFCURVE",
"366 546 OFFCURVE",
"373 553 CURVE",
"348 541 OFFCURVE",
"318 531 OFFCURVE",
"283 531 CURVE",
"250 531 OFFCURVE",
"219 544 OFFCURVE",
"192 570 CURVE",
"170 591 OFFCURVE",
"154 617 OFFCURVE",
"143 636 CURVE",
"137 645 OFFCURVE",
"131 656 OFFCURVE",
"127 658 CURVE",
"125 657 OFFCURVE",
"113 653 OFFCURVE",
"74 625 CURVE",
"63 617 OFFCURVE",
"52 609 OFFCURVE",
"44 602 CURVE",
"61 597 OFFCURVE",
"87 581 OFFCURVE",
"127 538 CURVE",
"202 457 OFFCURVE",
"204 427 OFFCURVE",
"204 423 CURVE",
"190 423 LINE",
"190 423 OFFCURVE",
"190 423 OFFCURVE",
"190 423 CURVE",
"190 424 OFFCURVE",
"188 452 OFFCURVE",
"117 528 CURVE",
"51 600 OFFCURVE",
"28 590 OFFCURVE",
"28 590 CURVE",
"29 590 OFFCURVE",
"29 590 OFFCURVE",
"29 590 CURVE",
"25 596 LINE",
"20 601 LINE",
"20 602 OFFCURVE",
"42 619 OFFCURVE",
"66 636 CURVE",
"115 672 OFFCURVE",
"124 672 OFFCURVE",
"128 672 CURVE",
"137 672 OFFCURVE",
"143 662 OFFCURVE",
"155 643 CURVE",
"177 606 OFFCURVE",
"214 545 OFFCURVE",
"283 545 CURVE",
"338 545 OFFCURVE",
"381 571 OFFCURVE",
"409 594 CURVE",
"431 616 OFFCURVE",
"445 630 OFFCURVE",
"445 630 CURVE",
"448 632 OFFCURVE",
"452 632 OFFCURVE",
"455 630 CURVE",
"457 628 OFFCURVE",
"458 624 OFFCURVE",
"456 621 CURVE",
"455 620 OFFCURVE",
"442 602 OFFCURVE",
"418 583 CURVE",
"403 566 OFFCURVE",
"383 545 OFFCURVE",
"363 520 CURVE",
"302 445 OFFCURVE",
"265 377 OFFCURVE",
"256 325 CURVE",
"246 270 OFFCURVE",
"235 199 OFFCURVE",
"230 140 CURVE",
"224 57 OFFCURVE",
"233 27 OFFCURVE",
"242 17 CURVE",
"246 13 OFFCURVE",
"250 11 OFFCURVE",
"255 11 CURVE",
"279 11 OFFCURVE",
"305 26 OFFCURVE",
"331 57 CURVE",
"354 84 OFFCURVE",
"378 122 OFFCURVE",
"404 174 CURVE",
"405 177 OFFCURVE",
"407 181 OFFCURVE",
"409 184 CURVE",
"377 195 OFFCURVE",
"351 225 OFFCURVE",
"351 257 CURVE",
"351 273 OFFCURVE",
"359 303 OFFCURVE",
"371 332 CURVE",
"379 353 OFFCURVE",
"397 391 OFFCURVE",
"422 410 CURVE",
"436 420 OFFCURVE",
"450 423 OFFCURVE",
"464 419 CURVE",
"475 415 OFFCURVE",
"483 408 OFFCURVE",
"487 398 CURVE",
"504 359 OFFCURVE",
"469 275 OFFCURVE",
"430 195 CURVE",
"431 195 OFFCURVE",
"432 195 OFFCURVE",
"433 195 CURVE",
"449 195 OFFCURVE",
"499 230 OFFCURVE",
"553 278 CURVE",
"578 300 OFFCURVE",
"601 324 OFFCURVE",
"618 343 CURVE",
"643 372 OFFCURVE",
"644 382 OFFCURVE",
"644 383 CURVE",
"644 387 OFFCURVE",
"648 390 OFFCURVE",
"651 390 CURVE",
"655 390 OFFCURVE",
"658 387 OFFCURVE",
"658 383 CURVE",
"658 380 OFFCURVE",
"658 368 OFFCURVE",
"628 334 CURVE",
"611 314 OFFCURVE",
"588 290 OFFCURVE",
"562 267 CURVE",
"546 253 OFFCURVE",
"464 181 OFFCURVE",
"433 181 CURVE",
"430 181 OFFCURVE",
"426 181 OFFCURVE",
"423 181 CURVE",
"421 177 OFFCURVE",
"418 172 OFFCURVE",
"416 167 CURVE",
"390 115 OFFCURVE",
"365 76 OFFCURVE",
"342 48 CURVE",
"312 13 OFFCURVE",
"284 -3 OFFCURVE",
"255 -3 CURVE"
);
},
{
closed = 1;
nodes = (
"445 406 OFFCURVE",
"438 404 OFFCURVE",
"430 398 CURVE",
"414 386 OFFCURVE",
"398 361 OFFCURVE",
"384 327 CURVE",
"372 297 OFFCURVE",
"365 269 OFFCURVE",
"365 257 CURVE",
"365 230 OFFCURVE",
"388 205 OFFCURVE",
"415 197 CURVE",
"446 259 OFFCURVE",
"490 356 OFFCURVE",
"474 392 CURVE",
"471 399 OFFCURVE",
"467 403 OFFCURVE",
"460 405 CURVE",
"457 406 OFFCURVE",
"454 406 OFFCURVE",
"452 406 CURVE"
);
}
);
width = 678;
}
);
unicode = 0042;
},
{
glyphname = C;
lastChange = "2020-05-19 08:19:34 +0000";
layers = (
{
layerId = "A4322E26-1E68-404E-BC15-B577A9E05BE3";
paths = (
{
closed = 1;
nodes = (
"107 -152 OFFCURVE",
"84 -143 OFFCURVE",
"67 -127 CURVE",
"49 -108 OFFCURVE",
"30 -54 OFFCURVE",
"31 25 CURVE",
"32 89 OFFCURVE",
"45 189 OFFCURVE",
"107 303 CURVE",
"153 387 OFFCURVE",
"190 443 OFFCURVE",
"222 479 CURVE",
"257 517 OFFCURVE",
"290 535 OFFCURVE",
"324 535 CURVE",
"343 535 OFFCURVE",
"359 524 OFFCURVE",
"371 503 CURVE",
"382 485 OFFCURVE",
"388 463 OFFCURVE",
"391 448 CURVE",
"392 445 OFFCURVE",
"390 441 OFFCURVE",
"386 440 CURVE",
"382 439 OFFCURVE",
"378 441 OFFCURVE",
"378 445 CURVE",
"371 474 OFFCURVE",
"356 521 OFFCURVE",
"324 521 CURVE",
"294 521 OFFCURVE",
"265 505 OFFCURVE",
"233 470 CURVE",
"201 435 OFFCURVE",
"165 380 OFFCURVE",
"120 296 CURVE",
"59 185 OFFCURVE",
"46 87 OFFCURVE",
"45 25 CURVE",
"44 -46 OFFCURVE",
"61 -100 OFFCURVE",
"77 -117 CURVE",
"109 -149 OFFCURVE",
"170 -144 OFFCURVE",
"233 -104 CURVE",
"295 -65 OFFCURVE",
"347 21 OFFCURVE",
"348 22 CURVE",
"349 25 OFFCURVE",
"354 27 OFFCURVE",
"357 25 CURVE",
"360 23 OFFCURVE",
"362 18 OFFCURVE",
"360 15 CURVE",
"357 11 OFFCURVE",
"305 -75 OFFCURVE",
"240 -116 CURVE",
"207 -137 OFFCURVE",
"174 -149 OFFCURVE",
"144 -152 CURVE",
"140 -152 OFFCURVE",
"137 -152 OFFCURVE",
"134 -152 CURVE"
);
},
{
closed = 1;
nodes = (
"332 17 OFFCURVE",
"329 21 OFFCURVE",
"329 24 CURVE",
"329 109 OFFCURVE",
"334 193 OFFCURVE",
"345 273 CURVE",
"296 244 OFFCURVE",
"244 229 OFFCURVE",
"190 228 CURVE",
"175 228 OFFCURVE",
"168 235 OFFCURVE",
"165 240 CURVE",
"156 255 OFFCURVE",
"161 280 OFFCURVE",
"177 309 CURVE",
"196 343 OFFCURVE",
"231 377 OFFCURVE",
"265 377 CURVE",
"270 377 OFFCURVE",
"306 378 OFFCURVE",
"355 340 CURVE",
"365 401 OFFCURVE",
"379 459 OFFCURVE",
"395 510 CURVE",
"417 581 OFFCURVE",
"444 636 OFFCURVE",
"474 675 CURVE",
"507 718 OFFCURVE",
"543 740 OFFCURVE",
"582 740 CURVE",
"590 740 OFFCURVE",
"604 735 OFFCURVE",
"604 701 CURVE",
"605 643 OFFCURVE",
"568 527 OFFCURVE",
"500 425 CURVE",
"467 377 OFFCURVE",
"431 336 OFFCURVE",
"391 305 CURVE",
"398 298 OFFCURVE",
"405 289 OFFCURVE",
"412 280 CURVE",
"465 211 OFFCURVE",
"487 164 OFFCURVE",
"496 142 CURVE",
"504 157 OFFCURVE",
"520 183 OFFCURVE",
"541 209 CURVE",
"560 232 OFFCURVE",
"580 251 OFFCURVE",
"599 263 CURVE",
"623 279 OFFCURVE",
"648 286 OFFCURVE",
"671 283 CURVE",
"674 283 OFFCURVE",
"677 279 OFFCURVE",
"677 275 CURVE",
"676 272 OFFCURVE",
"673 269 OFFCURVE",
"669 269 CURVE",
"581 280 OFFCURVE",
"501 122 OFFCURVE",
"500 121 CURVE",
"499 118 OFFCURVE",
"496 117 OFFCURVE",
"493 117 CURVE",
"490 117 OFFCURVE",
"488 120 OFFCURVE",
"487 122 CURVE",
"487 123 OFFCURVE",
"475 175 OFFCURVE",
"401 272 CURVE",
"394 281 OFFCURVE",
"387 289 OFFCURVE",
"380 296 CURVE",
"377 294 OFFCURVE",
"373 291 OFFCURVE",
"370 289 CURVE",
"367 287 OFFCURVE",
"363 284 OFFCURVE",
"360 282 CURVE",
"349 200 OFFCURVE",
"343 112 OFFCURVE",
"343 24 CURVE",
"343 21 OFFCURVE",
"340 17 OFFCURVE",
"336 17 CURVE"
);
},
{
closed = 1;
nodes = (
"267 363 OFFCURVE",
"266 363 OFFCURVE",
"266 363 CURVE",
"266 363 OFFCURVE",
"266 363 OFFCURVE",
"266 363 CURVE",
"237 363 OFFCURVE",
"206 331 OFFCURVE",
"189 302 CURVE",
"176 279 OFFCURVE",
"171 257 OFFCURVE",
"177 248 CURVE",
"178 246 OFFCURVE",
"180 242 OFFCURVE",
"189 242 CURVE",
"250 243 OFFCURVE",
"302 262 OFFCURVE",
"347 290 CURVE",
"349 302 OFFCURVE",
"350 313 OFFCURVE",
"352 324 CURVE",
"334 339 OFFCURVE",
"318 348 OFFCURVE",
"306 354 CURVE",
"286 362 OFFCURVE",
"272 363 OFFCURVE",
"268 363 CURVE"
);
},
{
closed = 1;
nodes = (
"364 309 OFFCURVE",
"363 305 OFFCURVE",
"363 301 CURVE",
"366 303 OFFCURVE",
"368 305 OFFCURVE",
"371 307 CURVE",
"369 309 OFFCURVE",
"367 311 OFFCURVE",
"365 313 CURVE"
);
},
{
closed = 1;
nodes = (
"372 325 OFFCURVE",
"377 320 OFFCURVE",
"382 315 CURVE",
"426 350 OFFCURVE",
"462 393 OFFCURVE",
"488 433 CURVE",
"528 491 OFFCURVE",
"552 548 OFFCURVE",
"565 585 CURVE",
"581 631 OFFCURVE",
"590 673 OFFCURVE",
"590 701 CURVE",
"590 716 OFFCURVE",
"587 726 OFFCURVE",
"582 726 CURVE",
"548 726 OFFCURVE",
"515 706 OFFCURVE",
"485 667 CURVE",
"456 629 OFFCURVE",
"430 575 OFFCURVE",
"408 506 CURVE",
"392 453 OFFCURVE",
"378 393 OFFCURVE",
"367 329 CURVE"
);
}
);
width = 700;
}
);
unicode = 0043;
},
{
glyphname = D;
lastChange = "2020-05-19 09:42:29 +0000";
layers = (
{
layerId = "A4322E26-1E68-404E-BC15-B577A9E05BE3";
paths = (
{
closed = 1;
nodes = (
"188 -26 OFFCURVE",
"170 -20 OFFCURVE",
"155 7 CURVE",
"140 35 OFFCURVE",
"131 81 OFFCURVE",
"132 130 CURVE",
"133 180 OFFCURVE",
"143 224 OFFCURVE",
"161 252 CURVE",
"173 271 OFFCURVE",
"200 297 OFFCURVE",
"238 325 CURVE",
"277 355 OFFCURVE",
"324 384 OFFCURVE",
"370 408 CURVE",
"375 410 OFFCURVE",
"381 413 OFFCURVE",
"387 416 CURVE",
"400 456 OFFCURVE",
"417 506 OFFCURVE",
"436 554 CURVE",
"448 585 OFFCURVE",
"459 612 OFFCURVE",
"470 635 CURVE",
"462 631 OFFCURVE",
"453 627 OFFCURVE",
"444 624 CURVE",
"378 594 OFFCURVE",
"306 571 OFFCURVE",
"274 568 CURVE",
"272 568 OFFCURVE",
"270 568 OFFCURVE",
"268 568 CURVE",
"223 568 OFFCURVE",
"191 617 OFFCURVE",
"165 656 CURVE",
"148 682 OFFCURVE",
"132 706 OFFCURVE",
"119 708 CURVE",
"102 711 OFFCURVE",
"83 704 OFFCURVE",
"67 691 CURVE",
"46 673 OFFCURVE",
"34 645 OFFCURVE",
"34 615 CURVE",
"34 606 OFFCURVE",
"37 599 OFFCURVE",
"44 592 CURVE",
"80 558 OFFCURVE",
"192 562 OFFCURVE",
"193 562 CURVE",
"197 562 OFFCURVE",
"200 559 OFFCURVE",
"200 555 CURVE",
"200 551 OFFCURVE",
"197 548 OFFCURVE",
"194 548 CURVE",
"189 548 OFFCURVE",
"74 544 OFFCURVE",
"34 582 CURVE",
"24 591 OFFCURVE",
"20 602 OFFCURVE",
"20 615 CURVE",
"20 649 OFFCURVE",
"34 681 OFFCURVE",
"58 701 CURVE",
"77 718 OFFCURVE",
"101 725 OFFCURVE",
"121 722 CURVE",
"140 719 OFFCURVE",
"157 693 OFFCURVE",
"176 664 CURVE",
"203 624 OFFCURVE",
"233 578 OFFCURVE",
"273 582 CURVE",
"304 585 OFFCURVE",
"373 608 OFFCURVE",
"439 636 CURVE",
"454 643 OFFCURVE",
"467 650 OFFCURVE",
"480 656 CURVE",
"503 702 OFFCURVE",
"523 728 OFFCURVE",
"541 735 CURVE",
"549 738 OFFCURVE",
"557 738 OFFCURVE",
"563 734 CURVE",
"576 727 OFFCURVE",
"576 717 OFFCURVE",
"575 712 CURVE",
"572 700 OFFCURVE",
"558 685 OFFCURVE",
"531 668 CURVE",
"520 661 OFFCURVE",
"506 653 OFFCURVE",
"490 645 CURVE",
"478 621 OFFCURVE",
"465 590 OFFCURVE",
"449 549 CURVE",
"432 506 OFFCURVE",
"417 462 OFFCURVE",
"405 424 CURVE",
"477 457 OFFCURVE",
"584 492 OFFCURVE",
"663 461 CURVE",
"666 460 OFFCURVE",
"668 456 OFFCURVE",
"667 452 CURVE",
"665 449 OFFCURVE",
"661 447 OFFCURVE",
"657 448 CURVE",
"579 479 OFFCURVE",
"469 439 OFFCURVE",
"399 406 CURVE",
"390 380 OFFCURVE",
"384 359 OFFCURVE",
"380 346 CURVE",
"379 343 OFFCURVE",
"378 340 OFFCURVE",
"377 337 CURVE",
"365 295 OFFCURVE",
"338 207 OFFCURVE",
"307 127 CURVE",
"289 82 OFFCURVE",
"272 47 OFFCURVE",
"256 22 CURVE",
"236 -10 OFFCURVE",
"217 -26 OFFCURVE",
"200 -26 CURVE"
);
},
{
closed = 1;
nodes = (
"380 397 OFFCURVE",
"378 396 OFFCURVE",
"376 395 CURVE",
"277 344 OFFCURVE",
"194 279 OFFCURVE",
"172 244 CURVE",
"139 192 OFFCURVE",
"137 69 OFFCURVE",
"168 13 CURVE",
"177 -3 OFFCURVE",
"188 -12 OFFCURVE",
"200 -12 CURVE",
"213 -12 OFFCURVE",
"244 7 OFFCURVE",
"294 132 CURVE",
"325 211 OFFCURVE",
"351 299 OFFCURVE",
"364 341 CURVE",
"365 344 OFFCURVE",
"366 347 OFFCURVE",
"367 350 CURVE",
"370 361 OFFCURVE",
"375 378 OFFCURVE",
"381 398 CURVE"
);
},
{
closed = 1;
nodes = (
"550 723 OFFCURVE",
"548 723 OFFCURVE",
"546 722 CURVE",
"538 719 OFFCURVE",
"524 707 OFFCURVE",
"502 667 CURVE",
"542 690 OFFCURVE",
"560 706 OFFCURVE",
"561 715 CURVE",
"562 716 OFFCURVE",
"562 719 OFFCURVE",
"557 722 CURVE",
"555 723 OFFCURVE",
"553 723 OFFCURVE",
"551 723 CURVE"
);
},
{
closed = 1;
nodes = (
"543 -6 OFFCURVE",
"509 14 OFFCURVE",
"479 40 CURVE",
"451 23 OFFCURVE",
"420 14 OFFCURVE",
"387 14 CURVE",
"356 14 OFFCURVE",
"331 19 OFFCURVE",
"313 28 CURVE",
"296 36 OFFCURVE",
"285 48 OFFCURVE",
"281 63 CURVE",
"271 96 OFFCURVE",
"296 135 OFFCURVE",
"325 153 CURVE",
"349 169 OFFCURVE",
"374 169 OFFCURVE",
"391 153 CURVE",
"408 138 OFFCURVE",
"424 120 OFFCURVE",
"439 103 CURVE",
"453 87 OFFCURVE",
"467 72 OFFCURVE",
"481 58 CURVE",
"547 104 OFFCURVE",
"580 193 OFFCURVE",
"589 253 CURVE",
"597 302 OFFCURVE",
"590 326 OFFCURVE",
"584 328 CURVE",
"567 334 OFFCURVE",
"555 323 OFFCURVE",
"532 302 CURVE",
"513 285 OFFCURVE",
"490 264 OFFCURVE",
"456 248 CURVE",
"382 215 OFFCURVE",
"277 221 OFFCURVE",
"273 221 CURVE",
"269 221 OFFCURVE",
"266 225 OFFCURVE",
"266 229 CURVE",
"267 232 OFFCURVE",
"270 235 OFFCURVE",
"274 235 CURVE",
"275 235 OFFCURVE",
"380 229 OFFCURVE",
"450 261 CURVE",
"483 276 OFFCURVE",
"505 296 OFFCURVE",
"522 312 CURVE",
"545 333 OFFCURVE",
"563 350 OFFCURVE",
"589 341 CURVE",
"609 335 OFFCURVE",
"610 290 OFFCURVE",
"603 251 CURVE",
"594 195 OFFCURVE",
"571 139 OFFCURVE",
"540 98 CURVE",
"526 78 OFFCURVE",
"509 61 OFFCURVE",
"491 48 CURVE",
"518 25 OFFCURVE",
"548 8 OFFCURVE",
"587 8 CURVE",
"622 8 OFFCURVE",
"674 29 OFFCURVE",
"703 69 CURVE",
"729 103 OFFCURVE",
"734 145 OFFCURVE",
"720 193 CURVE",
"719 196 OFFCURVE",
"721 200 OFFCURVE",
"725 201 CURVE",
"728 203 OFFCURVE",
"732 200 OFFCURVE",
"733 197 CURVE",
"749 145 OFFCURVE",
"742 98 OFFCURVE",
"715 61 CURVE",
"682 17 OFFCURVE",
"626 -6 OFFCURVE",
"587 -6 CURVE"
);
},
{
closed = 1;
nodes = (
"349 151 OFFCURVE",
"338 145 OFFCURVE",
"332 142 CURVE",
"308 126 OFFCURVE",
"287 94 OFFCURVE",
"294 67 CURVE",
"302 42 OFFCURVE",
"334 28 OFFCURVE",
"387 28 CURVE",
"418 28 OFFCURVE",
"445 36 OFFCURVE",
"469 50 CURVE",
"455 64 OFFCURVE",
"442 79 OFFCURVE",
"429 93 CURVE",
"413 111 OFFCURVE",
"398 129 OFFCURVE",
"382 143 CURVE",
"375 149 OFFCURVE",
"368 151 OFFCURVE",
"361 151 CURVE"
);
}
);
width = 761;
}
);
unicode = 0044;
},
{
glyphname = E;
lastChange = "2020-05-19 14:44:41 +0000";
layers = (
{
layerId = "A4322E26-1E68-404E-BC15-B577A9E05BE3";
paths = (
{
closed = 1;
nodes = (
"226 -18 OFFCURVE",
"224 -17 OFFCURVE",
"223 -15 CURVE",
"223 -14 OFFCURVE",
"210 6 OFFCURVE",
"185 23 CURVE",
"151 46 OFFCURVE",
"112 51 OFFCURVE",
"69 40 CURVE",
"66 39 OFFCURVE",
"63 41 OFFCURVE",
"61 43 CURVE",
"53 59 OFFCURVE",
"31 102 OFFCURVE",
"22 111 CURVE",
"20 113 OFFCURVE",
"19 116 OFFCURVE",
"21 119 CURVE",
"22 122 OFFCURVE",
"25 123 OFFCURVE",
"28 123 CURVE",
"28 123 OFFCURVE",
"54 119 OFFCURVE",
"92 128 CURVE",
"127 136 OFFCURVE",
"180 158 OFFCURVE",
"235 213 CURVE",
"238 216 OFFCURVE",
"243 216 OFFCURVE",
"245 213 CURVE",
"248 210 OFFCURVE",
"248 206 OFFCURVE",
"245 203 CURVE",
"188 145 OFFCURVE",
"131 123 OFFCURVE",
"94 114 CURVE",
"72 109 OFFCURVE",
"54 108 OFFCURVE",
"42 108 CURVE",
"52 91 OFFCURVE",
"65 66 OFFCURVE",
"71 55 CURVE",
"127 68 OFFCURVE",
"168 51 OFFCURVE",
"193 34 CURVE",
"208 24 OFFCURVE",
"219 13 OFFCURVE",
"226 4 CURVE",
"244 63 OFFCURVE",
"274 132 OFFCURVE",
"316 211 CURVE",
"351 280 OFFCURVE",
"396 355 OFFCURVE",
"447 435 CURVE",
"494 508 OFFCURVE",
"538 572 OFFCURVE",
"569 616 CURVE",
"551 602 OFFCURVE",
"531 589 OFFCURVE",
"516 580 CURVE",
"479 557 OFFCURVE",
"421 524 OFFCURVE",
"408 524 CURVE",
"395 524 OFFCURVE",
"371 550 OFFCURVE",
"310 623 CURVE",
"292 645 OFFCURVE",
"274 667 OFFCURVE",
"264 676 CURVE",
"263 677 OFFCURVE",
"260 681 OFFCURVE",
"251 679 CURVE",
"236 676 OFFCURVE",
"211 659 OFFCURVE",
"186 634 CURVE",
"164 611 OFFCURVE",
"144 585 OFFCURVE",
"137 569 CURVE",
"134 562 OFFCURVE",
"134 557 OFFCURVE",
"135 555 CURVE",
"139 548 OFFCURVE",
"159 545 OFFCURVE",
"181 542 CURVE",
"198 540 OFFCURVE",
"219 538 OFFCURVE",
"242 532 CURVE",
"319 515 OFFCURVE",
"360 457 OFFCURVE",
"362 454 CURVE",
"364 451 OFFCURVE",
"363 447 OFFCURVE",
"360 445 CURVE",
"357 442 OFFCURVE",
"352 443 OFFCURVE",
"350 446 CURVE",
"350 446 LINE",
"350 447 OFFCURVE",
"310 502 OFFCURVE",
"239 519 CURVE",
"217 524 OFFCURVE",
"197 526 OFFCURVE",
"180 528 CURVE",
"150 532 OFFCURVE",
"131 535 OFFCURVE",
"123 548 CURVE",
"119 554 OFFCURVE",
"120 563 OFFCURVE",
"124 574 CURVE",
"132 592 OFFCURVE",
"152 619 OFFCURVE",
"176 643 CURVE",
"192 660 OFFCURVE",
"223 688 OFFCURVE",
"248 693 CURVE",
"262 695 OFFCURVE",
"270 691 OFFCURVE",
"274 686 CURVE",
"284 676 OFFCURVE",
"301 656 OFFCURVE",
"321 632 CURVE",
"339 611 OFFCURVE",
"358 588 OFFCURVE",
"375 569 CURVE",
"399 543 OFFCURVE",
"406 539 OFFCURVE",
"408 538 CURVE",
"416 539 OFFCURVE",
"460 561 OFFCURVE",
"510 593 CURVE",
"553 620 OFFCURVE",
"587 645 OFFCURVE",
"604 664 CURVE",
"611 674 OFFCURVE",
"615 679 OFFCURVE",
"616 680 CURVE",
"618 683 OFFCURVE",
"622 683 OFFCURVE",
"625 681 CURVE",
"628 679 OFFCURVE",
"629 676 OFFCURVE",
"627 672 CURVE",
"625 667 OFFCURVE",
"620 661 OFFCURVE",
"615 655 CURVE",
"589 620 OFFCURVE",
"526 533 OFFCURVE",
"459 428 CURVE",
"378 302 OFFCURVE",
"274 123 OFFCURVE",
"236 -13 CURVE",
"235 -16 OFFCURVE",
"233 -18 OFFCURVE",
"230 -18 CURVE",
"229 -18 OFFCURVE",
"229 -18 OFFCURVE",
"229 -18 CURVE"
);
},
{
closed = 1;
nodes = (
"465 12 OFFCURVE",
"460 13 OFFCURVE",
"455 14 CURVE",
"433 20 OFFCURVE",
"416 39 OFFCURVE",
"404 70 CURVE",
"394 93 OFFCURVE",
"389 123 OFFCURVE",
"389 150 CURVE",
"389 209 OFFCURVE",
"413 256 OFFCURVE",
"427 279 CURVE",
"449 315 OFFCURVE",
"477 339 OFFCURVE",
"499 342 CURVE",
"509 343 OFFCURVE",
"518 341 OFFCURVE",
"525 334 CURVE",
"545 316 OFFCURVE",
"542 270 OFFCURVE",
"542 265 CURVE",
"541 261 OFFCURVE",
"538 259 OFFCURVE",
"534 259 CURVE",
"530 259 OFFCURVE",
"527 263 OFFCURVE",
"528 266 CURVE",
"529 278 OFFCURVE",
"528 312 OFFCURVE",
"515 324 CURVE",
"511 328 OFFCURVE",
"507 329 OFFCURVE",
"501 328 CURVE",
"483 326 OFFCURVE",
"459 303 OFFCURVE",
"439 272 CURVE",
"416 235 OFFCURVE",
"403 191 OFFCURVE",
"403 150 CURVE",
"403 99 OFFCURVE",
"423 38 OFFCURVE",
"459 28 CURVE",
"478 22 OFFCURVE",
"501 30 OFFCURVE",
"528 52 CURVE",
"561 78 OFFCURVE",
"598 124 OFFCURVE",
"638 189 CURVE",
"640 192 OFFCURVE",
"645 193 OFFCURVE",
"648 191 CURVE",
"651 189 OFFCURVE",
"652 185 OFFCURVE",
"650 181 CURVE",
"579 69 OFFCURVE",
"519 12 OFFCURVE",
"471 12 CURVE"
);
}
);
width = 671;
}
);
unicode = 0045;
},
{
glyphname = F;
lastChange = "2020-05-19 08:20:28 +0000";
layers = (
{
layerId = "A4322E26-1E68-404E-BC15-B577A9E05BE3";
paths = (
{
closed = 1;
nodes = (
"159 -146 OFFCURVE",
"155 -145 OFFCURVE",
"150 -144 CURVE",
"111 -134 OFFCURVE",
"60 -81 OFFCURVE",
"35 -37 CURVE",
"13 1 OFFCURVE",
"15 75 OFFCURVE",
"38 116 CURVE",
"50 136 OFFCURVE",
"66 147 OFFCURVE",
"84 147 CURVE",
"103 147 OFFCURVE",
"119 134 OFFCURVE",
"130 110 CURVE",
"151 118 OFFCURVE",
"175 124 OFFCURVE",
"200 128 CURVE",
"218 130 OFFCURVE",
"239 132 OFFCURVE",
"264 132 CURVE",
"283 158 OFFCURVE",
"301 178 OFFCURVE",
"308 185 CURVE",
"307 187 OFFCURVE",
"305 191 OFFCURVE",
"299 198 CURVE",
"292 206 OFFCURVE",
"282 216 OFFCURVE",
"271 228 CURVE",
"239 260 OFFCURVE",
"196 303 OFFCURVE",
"179 347 CURVE",
"159 396 OFFCURVE",
"204 507 OFFCURVE",
"258 579 CURVE",
"278 605 OFFCURVE",
"317 649 OFFCURVE",
"353 646 CURVE",
"366 644 OFFCURVE",
"378 638 OFFCURVE",
"387 626 CURVE",
"406 602 OFFCURVE",
"412 559 OFFCURVE",
"413 523 CURVE",
"423 544 OFFCURVE",
"437 568 OFFCURVE",
"456 595 CURVE",
"487 641 OFFCURVE",
"520 679 OFFCURVE",
"520 679 CURVE",
"523 682 OFFCURVE",
"527 683 OFFCURVE",
"530 680 CURVE",
"533 678 OFFCURVE",
"533 673 OFFCURVE",
"531 670 CURVE",
"530 670 OFFCURVE",
"498 632 OFFCURVE",
"467 587 CURVE",
"437 543 OFFCURVE",
"418 507 OFFCURVE",
"412 481 CURVE",
"411 467 OFFCURVE",
"410 458 OFFCURVE",
"409 457 CURVE",
"409 454 OFFCURVE",
"406 451 OFFCURVE",
"403 451 CURVE",
"402 451 OFFCURVE",
"402 451 OFFCURVE",
"402 451 CURVE",
"399 451 OFFCURVE",
"396 454 OFFCURVE",
"396 457 CURVE",
"395 464 OFFCURVE",
"395 473 OFFCURVE",
"398 482 CURVE",
"400 518 OFFCURVE",
"400 587 OFFCURVE",
"376 618 CURVE",
"369 626 OFFCURVE",
"361 631 OFFCURVE",
"351 632 CURVE",
"330 634 OFFCURVE",
"300 612 OFFCURVE",
"269 570 CURVE",
"243 536 OFFCURVE",
"220 492 OFFCURVE",
"204 451 CURVE",
"189 408 OFFCURVE",
"184 372 OFFCURVE",
"192 352 CURVE",
"208 311 OFFCURVE",
"250 269 OFFCURVE",
"281 238 CURVE",
"309 209 OFFCURVE",
"323 195 OFFCURVE",
"323 183 CURVE",
"323 181 OFFCURVE",
"322 180 OFFCURVE",
"321 178 CURVE",
"320 178 OFFCURVE",
"302 159 OFFCURVE",
"281 131 CURVE",
"336 128 OFFCURVE",
"405 115 OFFCURVE",
"485 81 CURVE",
"488 80 OFFCURVE",
"490 75 OFFCURVE",
"489 72 CURVE",
"487 68 OFFCURVE",
"483 67 OFFCURVE",
"479 68 CURVE",
"396 104 OFFCURVE",
"326 116 OFFCURVE",
"271 117 CURVE",
"240 76 OFFCURVE",
"207 22 OFFCURVE",
"207 -19 CURVE",
"207 -40 OFFCURVE",
"208 -57 OFFCURVE",
"209 -70 CURVE",
"211 -107 OFFCURVE",
"212 -123 OFFCURVE",
"182 -141 CURVE",
"176 -144 OFFCURVE",
"170 -146 OFFCURVE",
"163 -146 CURVE"
);
},
{
closed = 1;
nodes = (
"71 133 OFFCURVE",
"60 125 OFFCURVE",
"50 109 CURVE",
"29 73 OFFCURVE",
"28 4 OFFCURVE",
"47 -30 CURVE",
"71 -71 OFFCURVE",
"119 -122 OFFCURVE",
"153 -131 CURVE",
"162 -133 OFFCURVE",
"169 -132 OFFCURVE",
"175 -129 CURVE",
"198 -115 OFFCURVE",
"197 -107 OFFCURVE",
"195 -71 CURVE",
"194 -57 OFFCURVE",
"193 -41 OFFCURVE",
"193 -19 CURVE",
"193 23 OFFCURVE",
"223 76 OFFCURVE",
"253 118 CURVE",
"234 117 OFFCURVE",
"217 116 OFFCURVE",
"202 114 CURVE",
"176 110 OFFCURVE",
"154 105 OFFCURVE",
"135 97 CURVE",
"146 67 OFFCURVE",
"147 27 OFFCURVE",
"128 10 CURVE",
"120 3 OFFCURVE",
"105 -3 OFFCURVE",
"81 11 CURVE",
"60 22 OFFCURVE",
"54 40 OFFCURVE",
"63 60 CURVE",
"70 74 OFFCURVE",
"87 89 OFFCURVE",
"110 101 CURVE",
"112 102 OFFCURVE",
"115 104 OFFCURVE",
"117 105 CURVE",
"109 122 OFFCURVE",
"97 133 OFFCURVE",
"84 133 CURVE"
);
},
{
closed = 1;
nodes = (
"98 80 OFFCURVE",
"82 66 OFFCURVE",
"76 53 CURVE",
"70 41 OFFCURVE",
"74 31 OFFCURVE",
"88 23 CURVE",
"102 15 OFFCURVE",
"112 15 OFFCURVE",
"119 20 CURVE",
"131 31 OFFCURVE",
"133 63 OFFCURVE",
"123 92 CURVE"
);
},
{
closed = 1;
nodes = (
"104 227 OFFCURVE",
"101 228 OFFCURVE",
"100 230 CURVE",
"98 234 OFFCURVE",
"99 238 OFFCURVE",
"103 240 CURVE",
"104 241 OFFCURVE",
"141 260 OFFCURVE",
"201 271 CURVE",
"237 278 OFFCURVE",
"274 280 OFFCURVE",
"311 277 CURVE",
"357 274 OFFCURVE",
"403 264 OFFCURVE",
"448 248 CURVE",
"452 246 OFFCURVE",
"454 242 OFFCURVE",
"452 239 CURVE",
"451 235 OFFCURVE",
"447 233 OFFCURVE",
"443 234 CURVE",
"344 271 OFFCURVE",
"259 267 OFFCURVE",
"205 258 CURVE",
"146 247 OFFCURVE",
"110 228 OFFCURVE",
"109 228 CURVE",
"108 227 OFFCURVE",
"107 227 OFFCURVE",
"106 227 CURVE"
);
}
);
width = 550;
}
);
unicode = 0046;
},
{
glyphname = G;
lastChange = "2020-05-19 14:44:56 +0000";
layers = (
{
layerId = "A4322E26-1E68-404E-BC15-B577A9E05BE3";
paths = (
{
closed = 1;
nodes = (
"234 379 OFFCURVE",
"206 392 OFFCURVE",
"194 417 CURVE",
"183 439 OFFCURVE",
"186 470 OFFCURVE",
"203 508 CURVE",
"221 548 OFFCURVE",
"248 585 OFFCURVE",
"268 610 CURVE",
"293 640 OFFCURVE",
"321 667 OFFCURVE",
"345 687 CURVE",
"373 709 OFFCURVE",
"394 718 OFFCURVE",
"407 715 CURVE",
"421 711 OFFCURVE",
"431 703 OFFCURVE",
"438 691 CURVE",
"459 652 OFFCURVE",
"436 581 OFFCURVE",
"435 578 CURVE",
"434 575 OFFCURVE",
"430 573 OFFCURVE",
"426 574 CURVE",
"422 575 OFFCURVE",
"420 579 OFFCURVE",
"422 583 CURVE",
"422 584 OFFCURVE",
"444 651 OFFCURVE",
"425 685 CURVE",
"421 693 OFFCURVE",
"414 699 OFFCURVE",
"404 701 CURVE",
"387 705 OFFCURVE",
"333 666 OFFCURVE",
"279 601 CURVE",
"231 542 OFFCURVE",
"187 464 OFFCURVE",
"206 423 CURVE",
"216 403 OFFCURVE",
"240 393 OFFCURVE",
"278 393 CURVE",
"316 393 OFFCURVE",
"347 408 OFFCURVE",
"369 439 CURVE",
"386 461 OFFCURVE",
"391 484 OFFCURVE",
"391 485 CURVE",
"392 488 OFFCURVE",
"396 491 OFFCURVE",
"400 490 CURVE",
"404 489 OFFCURVE",
"406 485 OFFCURVE",
"405 482 CURVE",
"405 480 OFFCURVE",
"399 456 OFFCURVE",
"380 430 CURVE",
"363 407 OFFCURVE",
"332 379 OFFCURVE",
"278 379 CURVE"
);
},
{
closed = 1;
nodes = (
"85 4 OFFCURVE",
"62 20 OFFCURVE",
"45 50 CURVE",
"26 85 OFFCURVE",
"17 140 OFFCURVE",
"21 201 CURVE",
"25 260 OFFCURVE",
"41 316 OFFCURVE",
"63 351 CURVE",
"82 380 OFFCURVE",
"105 394 OFFCURVE",
"129 393 CURVE",
"163 391 OFFCURVE",
"200 365 OFFCURVE",
"240 316 CURVE",
"256 295 OFFCURVE",
"273 271 OFFCURVE",
"289 244 CURVE",
"323 331 OFFCURVE",
"344 411 OFFCURVE",
"344 412 CURVE",
"345 415 OFFCURVE",
"349 418 OFFCURVE",
"353 417 CURVE",
"357 416 OFFCURVE",
"359 412 OFFCURVE",
"358 408 CURVE",
"358 407 OFFCURVE",
"335 320 OFFCURVE",
"298 229 CURVE",
"312 204 OFFCURVE",
"326 177 OFFCURVE",
"338 150 CURVE",
"349 126 OFFCURVE",
"360 99 OFFCURVE",
"367 75 CURVE",
"368 81 OFFCURVE",
"369 87 OFFCURVE",
"371 93 CURVE",
"380 127 OFFCURVE",
"398 175 OFFCURVE",
"438 211 CURVE",
"470 240 OFFCURVE",
"487 266 OFFCURVE",
"495 282 CURVE",
"505 302 OFFCURVE",
"509 321 OFFCURVE",
"505 331 CURVE",
"502 338 OFFCURVE",
"497 341 OFFCURVE",
"488 341 CURVE",
"473 341 OFFCURVE",
"453 321 OFFCURVE",
"432 285 CURVE",
"416 256 OFFCURVE",
"405 226 OFFCURVE",
"405 226 CURVE",
"403 222 OFFCURVE",
"399 221 OFFCURVE",
"396 222 CURVE",
"392 223 OFFCURVE",
"390 227 OFFCURVE",
"392 231 CURVE",
"392 232 OFFCURVE",
"403 262 OFFCURVE",
"420 292 CURVE",
"444 334 OFFCURVE",
"467 355 OFFCURVE",
"488 355 CURVE",
"503 355 OFFCURVE",
"513 349 OFFCURVE",
"518 336 CURVE",
"523 322 OFFCURVE",
"520 300 OFFCURVE",
"508 276 CURVE",
"495 251 OFFCURVE",
"474 225 OFFCURVE",
"448 201 CURVE",
"411 167 OFFCURVE",
"393 122 OFFCURVE",
"385 90 CURVE",
"378 65 OFFCURVE",
"376 43 OFFCURVE",
"376 33 CURVE",
"376 30 OFFCURVE",
"376 28 OFFCURVE",
"375 25 CURVE",
"375 22 OFFCURVE",
"371 19 OFFCURVE",
"368 19 CURVE",
"364 20 OFFCURVE",
"361 23 OFFCURVE",
"361 26 CURVE",
"361 27 OFFCURVE",
"361 29 OFFCURVE",
"362 33 CURVE",
"361 51 OFFCURVE",
"350 90 OFFCURVE",
"325 144 CURVE",
"315 167 OFFCURVE",
"303 190 OFFCURVE",
"291 212 CURVE",
"291 211 OFFCURVE",
"290 209 OFFCURVE",
"289 208 CURVE",
"232 73 OFFCURVE",
"173 4 OFFCURVE",
"114 4 CURVE"
);
},
{
closed = 1;
nodes = (
"103 379 OFFCURVE",
"86 360 OFFCURVE",
"75 343 CURVE",
"29 272 OFFCURVE",
"20 124 OFFCURVE",
"58 56 CURVE",
"72 31 OFFCURVE",
"90 18 OFFCURVE",
"114 18 CURVE",
"166 18 OFFCURVE",
"222 86 OFFCURVE",
"277 213 CURVE",
"279 218 OFFCURVE",
"281 223 OFFCURVE",
"283 228 CURVE",
"265 258 OFFCURVE",
"247 285 OFFCURVE",
"229 307 CURVE",
"192 352 OFFCURVE",
"157 377 OFFCURVE",
"128 379 CURVE",
"127 379 OFFCURVE",
"126 379 OFFCURVE",
"125 379 CURVE"
);
},
{
closed = 1;
nodes = (
"283 27 OFFCURVE",
"281 28 OFFCURVE",
"280 31 CURVE",
"279 33 OFFCURVE",
"182 231 OFFCURVE",
"81 267 CURVE",
"78 268 OFFCURVE",
"76 272 OFFCURVE",
"77 276 CURVE",
"78 279 OFFCURVE",
"82 281 OFFCURVE",
"86 280 CURVE",
"131 264 OFFCURVE",
"179 218 OFFCURVE",
"230 143 CURVE",
"267 88 OFFCURVE",
"292 37 OFFCURVE",
"292 37 CURVE",
"294 33 OFFCURVE",
"292 29 OFFCURVE",
"289 27 CURVE",
"288 27 OFFCURVE",
"287 27 OFFCURVE",
"286 27 CURVE"
);
}
);
width = 540;
}
);
unicode = 0047;
},
{
glyphname = H;
lastChange = "2020-05-19 14:45:02 +0000";
layers = (
{
layerId = "A4322E26-1E68-404E-BC15-B577A9E05BE3";
paths = (
{
closed = 1;
nodes = (
"109 -7 OFFCURVE",
"88 15 OFFCURVE",
"74 33 CURVE",
"55 57 OFFCURVE",
"39 84 OFFCURVE",
"29 108 CURVE",
"18 134 OFFCURVE",
"17 152 OFFCURVE",
"26 161 CURVE",
"28 163 OFFCURVE",
"31 166 OFFCURVE",
"35 171 CURVE",
"54 196 OFFCURVE",
"93 246 OFFCURVE",
"167 273 CURVE",
"172 274 OFFCURVE",
"176 275 OFFCURVE",
"181 277 CURVE",
"196 349 OFFCURVE",
"236 465 OFFCURVE",
"265 543 CURVE",
"250 525 OFFCURVE",
"234 515 OFFCURVE",
"218 515 CURVE",
"187 515 OFFCURVE",
"177 551 OFFCURVE",
"168 579 CURVE",
"163 597 OFFCURVE",
"157 617 OFFCURVE",
"148 617 CURVE",
"143 617 OFFCURVE",
"129 612 OFFCURVE",
"99 569 CURVE",
"82 544 OFFCURVE",
"68 519 OFFCURVE",
"68 519 CURVE",
"66 516 OFFCURVE",
"62 514 OFFCURVE",
"59 516 CURVE",
"55 518 OFFCURVE",
"54 522 OFFCURVE",
"56 526 CURVE",
"56 527 OFFCURVE",
"70 552 OFFCURVE",
"88 577 CURVE",
"113 613 OFFCURVE",
"132 631 OFFCURVE",
"148 631 CURVE",
"167 631 OFFCURVE",
"174 608 OFFCURVE",
"182 583 CURVE",
"191 552 OFFCURVE",
"199 529 OFFCURVE",
"218 529 CURVE",
"251 529 OFFCURVE",
"284 593 OFFCURVE",
"296 623 CURVE",
"297 625 OFFCURVE",
"297 626 OFFCURVE",
"297 626 CURVE",
"299 630 OFFCURVE",
"303 632 OFFCURVE",
"307 630 CURVE",
"310 629 OFFCURVE",
"312 625 OFFCURVE",
"310 621 CURVE",
"310 621 OFFCURVE",
"310 620 OFFCURVE",
"310 619 CURVE",
"300 596 OFFCURVE",
"220 392 OFFCURVE",
"196 281 CURVE",
"282 301 OFFCURVE",
"384 282 OFFCURVE",
"502 224 CURVE",
"506 223 OFFCURVE",
"507 219 OFFCURVE",
"505 215 CURVE",
"504 212 OFFCURVE",
"499 210 OFFCURVE",
"496 212 CURVE",
"360 278 OFFCURVE",
"262 284 OFFCURVE",
"193 266 CURVE",
"186 230 OFFCURVE",
"180 192 OFFCURVE",
"175 155 CURVE",
"160 48 OFFCURVE",
"151 -7 OFFCURVE",
"125 -7 CURVE"
);
},
{
closed = 1;
nodes = (
"104 238 OFFCURVE",
"65 187 OFFCURVE",
"46 163 CURVE",
"41 157 OFFCURVE",
"38 153 OFFCURVE",
"36 151 CURVE",
"33 148 OFFCURVE",
"32 136 OFFCURVE",
"42 113 CURVE",
"51 91 OFFCURVE",
"67 64 OFFCURVE",
"85 42 CURVE",
"104 18 OFFCURVE",
"118 7 OFFCURVE",
"125 7 CURVE",
"126 7 OFFCURVE",
"134 9 OFFCURVE",
"143 48 CURVE",
"150 76 OFFCURVE",
"155 116 OFFCURVE",
"161 157 CURVE",
"166 192 OFFCURVE",
"171 228 OFFCURVE",
"178 261 CURVE"
);
},
{
closed = 1;
nodes = (
"250 -179 OFFCURVE",
"243 -173 OFFCURVE",
"237 -162 CURVE",
"224 -136 OFFCURVE",
"215 -84 OFFCURVE",
"215 -32 CURVE",
"214 5 OFFCURVE",
"218 73 OFFCURVE",
"248 114 CURVE",
"268 141 OFFCURVE",
"295 152 OFFCURVE",
"328 147 CURVE",
"338 145 OFFCURVE",
"348 144 OFFCURVE",
"358 141 CURVE",
"379 249 OFFCURVE",
"442 452 OFFCURVE",
"446 462 CURVE",
"447 466 OFFCURVE",
"451 468 OFFCURVE",
"454 467 CURVE",
"458 466 OFFCURVE",
"460 462 OFFCURVE",
"459 458 CURVE",
"458 455 OFFCURVE",
"392 246 OFFCURVE",
"371 138 CURVE",
"429 123 OFFCURVE",
"476 98 OFFCURVE",
"508 79 CURVE",
"550 52 OFFCURVE",
"573 29 OFFCURVE",
"574 28 CURVE",
"577 25 OFFCURVE",
"577 21 OFFCURVE",
"574 18 CURVE",
"571 15 OFFCURVE",
"567 15 OFFCURVE",
"564 18 CURVE",
"564 18 OFFCURVE",
"541 41 OFFCURVE",
"500 67 CURVE",
"470 86 OFFCURVE",
"424 110 OFFCURVE",
"369 124 CURVE",
"367 115 OFFCURVE",
"366 107 OFFCURVE",
"366 100 CURVE",
"362 56 OFFCURVE",
"346 -12 OFFCURVE",
"326 -70 CURVE",
"316 -101 OFFCURVE",
"305 -127 OFFCURVE",
"294 -145 CURVE",
"281 -168 OFFCURVE",
"269 -179 OFFCURVE",
"257 -179 CURVE"
);
},
{
closed = 1;
nodes = (
"292 134 OFFCURVE",
"275 126 OFFCURVE",
"262 108 CURVE",
"215 49 OFFCURVE",
"225 -97 OFFCURVE",
"247 -150 CURVE",
"253 -164 OFFCURVE",
"257 -165 OFFCURVE",
"257 -165 CURVE",
"259 -165 OFFCURVE",
"268 -163 OFFCURVE",
"282 -138 CURVE",
"292 -121 OFFCURVE",
"303 -95 OFFCURVE",
"313 -65 CURVE",
"332 -10 OFFCURVE",
"348 59 OFFCURVE",
"352 102 CURVE",
"352 109 OFFCURVE",
"354 118 OFFCURVE",
"355 128 CURVE",
"346 130 OFFCURVE",
"336 132 OFFCURVE",
"326 133 CURVE",
"322 134 OFFCURVE",
"317 134 OFFCURVE",
"313 134 CURVE"
);
}
);
width = 596;
}
);
unicode = 0048;
},
{
glyphname = I;
lastChange = "2020-05-19 14:45:09 +0000";
layers = (
{
layerId = "A4322E26-1E68-404E-BC15-B577A9E05BE3";
paths = (
{
closed = 1;
nodes = (
"127 0 OFFCURVE",
"125 1 OFFCURVE",
"124 3 CURVE",
"123 5 OFFCURVE",
"87 49 OFFCURVE",
"58 108 CURVE",
"41 143 OFFCURVE",
"29 176 OFFCURVE",
"24 206 CURVE",
"17 244 OFFCURVE",
"20 277 OFFCURVE",
"33 305 CURVE",
"61 367 OFFCURVE",
"139 400 OFFCURVE",
"263 404 CURVE",
"280 404 OFFCURVE",
"296 404 OFFCURVE",
"312 404 CURVE",
"350 500 OFFCURVE",
"382 585 OFFCURVE",
"396 621 CURVE",
"306 581 OFFCURVE",
"98 576 OFFCURVE",
"89 576 CURVE",
"85 576 OFFCURVE",
"82 579 OFFCURVE",
"82 583 CURVE",
"82 586 OFFCURVE",
"85 590 OFFCURVE",
"89 590 CURVE",
"91 590 OFFCURVE",
"332 596 OFFCURVE",
"405 641 CURVE",
"407 643 OFFCURVE",
"411 642 OFFCURVE",
"413 640 CURVE",
"415 639 OFFCURVE",
"416 635 OFFCURVE",
"415 633 CURVE",
"415 631 OFFCURVE",
"376 526 OFFCURVE",
"327 403 CURVE",
"407 400 OFFCURVE",
"467 388 OFFCURVE",
"506 377 CURVE",
"559 361 OFFCURVE",
"585 345 OFFCURVE",
"587 345 CURVE",
"590 343 OFFCURVE",
"591 338 OFFCURVE",
"589 335 CURVE",
"587 332 OFFCURVE",
"583 331 OFFCURVE",
"579 333 CURVE",
"579 333 OFFCURVE",
"553 348 OFFCURVE",
"501 363 CURVE",
"462 374 OFFCURVE",
"402 387 OFFCURVE",
"322 390 CURVE",
"312 366 OFFCURVE",
"303 342 OFFCURVE",
"293 319 CURVE",
"256 227 OFFCURVE",
"224 155 OFFCURVE",
"199 102 CURVE",
"156 13 OFFCURVE",
"140 0 OFFCURVE",
"130 0 CURVE"
);
},
{
closed = 1;
nodes = (
"129 14 OFFCURVE",
"129 14 OFFCURVE",
"129 14 CURVE",
"129 14 OFFCURVE",
"129 14 OFFCURVE",
"129 14 CURVE"
);
},
{
closed = 1;
nodes = (
"282 390 OFFCURVE",
"273 390 OFFCURVE",
"263 390 CURVE",
"145 387 OFFCURVE",
"72 356 OFFCURVE",
"45 299 CURVE",
"19 242 OFFCURVE",
"44 167 OFFCURVE",
"70 115 CURVE",
"94 67 OFFCURVE",
"122 28 OFFCURVE",
"132 16 CURVE",
"135 18 OFFCURVE",
"141 25 OFFCURVE",
"151 41 CURVE",
"161 58 OFFCURVE",
"174 82 OFFCURVE",
"189 113 CURVE",
"214 166 OFFCURVE",
"245 238 OFFCURVE",
"282 328 CURVE",
"290 349 OFFCURVE",
"299 370 OFFCURVE",
"307 390 CURVE",
"301 390 OFFCURVE",
"296 390 OFFCURVE",
"290 390 CURVE"
);
},
{
closed = 1;
nodes = (
"241 -146 OFFCURVE",
"237 -146 OFFCURVE",
"233 -145 CURVE",
"230 -144 OFFCURVE",
"228 -142 OFFCURVE",
"227 -139 CURVE",
"227 -138 OFFCURVE",
"221 -78 OFFCURVE",
"225 -9 CURVE",
"230 85 OFFCURVE",
"251 151 OFFCURVE",
"286 185 CURVE",
"310 208 OFFCURVE",
"339 217 OFFCURVE",
"375 212 CURVE",
"388 210 OFFCURVE",
"400 208 OFFCURVE",
"411 206 CURVE",
"439 333 OFFCURVE",
"454 448 OFFCURVE",
"454 450 CURVE",
"454 454 OFFCURVE",
"458 456 OFFCURVE",
"462 456 CURVE",
"466 455 OFFCURVE",
"468 452 OFFCURVE",
"468 448 CURVE",
"468 447 OFFCURVE",
"453 330 OFFCURVE",
"425 203 CURVE",
"451 197 OFFCURVE",
"472 191 OFFCURVE",
"492 185 CURVE",
"540 171 OFFCURVE",
"575 161 OFFCURVE",
"622 171 CURVE",
"626 172 OFFCURVE",
"630 169 OFFCURVE",
"630 166 CURVE",
"631 162 OFFCURVE",
"629 158 OFFCURVE",
"625 157 CURVE",
"611 154 OFFCURVE",
"597 153 OFFCURVE",
"585 153 CURVE",
"552 153 OFFCURVE",
"523 161 OFFCURVE",
"489 171 CURVE",
"469 177 OFFCURVE",
"447 183 OFFCURVE",
"422 189 CURVE",
"382 13 OFFCURVE",
"336 -95 OFFCURVE",
"286 -131 CURVE",
"272 -141 OFFCURVE",
"258 -146 OFFCURVE",
"244 -146 CURVE"
);
},
{
closed = 1;
nodes = (
"253 -133 OFFCURVE",
"265 -129 OFFCURVE",
"277 -120 CURVE",
"335 -78 OFFCURVE",
"379 61 OFFCURVE",
"408 192 CURVE",
"397 194 OFFCURVE",
"385 196 OFFCURVE",
"373 198 CURVE",
"342 202 OFFCURVE",
"316 195 OFFCURVE",
"296 175 CURVE",
"223 105 OFFCURVE",
"237 -96 OFFCURVE",
"241 -132 CURVE"
);
}
);
width = 650;
}
);
unicode = 0049;
},
{
glyphname = J;
lastChange = "2020-05-19 14:44:29 +0000";
layers = (
{
layerId = "A4322E26-1E68-404E-BC15-B577A9E05BE3";
paths = (
{
closed = 1;
nodes = (
"55 -7 OFFCURVE",
"39 7 OFFCURVE",
"30 32 CURVE",
"10 85 OFFCURVE",
"19 175 OFFCURVE",
"61 212 CURVE",
"78 227 OFFCURVE",
"107 240 OFFCURVE",
"153 215 CURVE",
"190 196 OFFCURVE",
"224 174 OFFCURVE",
"255 152 CURVE",
"293 198 OFFCURVE",
"336 255 OFFCURVE",
"382 322 CURVE",
"448 419 OFFCURVE",
"509 517 OFFCURVE",
"545 578 CURVE",
"530 568 OFFCURVE",
"513 563 OFFCURVE",
"496 562 CURVE",
"458 561 OFFCURVE",
"416 582 OFFCURVE",
"371 625 CURVE",
"345 651 OFFCURVE",
"326 676 OFFCURVE",
"318 686 CURVE",
"302 680 OFFCURVE",
"249 660 OFFCURVE",
"196 633 CURVE",
"114 591 OFFCURVE",
"71 549 OFFCURVE",
"71 513 CURVE",
"71 412 OFFCURVE",
"109 355 OFFCURVE",
"141 324 CURVE",
"165 301 OFFCURVE",
"189 290 OFFCURVE",
"201 285 CURVE",
"205 307 OFFCURVE",
"215 329 OFFCURVE",
"231 351 CURVE",
"245 370 OFFCURVE",
"264 388 OFFCURVE",
"287 406 CURVE",
"327 436 OFFCURVE",
"364 452 OFFCURVE",
"366 453 CURVE",
"369 455 OFFCURVE",
"373 453 OFFCURVE",
"375 450 CURVE",
"377 446 OFFCURVE",
"375 442 OFFCURVE",
"371 440 CURVE",
"371 440 OFFCURVE",
"333 424 OFFCURVE",
"295 395 CURVE",
"261 368 OFFCURVE",
"219 326 OFFCURVE",
"214 275 CURVE",
"214 273 OFFCURVE",
"213 271 OFFCURVE",
"211 270 CURVE",
"209 269 OFFCURVE",
"207 268 OFFCURVE",
"205 269 CURVE",
"204 269 OFFCURVE",
"167 279 OFFCURVE",
"131 314 CURVE",
"109 335 OFFCURVE",
"92 360 OFFCURVE",
"80 389 CURVE",
"65 425 OFFCURVE",
"57 467 OFFCURVE",
"57 513 CURVE",
"57 556 OFFCURVE",
"102 600 OFFCURVE",
"189 646 CURVE",
"253 679 OFFCURVE",
"318 700 OFFCURVE",
"319 701 CURVE",
"322 702 OFFCURVE",
"325 701 OFFCURVE",
"327 698 CURVE",
"328 697 OFFCURVE",
"413 573 OFFCURVE",
"496 576 CURVE",
"528 577 OFFCURVE",
"557 599 OFFCURVE",
"581 640 CURVE",
"583 644 OFFCURVE",
"588 645 OFFCURVE",
"591 643 CURVE",
"594 641 OFFCURVE",
"595 637 OFFCURVE",
"593 633 CURVE",
"593 632 OFFCURVE",
"502 472 OFFCURVE",
"393 314 CURVE",
"347 247 OFFCURVE",
"305 190 OFFCURVE",
"266 144 CURVE",
"296 122 OFFCURVE",
"323 101 OFFCURVE",
"347 82 CURVE",
"387 51 OFFCURVE",
"419 25 OFFCURVE",
"440 18 CURVE",
"446 39 OFFCURVE",
"468 104 OFFCURVE",
"505 164 CURVE",
"532 207 OFFCURVE",
"562 239 OFFCURVE",
"593 260 CURVE",
"633 286 OFFCURVE",
"677 294 OFFCURVE",
"722 282 CURVE",
"726 281 OFFCURVE",
"728 278 OFFCURVE",
"727 274 CURVE",
"726 270 OFFCURVE",
"723 268 OFFCURVE",
"719 269 CURVE",
"643 288 OFFCURVE",
"575 250 OFFCURVE",
"517 157 CURVE",
"473 86 OFFCURVE",
"452 8 OFFCURVE",
"451 7 CURVE",
"450 4 OFFCURVE",
"447 2 OFFCURVE",
"443 2 CURVE",
"419 7 OFFCURVE",
"385 34 OFFCURVE",
"338 71 CURVE",
"314 90 OFFCURVE",
"287 112 OFFCURVE",
"257 133 CURVE",
"246 119 OFFCURVE",
"234 106 OFFCURVE",
"223 95 CURVE",
"160 26 OFFCURVE",
"111 -7 OFFCURVE",
"74 -7 CURVE"
);
},
{
closed = 1;
nodes = (
"92 215 OFFCURVE",
"80 210 OFFCURVE",
"70 201 CURVE",
"33 169 OFFCURVE",
"25 85 OFFCURVE",
"43 37 CURVE",
"47 26 OFFCURVE",
"57 7 OFFCURVE",
"74 7 CURVE",
"106 7 OFFCURVE",
"153 40 OFFCURVE",
"213 104 CURVE",
"224 115 OFFCURVE",
"235 128 OFFCURVE",
"246 141 CURVE",
"215 163 OFFCURVE",
"182 184 OFFCURVE",
"147 203 CURVE",
"131 211 OFFCURVE",
"118 215 OFFCURVE",
"105 215 CURVE"
);
}
);
width = 747;
}
);
unicode = 004A;
},
{
glyphname = K;
lastChange = "2020-05-19 14:45:15 +0000";
layers = (
{
layerId = "A4322E26-1E68-404E-BC15-B577A9E05BE3";
paths = (
{
closed = 1;
nodes = (
"58 159 OFFCURVE",
"44 164 OFFCURVE",
"34 184 CURVE",
"19 212 OFFCURVE",
"16 263 OFFCURVE",
"26 321 CURVE",
"35 382 OFFCURVE",
"57 439 OFFCURVE",
"84 477 CURVE",
"113 518 OFFCURVE",
"149 537 OFFCURVE",
"187 532 CURVE",
"223 527 OFFCURVE",
"242 499 OFFCURVE",
"255 465 CURVE",
"296 558 OFFCURVE",
"325 636 OFFCURVE",
"326 637 CURVE",
"327 641 OFFCURVE",
"331 643 OFFCURVE",
"335 642 CURVE",
"338 640 OFFCURVE",
"340 636 OFFCURVE",
"339 633 CURVE",
"338 632 OFFCURVE",
"305 544 OFFCURVE",
"262 446 CURVE",
"266 432 OFFCURVE",
"269 417 OFFCURVE",
"272 403 CURVE",
"285 350 OFFCURVE",
"295 305 OFFCURVE",
"332 305 CURVE",
"350 305 OFFCURVE",
"359 315 OFFCURVE",
"369 326 CURVE",
"380 337 OFFCURVE",
"392 351 OFFCURVE",
"415 341 CURVE",
"440 331 OFFCURVE",
"448 288 OFFCURVE",
"450 270 CURVE",
"455 232 OFFCURVE",
"452 183 OFFCURVE",
"432 168 CURVE",
"428 166 OFFCURVE",
"424 166 OFFCURVE",
"422 169 CURVE",
"419 173 OFFCURVE",
"420 177 OFFCURVE",
"423 179 CURVE",
"436 189 OFFCURVE",
"442 229 OFFCURVE",
"436 268 CURVE",
"432 300 OFFCURVE",
"422 323 OFFCURVE",
"410 328 CURVE",
"396 334 OFFCURVE",
"390 328 OFFCURVE",
"379 316 CURVE",
"369 305 OFFCURVE",
"356 291 OFFCURVE",
"332 291 CURVE",
"310 291 OFFCURVE",
"293 303 OFFCURVE",
"281 327 CURVE",
"271 346 OFFCURVE",
"265 372 OFFCURVE",
"259 400 CURVE",
"257 408 OFFCURVE",
"255 417 OFFCURVE",
"252 426 CURVE",
"248 416 OFFCURVE",
"244 407 OFFCURVE",
"240 398 CURVE",
"208 329 OFFCURVE",
"178 275 OFFCURVE",
"153 236 CURVE",
"119 184 OFFCURVE",
"91 159 OFFCURVE",
"68 159 CURVE"
);
},
{
closed = 1;
nodes = (
"145 519 OFFCURVE",
"119 502 OFFCURVE",
"95 469 CURVE",
"39 389 OFFCURVE",
"19 242 OFFCURVE",
"46 190 CURVE",
"52 179 OFFCURVE",
"59 173 OFFCURVE",
"68 173 CURVE",
"87 173 OFFCURVE",
"133 203 OFFCURVE",
"227 404 CURVE",
"234 418 OFFCURVE",
"240 432 OFFCURVE",
"247 447 CURVE",
"235 483 OFFCURVE",
"219 513 OFFCURVE",
"185 518 CURVE",
"181 519 OFFCURVE",
"177 519 OFFCURVE",
"174 519 CURVE"
);
},
{
closed = 1;
nodes = (
"96 64 OFFCURVE",
"94 65 OFFCURVE",
"93 66 CURVE",
"90 69 OFFCURVE",
"90 73 OFFCURVE",
"93 76 CURVE",
"168 158 OFFCURVE",
"229 269 OFFCURVE",
"267 347 CURVE",
"309 432 OFFCURVE",
"333 498 OFFCURVE",
"333 498 CURVE",
"334 502 OFFCURVE",
"338 504 OFFCURVE",
"342 502 CURVE",
"345 501 OFFCURVE",
"347 497 OFFCURVE",
"346 493 CURVE",
"346 493 OFFCURVE",
"322 426 OFFCURVE",
"280 341 CURVE",
"241 262 OFFCURVE",
"179 150 OFFCURVE",
"103 66 CURVE",
"102 65 OFFCURVE",
"100 64 OFFCURVE",
"98 64 CURVE"
);
},
{
closed = 1;
nodes = (
"145 -16 OFFCURVE",
"142 -14 OFFCURVE",
"142 -10 CURVE",
"142 -4 OFFCURVE",
"136 127 OFFCURVE",
"177 186 CURVE",
"191 207 OFFCURVE",
"209 224 OFFCURVE",
"229 236 CURVE",
"248 247 OFFCURVE",
"267 253 OFFCURVE",
"282 252 CURVE",
"294 251 OFFCURVE",
"304 245 OFFCURVE",
"309 235 CURVE",
"324 206 OFFCURVE",
"331 126 OFFCURVE",
"266 18 CURVE",
"280 25 OFFCURVE",
"298 33 OFFCURVE",
"320 39 CURVE",
"347 47 OFFCURVE",
"373 50 OFFCURVE",
"396 48 CURVE",
"426 46 OFFCURVE",
"453 36 OFFCURVE",
"476 18 CURVE",
"479 16 OFFCURVE",
"479 11 OFFCURVE",
"477 8 CURVE",
"474 5 OFFCURVE",
"470 5 OFFCURVE",
"467 7 CURVE",
"429 36 OFFCURVE",
"381 42 OFFCURVE",
"324 26 CURVE",
"281 14 OFFCURVE",
"248 -8 OFFCURVE",
"248 -8 CURVE",
"245 -10 OFFCURVE",
"242 -9 OFFCURVE",
"239 -7 CURVE",
"237 -5 OFFCURVE",
"237 -1 OFFCURVE",
"238 2 CURVE",
"273 52 OFFCURVE",
"295 103 OFFCURVE",
"302 149 CURVE",
"308 187 OFFCURVE",
"303 216 OFFCURVE",
"297 229 CURVE",
"294 234 OFFCURVE",
"289 237 OFFCURVE",
"281 238 CURVE",
"257 240 OFFCURVE",
"216 218 OFFCURVE",
"188 178 CURVE",
"150 123 OFFCURVE",
"156 -8 OFFCURVE",
"156 -9 CURVE",
"156 -13 OFFCURVE",
"153 -16 OFFCURVE",
"149 -16 CURVE",
"149 -16 OFFCURVE",
"149 -16 OFFCURVE",
"149 -16 CURVE"
);
}
);
width = 498;
}
);
unicode = 004B;
},
{
glyphname = L;
lastChange = "2020-05-19 14:45:21 +0000";
layers = (
{
layerId = "A4322E26-1E68-404E-BC15-B577A9E05BE3";
paths = (
{
closed = 1;
nodes = (
"50 -22 OFFCURVE",
"47 -20 OFFCURVE",
"46 -17 CURVE",
"45 -14 OFFCURVE",
"47 -10 OFFCURVE",
"51 -9 CURVE",
"78 -1 OFFCURVE",
"112 33 OFFCURVE",
"144 85 CURVE",
"179 141 OFFCURVE",
"210 216 OFFCURVE",
"233 296 CURVE",
"258 385 OFFCURVE",
"312 478 OFFCURVE",
"353 540 CURVE",
"372 570 OFFCURVE",
"391 595 OFFCURVE",
"405 615 CURVE",
"356 580 OFFCURVE",
"275 527 OFFCURVE",
"234 527 CURVE",
"201 527 OFFCURVE",
"183 560 OFFCURVE",
"166 590 CURVE",
"148 623 OFFCURVE",
"137 638 OFFCURVE",
"120 629 CURVE",
"114 626 OFFCURVE",
"111 621 OFFCURVE",
"109 614 CURVE",
"103 584 OFFCURVE",
"140 526 OFFCURVE",
"155 506 CURVE",
"157 503 OFFCURVE",
"156 499 OFFCURVE",
"153 496 CURVE",
"150 494 OFFCURVE",
"146 495 OFFCURVE",
"143 498 CURVE",
"141 501 OFFCURVE",
"87 574 OFFCURVE",
"96 617 CURVE",
"98 628 OFFCURVE",
"104 636 OFFCURVE",
"114 641 CURVE",
"128 649 OFFCURVE",
"141 647 OFFCURVE",
"153 635 CURVE",
"162 626 OFFCURVE",
"170 612 OFFCURVE",
"179 596 CURVE",
"194 569 OFFCURVE",
"210 541 OFFCURVE",
"234 541 CURVE",
"257 541 OFFCURVE",
"299 561 OFFCURVE",
"357 598 CURVE",
"400 627 OFFCURVE",
"438 656 OFFCURVE",
"438 657 CURVE",
"441 659 OFFCURVE",
"445 659 OFFCURVE",
"447 656 CURVE",
"450 654 OFFCURVE",
"450 650 OFFCURVE",
"448 647 CURVE",
"447 646 OFFCURVE",
"409 600 OFFCURVE",
"365 533 CURVE",
"324 471 OFFCURVE",
"271 379 OFFCURVE",
"246 292 CURVE",
"223 210 OFFCURVE",
"192 136 OFFCURVE",
"156 78 CURVE",
"122 22 OFFCURVE",
"86 -14 OFFCURVE",
"55 -22 CURVE",
"54 -22 OFFCURVE",
"54 -22 OFFCURVE",
"53 -22 CURVE"
);
},
{
closed = 1;
nodes = (
"493 -145 OFFCURVE",
"490 -144 OFFCURVE",
"489 -141 CURVE",
"433 -20 OFFCURVE",
"374 74 OFFCURVE",
"315 137 CURVE",
"314 138 OFFCURVE",
"312 139 OFFCURVE",
"311 141 CURVE",
"306 123 OFFCURVE",
"303 107 OFFCURVE",
"299 93 CURVE",
"289 51 OFFCURVE",
"284 26 OFFCURVE",
"274 11 CURVE",
"262 -6 OFFCURVE",
"246 -8 OFFCURVE",
"223 -6 CURVE",
"196 -4 OFFCURVE",
"161 34 OFFCURVE",
"116 108 CURVE",
"83 162 OFFCURVE",
"58 216 OFFCURVE",
"57 216 CURVE",
"56 219 OFFCURVE",
"57 223 OFFCURVE",
"59 225 CURVE",
"61 226 OFFCURVE",
"107 260 OFFCURVE",
"179 241 CURVE",
"221 231 OFFCURVE",
"262 206 OFFCURVE",
"303 168 CURVE",
"305 173 OFFCURVE",
"306 178 OFFCURVE",
"308 184 CURVE",
"330 268 OFFCURVE",
"366 322 OFFCURVE",
"392 353 CURVE",
"394 356 OFFCURVE",
"396 359 OFFCURVE",
"399 361 CURVE",
"385 357 OFFCURVE",
"373 355 OFFCURVE",
"361 355 CURVE",
"331 355 OFFCURVE",
"304 366 OFFCURVE",
"277 378 CURVE",
"250 389 OFFCURVE",
"225 399 OFFCURVE",
"197 399 CURVE",
"116 399 OFFCURVE",
"32 306 OFFCURVE",
"32 305 CURVE",
"29 302 OFFCURVE",
"25 302 OFFCURVE",
"22 305 CURVE",
"19 307 OFFCURVE",
"19 312 OFFCURVE",
"21 315 CURVE",
"22 316 OFFCURVE",
"43 339 OFFCURVE",
"75 364 CURVE",
"119 396 OFFCURVE",
"160 413 OFFCURVE",
"197 413 CURVE",
"228 413 OFFCURVE",
"256 401 OFFCURVE",
"282 390 CURVE",
"328 371 OFFCURVE",
"372 353 OFFCURVE",
"433 393 CURVE",
"439 399 OFFCURVE",
"444 401 OFFCURVE",
"444 401 CURVE",
"447 403 OFFCURVE",
"451 402 OFFCURVE",
"454 399 CURVE",
"456 396 OFFCURVE",
"455 392 OFFCURVE",
"452 390 CURVE",
"448 387 OFFCURVE",
"445 384 OFFCURVE",
"441 382 CURVE",
"432 375 OFFCURVE",
"418 362 OFFCURVE",
"402 343 CURVE",
"377 314 OFFCURVE",
"343 261 OFFCURVE",
"321 180 CURVE",
"319 172 OFFCURVE",
"317 164 OFFCURVE",
"315 157 CURVE",
"318 153 OFFCURVE",
"322 150 OFFCURVE",
"325 146 CURVE",
"381 88 OFFCURVE",
"435 3 OFFCURVE",
"487 -104 CURVE",
"487 -69 OFFCURVE",
"488 -10 OFFCURVE",
"497 55 CURVE",
"505 116 OFFCURVE",
"519 170 OFFCURVE",
"539 216 CURVE",
"563 273 OFFCURVE",
"596 318 OFFCURVE",
"635 348 CURVE",
"639 350 OFFCURVE",
"643 349 OFFCURVE",
"645 346 CURVE",
"648 343 OFFCURVE",
"647 339 OFFCURVE",
"644 336 CURVE",
"558 272 OFFCURVE",
"524 147 OFFCURVE",
"511 53 CURVE",
"496 -49 OFFCURVE",
"503 -137 OFFCURVE",
"503 -138 CURVE",
"503 -141 OFFCURVE",
"501 -144 OFFCURVE",
"497 -145 CURVE",
"497 -145 OFFCURVE",
"496 -145 OFFCURVE",
"496 -145 CURVE"
);
},
{
closed = 1;
nodes = (
"80 202 OFFCURVE",
"102 159 OFFCURVE",
"128 115 CURVE",
"183 24 OFFCURVE",
"212 9 OFFCURVE",
"224 8 CURVE",
"246 6 OFFCURVE",
"255 8 OFFCURVE",
"262 19 CURVE",
"270 31 OFFCURVE",
"276 56 OFFCURVE",
"286 96 CURVE",
"290 112 OFFCURVE",
"294 131 OFFCURVE",
"299 152 CURVE",
"258 192 OFFCURVE",
"217 218 OFFCURVE",
"176 228 CURVE",
"123 241 OFFCURVE",
"85 224 OFFCURVE",
"73 217 CURVE"
);
}
);
width = 667;
}
);
unicode = 004C;
},
{
glyphname = M;
lastChange = "2020-05-19 14:45:31 +0000";
layers = (
{
layerId = "A4322E26-1E68-404E-BC15-B577A9E05BE3";
paths = (
{
closed = 1;
nodes = (
"105 3 OFFCURVE",
"81 16 OFFCURVE",
"61 41 CURVE",
"44 62 OFFCURVE",
"32 92 OFFCURVE",
"25 127 CURVE",
"19 158 OFFCURVE",
"19 190 OFFCURVE",
"24 215 CURVE",
"33 252 OFFCURVE",
"52 289 OFFCURVE",
"79 321 CURVE",
"104 349 OFFCURVE",
"132 370 OFFCURVE",
"156 376 CURVE",
"174 381 OFFCURVE",
"189 377 OFFCURVE",
"199 366 CURVE",
"220 343 OFFCURVE",
"216 289 OFFCURVE",
"187 211 CURVE",
"186 207 OFFCURVE",
"182 205 OFFCURVE",
"178 207 CURVE",
"175 208 OFFCURVE",
"173 212 OFFCURVE",
"174 216 CURVE",
"188 255 OFFCURVE",
"197 287 OFFCURVE",
"198 313 CURVE",
"200 333 OFFCURVE",
"196 349 OFFCURVE",
"189 357 CURVE",
"183 364 OFFCURVE",
"173 366 OFFCURVE",
"160 362 CURVE",
"138 357 OFFCURVE",
"112 338 OFFCURVE",
"90 311 CURVE",
"64 282 OFFCURVE",
"46 246 OFFCURVE",
"38 212 CURVE",
"28 167 OFFCURVE",
"38 92 OFFCURVE",
"72 49 CURVE",
"89 28 OFFCURVE",
"109 17 OFFCURVE",
"133 17 CURVE",
"148 17 OFFCURVE",
"190 47 OFFCURVE",
"251 324 CURVE",
"284 478 OFFCURVE",
"307 634 OFFCURVE",
"307 636 CURVE",
"307 638 OFFCURVE",
"309 640 OFFCURVE",
"311 641 CURVE",
"313 642 OFFCURVE",
"316 642 OFFCURVE",
"318 640 CURVE",
"384 594 OFFCURVE",
"393 532 OFFCURVE",
"388 487 CURVE",
"384 440 OFFCURVE",
"364 403 OFFCURVE",
"363 402 CURVE",
"361 398 OFFCURVE",
"357 397 OFFCURVE",
"353 399 CURVE",
"350 401 OFFCURVE",
"349 405 OFFCURVE",
"351 409 CURVE",
"351 409 OFFCURVE",
"370 444 OFFCURVE",
"374 489 CURVE",
"380 544 OFFCURVE",
"361 589 OFFCURVE",
"319 622 CURVE",
"313 583 OFFCURVE",
"293 451 OFFCURVE",
"264 321 CURVE",
"244 230 OFFCURVE",
"225 158 OFFCURVE",
"206 106 CURVE",
"181 36 OFFCURVE",
"157 3 OFFCURVE",
"133 3 CURVE"
);
},
{
closed = 1;
nodes = (
"76 174 OFFCURVE",
"73 177 OFFCURVE",
"72 180 CURVE",
"72 184 OFFCURVE",
"74 187 OFFCURVE",
"78 188 CURVE",
"79 188 OFFCURVE",
"153 200 OFFCURVE",
"258 207 CURVE",
"354 214 OFFCURVE",
"497 218 OFFCURVE",
"630 199 CURVE",
"634 198 OFFCURVE",
"636 195 OFFCURVE",
"636 191 CURVE",
"635 187 OFFCURVE",
"632 184 OFFCURVE",
"628 185 CURVE",
"496 204 OFFCURVE",
"354 200 OFFCURVE",
"259 194 CURVE",
"155 186 OFFCURVE",
"81 174 OFFCURVE",
"80 174 CURVE",
"80 174 OFFCURVE",
"80 174 OFFCURVE",
"79 174 CURVE"
);
},
{
closed = 1;
nodes = (
"472 3 OFFCURVE",
"458 9 OFFCURVE",
"425 60 CURVE",
"411 82 OFFCURVE",
"390 93 OFFCURVE",
"362 92 CURVE",
"340 92 OFFCURVE",
"322 84 OFFCURVE",
"322 84 CURVE",
"319 83 OFFCURVE",
"315 84 OFFCURVE",
"314 87 CURVE",
"312 89 OFFCURVE",
"312 93 OFFCURVE",
"314 95 CURVE",
"315 96 OFFCURVE",
"357 140 OFFCURVE",
"396 188 CURVE",
"466 274 OFFCURVE",
"461 295 OFFCURVE",
"458 300 CURVE",
"449 313 OFFCURVE",
"423 317 OFFCURVE",
"385 311 CURVE",
"355 306 OFFCURVE",
"327 297 OFFCURVE",
"327 297 CURVE",
"323 296 OFFCURVE",
"319 298 OFFCURVE",
"318 302 CURVE",
"317 305 OFFCURVE",
"319 309 OFFCURVE",
"322 311 CURVE",
"324 311 OFFCURVE",
"351 320 OFFCURVE",
"383 325 CURVE",
"427 331 OFFCURVE",
"456 326 OFFCURVE",
"469 308 CURVE",
"477 297 OFFCURVE",
"474 279 OFFCURVE",
"458 251 CURVE",
"447 232 OFFCURVE",
"430 207 OFFCURVE",
"407 179 CURVE",
"383 149 OFFCURVE",
"358 122 OFFCURVE",
"342 104 CURVE",
"348 105 OFFCURVE",
"354 106 OFFCURVE",
"361 106 CURVE",
"394 107 OFFCURVE",
"421 94 OFFCURVE",
"437 68 CURVE",
"452 44 OFFCURVE",
"464 29 OFFCURVE",
"473 22 CURVE",
"480 17 OFFCURVE",
"485 17 OFFCURVE",
"492 17 CURVE",
"493 17 OFFCURVE",
"494 17 OFFCURVE",
"495 17 CURVE",
"499 19 OFFCURVE",
"515 34 OFFCURVE",
"536 60 CURVE",
"553 82 OFFCURVE",
"577 118 OFFCURVE",
"594 161 CURVE",
"623 233 OFFCURVE",
"624 298 OFFCURVE",
"596 354 CURVE",
"594 358 OFFCURVE",
"596 362 OFFCURVE",
"599 363 CURVE",
"602 365 OFFCURVE",
"607 364 OFFCURVE",
"608 360 CURVE",
"660 257 OFFCURVE",
"609 148 OFFCURVE",
"574 92 CURVE",
"560 69 OFFCURVE",
"544 47 OFFCURVE",
"528 29 CURVE",
"505 3 OFFCURVE",
"498 3 OFFCURVE",
"495 3 CURVE",
"494 3 OFFCURVE",
"493 3 OFFCURVE",
"492 3 CURVE",
"491 3 OFFCURVE",
"490 3 OFFCURVE",
"489 3 CURVE"
);
},
{
closed = 1;
nodes = (
"494 17 LINE"
);
}
);
width = 656;
}
);
unicode = 004D;
},
{
glyphname = N;
lastChange = "2020-05-19 14:45:59 +0000";
layers = (
{
layerId = "A4322E26-1E68-404E-BC15-B577A9E05BE3";
paths = (
{
closed = 1;
nodes = (
"416 -5 OFFCURVE",
"393 4 OFFCURVE",
"370 20 CURVE",
"347 37 OFFCURVE",
"322 65 OFFCURVE",
"322 92 CURVE",
"322 135 OFFCURVE",
"352 161 OFFCURVE",
"386 190 CURVE",
"390 193 OFFCURVE",
"394 197 OFFCURVE",
"398 200 CURVE",
"402 204 OFFCURVE",
"406 208 OFFCURVE",
"411 211 CURVE",
"446 242 OFFCURVE",
"490 279 OFFCURVE",
"479 309 CURVE",
"477 313 OFFCURVE",
"475 315 OFFCURVE",
"472 316 CURVE",
"457 322 OFFCURVE",
"421 302 OFFCURVE",
"397 288 CURVE",
"381 280 OFFCURVE",
"368 273 OFFCURVE",
"360 271 CURVE",
"351 269 OFFCURVE",
"341 267 OFFCURVE",
"333 271 CURVE",
"277 191 OFFCURVE",
"198 127 OFFCURVE",
"142 87 CURVE",
"118 70 OFFCURVE",
"96 56 OFFCURVE",
"78 45 CURVE",
"65 31 OFFCURVE",
"49 22 OFFCURVE",
"28 17 CURVE",
"25 17 OFFCURVE",
"21 19 OFFCURVE",
"20 22 CURVE",
"19 25 OFFCURVE",
"20 29 OFFCURVE",
"24 30 CURVE",
"24 31 OFFCURVE",
"42 40 OFFCURVE",
"69 56 CURVE",
"107 99 OFFCURVE",
"106 191 OFFCURVE",
"103 336 CURVE",
"99 479 OFFCURVE",
"141 574 OFFCURVE",
"178 612 CURVE",
"190 624 OFFCURVE",
"202 631 OFFCURVE",
"212 631 CURVE",
"229 631 OFFCURVE",
"247 612 OFFCURVE",
"268 574 CURVE",
"282 547 OFFCURVE",
"291 520 OFFCURVE",
"292 519 CURVE",
"293 515 OFFCURVE",
"291 511 OFFCURVE",
"288 510 CURVE",
"284 509 OFFCURVE",
"280 511 OFFCURVE",
"279 514 CURVE",
"263 557 OFFCURVE",
"232 617 OFFCURVE",
"212 617 CURVE",
"206 617 OFFCURVE",
"197 612 OFFCURVE",
"188 602 CURVE",
"169 583 OFFCURVE",
"151 549 OFFCURVE",
"138 509 CURVE",
"122 459 OFFCURVE",
"115 399 OFFCURVE",
"117 336 CURVE",
"119 241 OFFCURVE",
"120 169 OFFCURVE",
"110 117 CURVE",
"106 100 OFFCURVE",
"102 85 OFFCURVE",
"96 73 CURVE",
"108 81 OFFCURVE",
"121 89 OFFCURVE",
"134 98 CURVE",
"190 138 OFFCURVE",
"268 202 OFFCURVE",
"323 281 CURVE",
"316 290 OFFCURVE",
"312 307 OFFCURVE",
"308 335 CURVE",
"302 368 OFFCURVE",
"325 418 OFFCURVE",
"340 444 CURVE",
"360 484 OFFCURVE",
"388 523 OFFCURVE",
"410 545 CURVE",
"424 558 OFFCURVE",
"434 564 OFFCURVE",
"442 563 CURVE",
"448 562 OFFCURVE",
"453 558 OFFCURVE",
"456 552 CURVE",
"465 529 OFFCURVE",
"447 479 OFFCURVE",
"435 452 CURVE",
"420 416 OFFCURVE",
"392 359 OFFCURVE",
"341 283 CURVE",
"345 282 OFFCURVE",
"349 283 OFFCURVE",
"357 285 CURVE",
"363 286 OFFCURVE",
"376 293 OFFCURVE",
"390 301 CURVE",
"421 318 OFFCURVE",
"456 337 OFFCURVE",
"477 329 CURVE",
"484 327 OFFCURVE",
"489 321 OFFCURVE",
"492 314 CURVE",
"506 275 OFFCURVE",
"458 234 OFFCURVE",
"420 201 CURVE",
"415 197 OFFCURVE",
"411 193 OFFCURVE",
"407 190 CURVE",
"403 186 OFFCURVE",
"399 183 OFFCURVE",
"395 179 CURVE",
"362 151 OFFCURVE",
"336 129 OFFCURVE",
"336 92 CURVE",
"336 74 OFFCURVE",
"353 50 OFFCURVE",
"379 32 CURVE",
"404 13 OFFCURVE",
"431 5 OFFCURVE",
"449 11 CURVE",
"465 17 OFFCURVE",
"492 48 OFFCURVE",
"522 97 CURVE",
"548 140 OFFCURVE",
"565 179 OFFCURVE",
"566 185 CURVE",
"566 189 OFFCURVE",
"569 192 OFFCURVE",
"573 192 CURVE",
"577 192 OFFCURVE",
"580 189 OFFCURVE",
"580 185 CURVE",
"580 174 OFFCURVE",
"556 127 OFFCURVE",
"534 91 CURVE",
"512 53 OFFCURVE",
"479 7 OFFCURVE",
"453 -2 CURVE",
"448 -4 OFFCURVE",
"442 -5 OFFCURVE",
"436 -5 CURVE"
);
},
{
closed = 1;
nodes = (
"566 185 OFFCURVE",
"566 185 OFFCURVE",
"566 185 CURVE",
"566 185 OFFCURVE",
"566 185 OFFCURVE",
"566 185 CURVE"
);
},
{
closed = 1;
nodes = (
"439 549 OFFCURVE",
"433 548 OFFCURVE",
"420 535 CURVE",
"378 493 OFFCURVE",
"314 384 OFFCURVE",
"321 337 CURVE",
"325 317 OFFCURVE",
"328 302 OFFCURVE",
"331 294 CURVE",
"381 367 OFFCURVE",
"408 423 OFFCURVE",
"422 457 CURVE",
"444 508 OFFCURVE",
"447 536 OFFCURVE",
"443 546 CURVE",
"442 549 OFFCURVE",
"441 549 OFFCURVE",
"440 549 CURVE",
"440 549 OFFCURVE",
"440 549 OFFCURVE",
"440 549 CURVE"
);
}
);
width = 600;
}
);
unicode = 004E;
},
{
glyphname = O;
lastChange = "2020-05-19 14:46:03 +0000";
layers = (
{
layerId = "A4322E26-1E68-404E-BC15-B577A9E05BE3";
paths = (
{
closed = 1;
nodes = (
"590 232 OFFCURVE",
"589 232 OFFCURVE",
"588 233 CURVE",
"587 233 OFFCURVE",
"562 248 OFFCURVE",
"530 277 CURVE",
"500 303 OFFCURVE",
"457 348 OFFCURVE",
"424 408 CURVE",
"409 435 OFFCURVE",
"401 466 OFFCURVE",
"398 499 CURVE",
"397 525 OFFCURVE",
"399 553 OFFCURVE",
"406 582 CURVE",
"416 632 OFFCURVE",
"435 666 OFFCURVE",
"436 668 CURVE",
"438 671 OFFCURVE",
"442 672 OFFCURVE",
"445 670 CURVE",
"449 669 OFFCURVE",
"450 664 OFFCURVE",
"448 661 CURVE",
"448 661 OFFCURVE",
"430 626 OFFCURVE",
"419 579 CURVE",
"410 536 OFFCURVE",
"405 472 OFFCURVE",
"436 415 CURVE",
"469 356 OFFCURVE",
"510 313 OFFCURVE",
"539 287 CURVE",
"570 259 OFFCURVE",
"595 245 OFFCURVE",
"595 245 CURVE",
"598 243 OFFCURVE",
"599 238 OFFCURVE",
"597 235 CURVE",
"596 233 OFFCURVE",
"594 232 OFFCURVE",
"591 232 CURVE"
);
},
{
closed = 1;
nodes = (
"212 256 OFFCURVE",
"203 257 OFFCURVE",
"196 259 CURVE",
"148 268 OFFCURVE",
"120 301 OFFCURVE",
"113 329 CURVE",
"105 363 OFFCURVE",
"116 406 OFFCURVE",
"144 444 CURVE",
"160 465 OFFCURVE",
"180 484 OFFCURVE",
"202 497 CURVE",
"227 512 OFFCURVE",
"253 520 OFFCURVE",
"280 522 CURVE",
"337 525 OFFCURVE",
"366 496 OFFCURVE",
"380 471 CURVE",
"395 445 OFFCURVE",
"397 418 OFFCURVE",
"397 417 CURVE",
"397 413 OFFCURVE",
"394 410 OFFCURVE",
"390 410 CURVE",
"387 410 OFFCURVE",
"383 413 OFFCURVE",
"383 417 CURVE",
"383 417 OFFCURVE",
"381 442 OFFCURVE",
"368 465 CURVE",
"350 496 OFFCURVE",
"321 510 OFFCURVE",
"281 508 CURVE",
"234 505 OFFCURVE",
"187 478 OFFCURVE",
"156 436 CURVE",
"130 401 OFFCURVE",
"119 362 OFFCURVE",
"127 332 CURVE",
"133 308 OFFCURVE",
"157 280 OFFCURVE",
"198 272 CURVE",
"235 265 OFFCURVE",
"277 275 OFFCURVE",
"321 301 CURVE",
"377 334 OFFCURVE",
"435 392 OFFCURVE",
"494 473 CURVE",
"496 476 OFFCURVE",
"500 477 OFFCURVE",
"503 474 CURVE",
"507 472 OFFCURVE",
"507 468 OFFCURVE",
"505 465 CURVE",
"379 291 OFFCURVE",
"280 256 OFFCURVE",
"222 256 CURVE"
);
},
{
closed = 1;
nodes = (
"371 7 OFFCURVE",
"365 13 OFFCURVE",
"350 26 CURVE",
"335 40 OFFCURVE",
"310 62 OFFCURVE",
"248 100 CURVE",
"243 104 OFFCURVE",
"238 106 OFFCURVE",
"233 109 CURVE",
"170 42 OFFCURVE",
"117 7 OFFCURVE",
"74 7 CURVE",
"48 7 OFFCURVE",
"30 18 OFFCURVE",
"23 37 CURVE",
"14 64 OFFCURVE",
"28 99 OFFCURVE",
"58 122 CURVE",
"73 135 OFFCURVE",
"100 150 OFFCURVE",
"139 150 CURVE",
"139 150 OFFCURVE",
"140 150 OFFCURVE",
"140 150 CURVE",
"169 150 OFFCURVE",
"199 142 OFFCURVE",
"230 127 CURVE",
"234 131 OFFCURVE",
"238 135 OFFCURVE",
"242 140 CURVE",
"265 166 OFFCURVE",
"286 193 OFFCURVE",
"301 215 CURVE",
"279 200 OFFCURVE",
"254 191 OFFCURVE",
"235 191 CURVE",
"204 191 OFFCURVE",
"186 204 OFFCURVE",
"185 204 CURVE",
"182 206 OFFCURVE",
"181 211 OFFCURVE",
"183 214 CURVE",
"185 217 OFFCURVE",
"189 218 OFFCURVE",
"193 216 CURVE",
"193 216 OFFCURVE",
"209 205 OFFCURVE",
"235 205 CURVE",
"260 205 OFFCURVE",
"305 226 OFFCURVE",
"333 260 CURVE",
"335 263 OFFCURVE",
"339 264 OFFCURVE",
"342 262 CURVE",
"345 259 OFFCURVE",
"346 255 OFFCURVE",
"344 252 CURVE",
"344 251 OFFCURVE",
"305 191 OFFCURVE",
"252 131 CURVE",
"249 127 OFFCURVE",
"246 123 OFFCURVE",
"243 120 CURVE",
"247 117 OFFCURVE",
"251 115 OFFCURVE",
"256 112 CURVE",
"318 74 OFFCURVE",
"344 50 OFFCURVE",
"359 36 CURVE",
"373 24 OFFCURVE",
"376 21 OFFCURVE",
"390 21 CURVE",
"395 21 OFFCURVE",
"410 29 OFFCURVE",
"438 49 CURVE",
"463 67 OFFCURVE",
"492 91 OFFCURVE",
"520 117 CURVE",
"586 179 OFFCURVE",
"628 235 OFFCURVE",
"630 262 CURVE",
"631 266 OFFCURVE",
"634 269 OFFCURVE",
"638 269 CURVE",
"642 268 OFFCURVE",
"645 265 OFFCURVE",
"644 261 CURVE",
"641 216 OFFCURVE",
"563 138 OFFCURVE",
"529 107 CURVE",
"487 67 OFFCURVE",
"414 7 OFFCURVE",
"390 7 CURVE"
);
},
{
closed = 1;
nodes = (
"112 136 OFFCURVE",
"87 128 OFFCURVE",
"66 111 CURVE",
"42 92 OFFCURVE",
"29 63 OFFCURVE",
"37 42 CURVE",
"41 29 OFFCURVE",
"54 21 OFFCURVE",
"74 21 CURVE",
"112 21 OFFCURVE",
"162 54 OFFCURVE",
"220 116 CURVE",
"192 129 OFFCURVE",
"165 136 OFFCURVE",
"139 136 CURVE"
);
}
);
width = 664;
}
);
unicode = 004F;
},
{
glyphname = P;
lastChange = "2020-05-19 14:46:07 +0000";
layers = (
{
layerId = "A4322E26-1E68-404E-BC15-B577A9E05BE3";
paths = (
{
closed = 1;
nodes = (
"26 9 OFFCURVE",
"25 9 OFFCURVE",
"24 10 CURVE",
"21 11 OFFCURVE",
"19 16 OFFCURVE",
"21 19 CURVE",
"21 20 OFFCURVE",
"71 127 OFFCURVE",
"149 228 CURVE",
"181 269 OFFCURVE",
"214 304 OFFCURVE",
"246 333 CURVE",
"241 338 OFFCURVE",
"235 343 OFFCURVE",
"228 348 CURVE",
"188 378 OFFCURVE",
"147 389 OFFCURVE",
"147 389 CURVE",
"144 390 OFFCURVE",
"142 392 OFFCURVE",
"142 395 CURVE",
"141 396 OFFCURVE",
"135 430 OFFCURVE",
"135 473 CURVE",
"135 531 OFFCURVE",
"149 575 OFFCURVE",
"174 605 CURVE",
"200 635 OFFCURVE",
"238 649 OFFCURVE",
"286 646 CURVE",
"339 643 OFFCURVE",
"382 624 OFFCURVE",
"412 589 CURVE",
"445 552 OFFCURVE",
"458 504 OFFCURVE",
"463 471 CURVE",
"469 435 OFFCURVE",
"467 407 OFFCURVE",
"467 406 CURVE",
"467 404 OFFCURVE",
"466 403 OFFCURVE",
"464 401 CURVE",
"463 400 OFFCURVE",
"461 400 OFFCURVE",
"459 400 CURVE",
"390 409 OFFCURVE",
"324 377 OFFCURVE",
"267 332 CURVE",
"278 320 OFFCURVE",
"287 308 OFFCURVE",
"295 295 CURVE",
"304 279 OFFCURVE",
"311 261 OFFCURVE",
"315 243 CURVE",
"333 239 OFFCURVE",
"349 230 OFFCURVE",
"364 217 CURVE",
"421 166 OFFCURVE",
"430 114 OFFCURVE",
"427 80 CURVE",
"425 43 OFFCURVE",
"408 19 OFFCURVE",
"408 18 CURVE",
"406 14 OFFCURVE",
"401 13 OFFCURVE",
"398 16 CURVE",
"395 18 OFFCURVE",
"394 22 OFFCURVE",
"396 25 CURVE",
"396 26 OFFCURVE",
"411 48 OFFCURVE",
"413 82 CURVE",
"417 127 OFFCURVE",
"397 169 OFFCURVE",
"355 206 CURVE",
"343 217 OFFCURVE",
"330 224 OFFCURVE",
"318 228 CURVE",
"319 217 OFFCURVE",
"320 206 OFFCURVE",
"319 195 CURVE",
"314 40 OFFCURVE",
"249 11 OFFCURVE",
"246 10 CURVE",
"245 9 OFFCURVE",
"243 9 OFFCURVE",
"242 9 CURVE",
"237 10 OFFCURVE",
"128 37 OFFCURVE",
"105 82 CURVE",
"97 98 OFFCURVE",
"111 124 OFFCURVE",
"120 139 CURVE",
"135 161 OFFCURVE",
"157 185 OFFCURVE",
"181 203 CURVE",
"202 219 OFFCURVE",
"234 239 OFFCURVE",
"271 244 CURVE",
"281 246 OFFCURVE",
"291 246 OFFCURVE",
"300 245 CURVE",
"293 274 OFFCURVE",
"279 300 OFFCURVE",
"257 323 CURVE",
"220 291 OFFCURVE",
"187 254 OFFCURVE",
"160 219 CURVE",
"83 119 OFFCURVE",
"34 14 OFFCURVE",
"34 13 CURVE",
"32 11 OFFCURVE",
"30 9 OFFCURVE",
"27 9 CURVE"
);
},
{
closed = 1;
nodes = (
"248 232 OFFCURVE",
"209 207 OFFCURVE",
"190 192 CURVE",
"138 152 OFFCURVE",
"111 102 OFFCURVE",
"118 88 CURVE",
"134 57 OFFCURVE",
"211 31 OFFCURVE",
"243 24 CURVE",
"247 26 OFFCURVE",
"259 34 OFFCURVE",
"271 54 CURVE",
"285 76 OFFCURVE",
"303 119 OFFCURVE",
"305 196 CURVE",
"306 208 OFFCURVE",
"305 220 OFFCURVE",
"303 231 CURVE",
"299 232 OFFCURVE",
"294 232 OFFCURVE",
"290 232 CURVE"
);
},
{
closed = 1;
nodes = (
"167 398 OFFCURVE",
"202 385 OFFCURVE",
"237 359 CURVE",
"244 353 OFFCURVE",
"251 348 OFFCURVE",
"257 342 CURVE",
"268 350 OFFCURVE",
"278 358 OFFCURVE",
"288 365 CURVE",
"344 403 OFFCURVE",
"400 420 OFFCURVE",
"453 415 CURVE",
"454 440 OFFCURVE",
"451 524 OFFCURVE",
"402 580 CURVE",
"374 612 OFFCURVE",
"334 629 OFFCURVE",
"285 632 CURVE",
"241 634 OFFCURVE",
"208 622 OFFCURVE",
"185 596 CURVE",
"134 537 OFFCURVE",
"151 424 OFFCURVE",
"155 402 CURVE"
);
},
{
closed = 1;
nodes = (
"314 6 OFFCURVE",
"314 7 OFFCURVE",
"313 7 CURVE",
"309 8 OFFCURVE",
"307 12 OFFCURVE",
"308 15 CURVE",
"308 16 OFFCURVE",
"324 76 OFFCURVE",
"355 139 CURVE",
"374 177 OFFCURVE",
"393 208 OFFCURVE",
"414 232 CURVE",
"441 262 OFFCURVE",
"469 282 OFFCURVE",
"498 289 CURVE",
"500 290 OFFCURVE",
"503 289 OFFCURVE",
"504 288 CURVE",
"506 286 OFFCURVE",
"507 284 OFFCURVE",
"506 281 CURVE",
"506 281 OFFCURVE",
"494 226 OFFCURVE",
"487 166 CURVE",
"474 64 OFFCURVE",
"484 34 OFFCURVE",
"491 25 CURVE",
"494 22 OFFCURVE",
"496 20 OFFCURVE",
"500 20 CURVE",
"512 20 OFFCURVE",
"541 36 OFFCURVE",
"605 139 CURVE",
"642 198 OFFCURVE",
"672 259 OFFCURVE",
"673 259 CURVE",
"674 263 OFFCURVE",
"679 264 OFFCURVE",
"682 263 CURVE",
"686 261 OFFCURVE",
"687 257 OFFCURVE",
"685 253 CURVE",
"685 253 OFFCURVE",
"654 191 OFFCURVE",
"617 131 CURVE",
"565 47 OFFCURVE",
"527 6 OFFCURVE",
"500 6 CURVE",
"492 6 OFFCURVE",
"486 10 OFFCURVE",
"481 16 CURVE",
"465 35 OFFCURVE",
"463 85 OFFCURVE",
"473 168 CURVE",
"479 212 OFFCURVE",
"486 253 OFFCURVE",
"490 272 CURVE",
"381 231 OFFCURVE",
"322 14 OFFCURVE",
"322 12 CURVE",
"321 9 OFFCURVE",
"318 6 OFFCURVE",
"315 6 CURVE"
);
}
);
width = 706;
}
);
unicode = 0050;
},
{
glyphname = Q;
lastChange = "2020-05-19 14:46:12 +0000";
layers = (
{
layerId = "A4322E26-1E68-404E-BC15-B577A9E05BE3";
paths = (
{
closed = 1;
nodes = (
"149 -7 OFFCURVE",
"145 -7 OFFCURVE",
"143 -7 CURVE",
"120 -4 OFFCURVE",
"110 8 OFFCURVE",
"106 18 CURVE",
"99 36 OFFCURVE",
"103 62 OFFCURVE",
"118 96 CURVE",
"131 126 OFFCURVE",
"152 160 OFFCURVE",
"180 195 CURVE",
"238 271 OFFCURVE",
"311 335 OFFCURVE",
"372 364 CURVE",
"375 366 OFFCURVE",
"379 367 OFFCURVE",
"382 369 CURVE",
"355 379 OFFCURVE",
"323 389 OFFCURVE",
"286 399 CURVE",
"268 371 OFFCURVE",
"244 344 OFFCURVE",
"218 322 CURVE",
"176 288 OFFCURVE",
"132 269 OFFCURVE",
"93 269 CURVE",
"57 269 OFFCURVE",
"31 289 OFFCURVE",
"23 324 CURVE",
"18 344 OFFCURVE",
"19 369 OFFCURVE",
"26 394 CURVE",
"33 422 OFFCURVE",
"46 450 OFFCURVE",
"65 478 CURVE",
"95 523 OFFCURVE",
"154 589 OFFCURVE",
"263 645 CURVE",
"324 677 OFFCURVE",
"377 696 OFFCURVE",
"420 700 CURVE",
"457 704 OFFCURVE",
"487 697 OFFCURVE",
"509 681 CURVE",
"526 668 OFFCURVE",
"538 649 OFFCURVE",
"543 625 CURVE",
"550 600 OFFCURVE",
"546 580 OFFCURVE",
"545 574 CURVE",
"545 571 LINE",
"533 510 OFFCURVE",
"518 457 OFFCURVE",
"504 412 CURVE",
"520 415 OFFCURVE",
"533 416 OFFCURVE",
"545 416 CURVE",
"579 414 OFFCURVE",
"593 400 OFFCURVE",
"599 388 CURVE",
"605 377 OFFCURVE",
"592 361 OFFCURVE",
"572 338 CURVE",
"549 311 OFFCURVE",
"517 275 OFFCURVE",
"527 251 CURVE",
"535 231 OFFCURVE",
"541 184 OFFCURVE",
"541 138 CURVE",
"540 106 OFFCURVE",
"537 46 OFFCURVE",
"517 16 CURVE",
"508 3 OFFCURVE",
"497 -4 OFFCURVE",
"484 -4 CURVE",
"470 -4 OFFCURVE",
"459 4 OFFCURVE",
"452 17 CURVE",
"426 69 OFFCURVE",
"461 203 OFFCURVE",
"505 262 CURVE",
"512 271 OFFCURVE",
"514 280 OFFCURVE",
"511 289 CURVE",
"508 299 OFFCURVE",
"498 311 OFFCURVE",
"475 326 CURVE",
"471 316 OFFCURVE",
"467 306 OFFCURVE",
"463 297 CURVE",
"434 227 OFFCURVE",
"400 168 OFFCURVE",
"364 121 CURVE",
"319 63 OFFCURVE",
"268 25 OFFCURVE",
"214 6 CURVE",
"189 -3 OFFCURVE",
"168 -7 OFFCURVE",
"152 -7 CURVE"
);
},
{
closed = 1;
nodes = (
"394 359 OFFCURVE",
"386 355 OFFCURVE",
"378 351 CURVE",
"319 323 OFFCURVE",
"248 260 OFFCURVE",
"191 187 CURVE",
"136 116 OFFCURVE",
"108 52 OFFCURVE",
"119 23 CURVE",
"130 -2 OFFCURVE",
"174 7 OFFCURVE",
"209 19 CURVE",
"304 52 OFFCURVE",
"386 147 OFFCURVE",
"450 303 CURVE",
"454 312 OFFCURVE",
"458 322 OFFCURVE",
"463 334 CURVE",
"447 342 OFFCURVE",
"427 352 OFFCURVE",
"401 362 CURVE"
);
},
{
closed = 1;
nodes = (
"494 220 OFFCURVE",
"476 177 OFFCURVE",
"466 133 CURVE",
"455 85 OFFCURVE",
"454 44 OFFCURVE",
"464 24 CURVE",
"469 15 OFFCURVE",
"475 10 OFFCURVE",
"484 10 CURVE",
"492 10 OFFCURVE",
"499 15 OFFCURVE",
"505 24 CURVE",
"537 70 OFFCURVE",
"528 210 OFFCURVE",
"514 246 CURVE",
"513 247 OFFCURVE",
"513 247 OFFCURVE",
"513 248 CURVE"
);
},
{
closed = 1;
nodes = (
"402 687 OFFCURVE",
"347 673 OFFCURVE",
"269 633 CURVE",
"81 535 OFFCURVE",
"20 396 OFFCURVE",
"36 327 CURVE",
"43 299 OFFCURVE",
"63 283 OFFCURVE",
"93 283 CURVE",
"129 283 OFFCURVE",
"170 301 OFFCURVE",
"209 333 CURVE",
"233 353 OFFCURVE",
"255 378 OFFCURVE",
"272 403 CURVE",
"258 407 OFFCURVE",
"243 410 OFFCURVE",
"228 414 CURVE",
"224 415 OFFCURVE",
"222 419 OFFCURVE",
"223 423 CURVE",
"224 427 OFFCURVE",
"227 429 OFFCURVE",
"231 428 CURVE",
"248 424 OFFCURVE",
"265 419 OFFCURVE",
"280 415 CURVE",
"284 422 OFFCURVE",
"288 429 OFFCURVE",
"291 436 CURVE",
"306 468 OFFCURVE",
"308 494 OFFCURVE",
"297 507 CURVE",
"288 518 OFFCURVE",
"278 523 OFFCURVE",
"265 524 CURVE",
"229 524 OFFCURVE",
"190 480 OFFCURVE",
"189 480 CURVE",
"187 477 OFFCURVE",
"182 477 OFFCURVE",
"179 479 CURVE",
"177 482 OFFCURVE",
"176 486 OFFCURVE",
"179 489 CURVE",
"181 491 OFFCURVE",
"223 538 OFFCURVE",
"265 538 CURVE",
"282 537 OFFCURVE",
"296 530 OFFCURVE",
"308 516 CURVE",
"323 498 OFFCURVE",
"322 467 OFFCURVE",
"304 430 CURVE",
"301 424 OFFCURVE",
"298 418 OFFCURVE",
"294 411 CURVE",
"335 400 OFFCURVE",
"371 388 OFFCURVE",
"401 377 CURVE",
"434 391 OFFCURVE",
"463 402 OFFCURVE",
"489 408 CURVE",
"503 455 OFFCURVE",
"518 510 OFFCURVE",
"531 574 CURVE",
"531 577 LINE",
"535 594 OFFCURVE",
"536 643 OFFCURVE",
"500 670 CURVE",
"487 679 OFFCURVE",
"468 687 OFFCURVE",
"440 687 CURVE"
);
},
{
closed = 1;
nodes = (
"502 325 OFFCURVE",
"517 311 OFFCURVE",
"523 297 CURVE",
"533 314 OFFCURVE",
"548 332 OFFCURVE",
"561 347 CURVE",
"571 359 OFFCURVE",
"586 377 OFFCURVE",
"586 382 CURVE",
"581 393 OFFCURVE",
"562 410 OFFCURVE",
"500 397 CURVE",
"493 376 OFFCURVE",
"486 357 OFFCURVE",
"480 340 CURVE"
);
},
{
closed = 1;
nodes = (
"438 362 OFFCURVE",
"454 354 OFFCURVE",
"468 347 CURVE",
"473 361 OFFCURVE",
"478 376 OFFCURVE",
"484 392 CURVE",
"465 387 OFFCURVE",
"444 380 OFFCURVE",
"419 370 CURVE"
);
},
{
closed = 1;
nodes = (
"586 382 LINE"
);
}
);
width = 620;
}
);
unicode = 0051;
},
{
glyphname = R;
lastChange = "2020-05-19 14:46:16 +0000";
layers = (
{
layerId = "A4322E26-1E68-404E-BC15-B577A9E05BE3";
paths = (
{
closed = 1;
nodes = (
"61 -19 OFFCURVE",
"61 -19 OFFCURVE",
"61 -19 CURVE",
"54 -19 OFFCURVE",
"48 -16 OFFCURVE",
"43 -10 CURVE",
"21 20 OFFCURVE",
"69 78 OFFCURVE",
"105 108 CURVE",
"107 110 OFFCURVE",
"110 113 OFFCURVE",
"113 115 CURVE",
"130 130 OFFCURVE",
"154 150 OFFCURVE",
"184 168 CURVE",
"189 191 OFFCURVE",
"193 214 OFFCURVE",
"193 235 CURVE",
"193 249 OFFCURVE",
"191 262 OFFCURVE",
"189 273 CURVE",
"185 273 OFFCURVE",
"181 272 OFFCURVE",
"177 271 CURVE",
"163 268 OFFCURVE",
"133 265 OFFCURVE",
"107 266 CURVE",
"70 267 OFFCURVE",
"46 273 OFFCURVE",
"37 286 CURVE",
"32 292 OFFCURVE",
"31 300 OFFCURVE",
"35 308 CURVE",
"47 332 OFFCURVE",
"106 345 OFFCURVE",
"133 345 CURVE",
"159 345 OFFCURVE",
"186 328 OFFCURVE",
"198 290 CURVE",
"260 306 OFFCURVE",
"304 329 OFFCURVE",
"331 361 CURVE",
"355 388 OFFCURVE",
"360 416 OFFCURVE",
"361 435 CURVE",
"365 482 OFFCURVE",
"351 550 OFFCURVE",
"310 595 CURVE",
"279 628 OFFCURVE",
"238 645 OFFCURVE",
"187 645 CURVE",
"123 645 OFFCURVE",
"78 628 OFFCURVE",
"54 597 CURVE",
"23 556 OFFCURVE",
"37 503 OFFCURVE",
"37 503 CURVE",
"38 499 OFFCURVE",
"36 495 OFFCURVE",
"33 494 CURVE",
"29 493 OFFCURVE",
"25 495 OFFCURVE",
"24 499 CURVE",
"23 501 OFFCURVE",
"8 559 OFFCURVE",
"42 605 CURVE",
"69 641 OFFCURVE",
"118 659 OFFCURVE",
"187 659 CURVE",
"242 659 OFFCURVE",
"287 640 OFFCURVE",
"320 604 CURVE",
"364 556 OFFCURVE",
"380 484 OFFCURVE",
"375 434 CURVE",
"374 413 OFFCURVE",
"368 382 OFFCURVE",
"342 351 CURVE",
"313 318 OFFCURVE",
"266 293 OFFCURVE",
"202 277 CURVE",
"205 265 OFFCURVE",
"207 251 OFFCURVE",
"207 235 CURVE",
"207 217 OFFCURVE",
"204 197 OFFCURVE",
"200 178 CURVE",
"231 194 OFFCURVE",
"265 206 OFFCURVE",
"302 206 CURVE",
"345 206 OFFCURVE",
"369 197 OFFCURVE",
"377 177 CURVE",
"389 146 OFFCURVE",
"355 93 OFFCURVE",
"268 10 CURVE",
"316 18 OFFCURVE",
"430 40 OFFCURVE",
"484 90 CURVE",
"538 139 OFFCURVE",
"566 194 OFFCURVE",
"566 248 CURVE",
"566 279 OFFCURVE",
"546 325 OFFCURVE",
"501 325 CURVE",
"476 325 OFFCURVE",
"453 318 OFFCURVE",
"437 306 CURVE",
"420 294 OFFCURVE",
"412 278 OFFCURVE",
"412 260 CURVE",
"412 234 OFFCURVE",
"420 214 OFFCURVE",
"434 208 CURVE",
"448 203 OFFCURVE",
"465 210 OFFCURVE",
"484 228 CURVE",
"487 231 OFFCURVE",
"491 231 OFFCURVE",
"494 228 CURVE",
"497 226 OFFCURVE",
"497 221 OFFCURVE",
"494 218 CURVE",
"463 188 OFFCURVE",
"440 191 OFFCURVE",
"429 195 CURVE",
"409 203 OFFCURVE",
"398 227 OFFCURVE",
"398 260 CURVE",
"398 282 OFFCURVE",
"408 303 OFFCURVE",
"428 317 CURVE",
"447 331 OFFCURVE",
"473 339 OFFCURVE",
"501 339 CURVE",
"532 339 OFFCURVE",
"551 322 OFFCURVE",
"561 307 CURVE",
"573 291 OFFCURVE",
"580 268 OFFCURVE",
"580 248 CURVE",
"580 223 OFFCURVE",
"575 199 OFFCURVE",
"565 175 CURVE",
"551 142 OFFCURVE",
"527 110 OFFCURVE",
"494 80 CURVE",
"463 51 OFFCURVE",
"412 28 OFFCURVE",
"343 11 CURVE",
"292 -2 OFFCURVE",
"249 -7 OFFCURVE",
"249 -7 CURVE",
"246 -7 OFFCURVE",
"243 -5 OFFCURVE",
"241 -3 CURVE",
"240 0 OFFCURVE",
"241 3 OFFCURVE",
"243 5 CURVE",
"356 110 OFFCURVE",
"371 154 OFFCURVE",
"364 172 CURVE",
"359 186 OFFCURVE",
"338 192 OFFCURVE",
"302 192 CURVE",
"264 192 OFFCURVE",
"227 178 OFFCURVE",
"196 159 CURVE",
"184 114 OFFCURVE",
"164 74 OFFCURVE",
"145 50 CURVE",
"115 15 OFFCURVE",
"85 -19 OFFCURVE",
"61 -19 CURVE"
);
},
{
closed = 1;
nodes = (
"155 133 OFFCURVE",
"136 116 OFFCURVE",
"122 104 CURVE",
"119 102 OFFCURVE",
"116 100 OFFCURVE",
"114 97 CURVE",
"75 65 OFFCURVE",
"41 16 OFFCURVE",
"54 -2 CURVE",
"56 -4 OFFCURVE",
"58 -5 OFFCURVE",
"61 -5 CURVE",
"80 -6 OFFCURVE",
"118 40 OFFCURVE",
"134 59 CURVE",
"150 78 OFFCURVE",
"166 111 OFFCURVE",
"178 148 CURVE"
);
},
{
closed = 1;
nodes = (
"104 331 OFFCURVE",
"55 316 OFFCURVE",
"47 301 CURVE",
"46 299 OFFCURVE",
"46 297 OFFCURVE",
"48 294 CURVE",
"62 275 OFFCURVE",
"144 278 OFFCURVE",
"174 285 CURVE",
"178 285 OFFCURVE",
"181 286 OFFCURVE",
"185 287 CURVE",
"175 314 OFFCURVE",
"157 331 OFFCURVE",
"133 331 CURVE"
);
}
);
width = 600;
}
);
unicode = 0052;
},
{
glyphname = S;
lastChange = "2020-05-19 14:45:55 +0000";
layers = (
{
layerId = "A4322E26-1E68-404E-BC15-B577A9E05BE3";
paths = (
{
closed = 1;
nodes = (
"88 120 OFFCURVE",
"83 121 OFFCURVE",
"78 124 CURVE",
"55 135 OFFCURVE",
"47 170 OFFCURVE",
"46 172 CURVE",
"45 176 OFFCURVE",
"48 179 OFFCURVE",
"51 180 CURVE",
"55 181 OFFCURVE",
"59 179 OFFCURVE",
"60 175 CURVE",
"62 166 OFFCURVE",
"70 143 OFFCURVE",
"84 136 CURVE",
"91 133 OFFCURVE",
"99 134 OFFCURVE",
"107 138 CURVE",
"159 164 OFFCURVE",
"201 224 OFFCURVE",
"226 269 CURVE",
"244 300 OFFCURVE",
"257 330 OFFCURVE",
"264 347 CURVE",
"216 325 OFFCURVE",
"173 312 OFFCURVE",
"135 308 CURVE",
"98 304 OFFCURVE",
"67 308 OFFCURVE",
"46 321 CURVE",
"29 332 OFFCURVE",
"20 348 OFFCURVE",
"20 366 CURVE",
"20 393 OFFCURVE",
"27 419 OFFCURVE",
"43 450 CURVE",
"57 477 OFFCURVE",
"78 507 OFFCURVE",
"110 547 CURVE",
"145 591 OFFCURVE",
"185 618 OFFCURVE",
"212 633 CURVE",
"248 652 OFFCURVE",
"277 659 OFFCURVE",
"292 659 CURVE",
"308 659 OFFCURVE",
"334 653 OFFCURVE",
"358 636 CURVE",
"376 623 OFFCURVE",
"398 599 OFFCURVE",
"398 558 CURVE",
"398 515 OFFCURVE",
"362 481 OFFCURVE",
"341 465 CURVE",
"311 442 OFFCURVE",
"274 426 OFFCURVE",
"251 426 CURVE",
"206 426 OFFCURVE",
"191 447 OFFCURVE",
"190 448 CURVE",
"202 456 LINE",
"202 456 LINE",
"202 456 OFFCURVE",
"214 440 OFFCURVE",
"251 440 CURVE",
"268 440 OFFCURVE",
"302 453 OFFCURVE",
"332 476 CURVE",
"352 491 OFFCURVE",
"384 521 OFFCURVE",
"384 558 CURVE",
"384 619 OFFCURVE",
"323 645 OFFCURVE",
"292 645 CURVE",
"262 645 OFFCURVE",
"181 614 OFFCURVE",
"121 538 CURVE",
"69 473 OFFCURVE",
"34 419 OFFCURVE",
"34 366 CURVE",
"34 353 OFFCURVE",
"41 341 OFFCURVE",
"54 333 CURVE",
"66 325 OFFCURVE",
"90 317 OFFCURVE",
"133 322 CURVE",
"174 326 OFFCURVE",
"221 342 OFFCURVE",
"274 367 CURVE",
"276 368 OFFCURVE",
"279 368 OFFCURVE",
"281 366 CURVE",
"284 364 OFFCURVE",
"284 361 OFFCURVE",
"283 358 CURVE",
"283 356 OFFCURVE",
"267 313 OFFCURVE",
"239 262 CURVE",
"200 194 OFFCURVE",
"158 148 OFFCURVE",
"113 125 CURVE",
"106 122 OFFCURVE",
"100 120 OFFCURVE",
"93 120 CURVE"
);
},
{
closed = 1;
nodes = (
"194 -16 OFFCURVE",
"175 12 OFFCURVE",
"175 38 CURVE",
"175 52 OFFCURVE",
"180 65 OFFCURVE",
"189 75 CURVE",
"199 86 OFFCURVE",
"213 92 OFFCURVE",
"230 92 CURVE",
"258 92 OFFCURVE",
"278 77 OFFCURVE",
"301 59 CURVE",
"305 56 OFFCURVE",
"310 53 OFFCURVE",
"314 49 CURVE",
"325 61 OFFCURVE",
"335 74 OFFCURVE",
"346 89 CURVE",
"381 140 OFFCURVE",
"408 199 OFFCURVE",
"410 231 CURVE",
"414 282 OFFCURVE",
"347 308 OFFCURVE",
"324 315 CURVE",
"317 273 OFFCURVE",
"299 232 OFFCURVE",
"271 194 CURVE",
"247 162 OFFCURVE",
"215 131 OFFCURVE",
"178 103 CURVE",
"113 56 OFFCURVE",
"53 32 OFFCURVE",
"50 31 CURVE",
"47 30 OFFCURVE",
"43 32 OFFCURVE",
"41 36 CURVE",
"40 39 OFFCURVE",
"42 43 OFFCURVE",
"45 45 CURVE",
"46 45 OFFCURVE",
"107 68 OFFCURVE",
"169 115 CURVE",
"227 157 OFFCURVE",
"298 228 OFFCURVE",
"311 325 CURVE",
"312 327 OFFCURVE",
"313 329 OFFCURVE",
"314 330 CURVE",
"316 331 OFFCURVE",
"318 331 OFFCURVE",
"320 331 CURVE",
"321 331 OFFCURVE",
"347 324 OFFCURVE",
"373 309 CURVE",
"409 288 OFFCURVE",
"427 261 OFFCURVE",
"424 230 CURVE",
"422 195 OFFCURVE",
"394 134 OFFCURVE",
"357 81 CURVE",
"347 67 OFFCURVE",
"336 53 OFFCURVE",
"326 41 CURVE",
"352 24 OFFCURVE",
"385 9 OFFCURVE",
"438 9 CURVE",
"479 9 OFFCURVE",
"510 28 OFFCURVE",
"531 65 CURVE",
"547 93 OFFCURVE",
"551 122 OFFCURVE",
"551 122 CURVE",
"551 126 OFFCURVE",
"555 129 OFFCURVE",
"559 128 CURVE",
"563 128 OFFCURVE",
"565 124 OFFCURVE",
"565 120 CURVE",
"565 119 OFFCURVE",
"560 89 OFFCURVE",
"543 58 CURVE",
"520 17 OFFCURVE",
"483 -5 OFFCURVE",
"438 -5 CURVE",
"380 -5 OFFCURVE",
"344 12 OFFCURVE",
"316 31 CURVE",
"310 25 OFFCURVE",
"304 19 OFFCURVE",
"298 14 CURVE",
"275 -6 OFFCURVE",
"254 -16 OFFCURVE",
"235 -16 CURVE"
);
},
{
closed = 1;
nodes = (
"203 78 OFFCURVE",
"189 58 OFFCURVE",
"189 38 CURVE",
"189 18 OFFCURVE",
"203 -2 OFFCURVE",
"235 -2 CURVE",
"254 -2 OFFCURVE",
"279 13 OFFCURVE",
"305 39 CURVE",
"300 42 OFFCURVE",
"296 45 OFFCURVE",
"292 48 CURVE",
"271 65 OFFCURVE",
"253 78 OFFCURVE",
"230 78 CURVE"
);
}
);
width = 585;
}
);
unicode = 0053;
},
{
glyphname = T;
lastChange = "2020-05-19 14:45:52 +0000";
layers = (
{
layerId = "A4322E26-1E68-404E-BC15-B577A9E05BE3";
paths = (
{
closed = 1;
nodes = (
"269 -16 OFFCURVE",
"268 -16 OFFCURVE",
"268 -15 CURVE",
"265 -14 OFFCURVE",
"214 10 OFFCURVE",
"159 52 CURVE",
"128 76 OFFCURVE",
"102 102 OFFCURVE",
"82 128 CURVE",
"58 161 OFFCURVE",
"45 195 OFFCURVE",
"42 228 CURVE",
"42 232 OFFCURVE",
"45 236 OFFCURVE",
"48 236 CURVE",
"52 236 OFFCURVE",
"56 233 OFFCURVE",
"56 229 CURVE",
"61 159 OFFCURVE",
"120 100 OFFCURVE",
"168 63 CURVE",
"207 33 OFFCURVE",
"245 12 OFFCURVE",
"263 2 CURVE",
"265 64 OFFCURVE",
"315 161 OFFCURVE",
"412 294 CURVE",
"460 360 OFFCURVE",
"509 419 OFFCURVE",
"539 454 CURVE",
"496 435 OFFCURVE",
"473 449 OFFCURVE",
"472 450 CURVE",
"472 450 OFFCURVE",
"472 450 OFFCURVE",
"472 450 CURVE",
"428 481 OFFCURVE",
"446 520 OFFCURVE",
"462 555 CURVE",
"477 587 OFFCURVE",
"491 618 OFFCURVE",
"465 646 CURVE",
"426 688 OFFCURVE",
"346 664 OFFCURVE",
"285 636 CURVE",
"207 601 OFFCURVE",
"135 549 OFFCURVE",
"107 526 CURVE",
"82 505 OFFCURVE",
"70 481 OFFCURVE",
"69 455 CURVE",
"69 435 OFFCURVE",
"77 421 OFFCURVE",
"77 421 CURVE",
"79 418 OFFCURVE",
"77 414 OFFCURVE",
"74 412 CURVE",
"70 410 OFFCURVE",
"66 411 OFFCURVE",
"64 415 CURVE",
"64 415 OFFCURVE",
"55 431 OFFCURVE",
"55 454 CURVE",
"55 476 OFFCURVE",
"63 507 OFFCURVE",
"98 537 CURVE",
"126 560 OFFCURVE",
"200 613 OFFCURVE",
"279 649 CURVE",
"321 668 OFFCURVE",
"358 679 OFFCURVE",
"389 682 CURVE",
"427 685 OFFCURVE",
"456 676 OFFCURVE",
"476 655 CURVE",
"508 620 OFFCURVE",
"490 582 OFFCURVE",
"475 549 CURVE",
"457 510 OFFCURVE",
"447 485 OFFCURVE",
"480 462 CURVE",
"481 461 OFFCURVE",
"488 457 OFFCURVE",
"501 458 CURVE",
"515 459 OFFCURVE",
"538 465 OFFCURVE",
"569 488 CURVE",
"572 491 OFFCURVE",
"576 490 OFFCURVE",
"578 488 CURVE",
"581 485 OFFCURVE",
"581 481 OFFCURVE",
"578 478 CURVE",
"575 475 OFFCURVE",
"267 128 OFFCURVE",
"277 -8 CURVE",
"278 -11 OFFCURVE",
"277 -13 OFFCURVE",
"274 -15 CURVE",
"273 -15 OFFCURVE",
"272 -16 OFFCURVE",
"270 -16 CURVE"
);
},
{
closed = 1;
nodes = (
"460 -17 OFFCURVE",
"451 -16 OFFCURVE",
"443 -16 CURVE",
"440 -16 OFFCURVE",
"438 -14 OFFCURVE",
"437 -11 CURVE",
"436 -9 OFFCURVE",
"437 -6 OFFCURVE",
"439 -4 CURVE",
"440 -2 OFFCURVE",
"539 93 OFFCURVE",
"614 193 CURVE",
"606 203 OFFCURVE",
"597 212 OFFCURVE",
"586 220 CURVE",
"551 248 OFFCURVE",
"488 283 OFFCURVE",
"383 292 CURVE",
"252 303 OFFCURVE",
"153 264 OFFCURVE",
"90 176 CURVE",
"43 110 OFFCURVE",
"34 40 OFFCURVE",
"34 39 CURVE",
"34 35 OFFCURVE",
"30 32 OFFCURVE",
"27 33 CURVE",
"23 33 OFFCURVE",
"20 37 OFFCURVE",
"20 41 CURVE",
"21 44 OFFCURVE",
"29 115 OFFCURVE",
"78 184 CURVE",
"107 224 OFFCURVE",
"144 255 OFFCURVE",
"188 276 CURVE",
"243 302 OFFCURVE",
"309 312 OFFCURVE",
"385 306 CURVE",
"492 297 OFFCURVE",
"558 260 OFFCURVE",
"595 231 CURVE",
"605 223 OFFCURVE",
"615 214 OFFCURVE",
"623 204 CURVE",
"666 263 OFFCURVE",
"699 321 OFFCURVE",
"701 364 CURVE",
"704 427 OFFCURVE",
"692 477 OFFCURVE",
"682 508 CURVE",
"671 541 OFFCURVE",
"659 560 OFFCURVE",
"659 560 CURVE",
"657 563 OFFCURVE",
"658 568 OFFCURVE",
"661 570 CURVE",
"664 572 OFFCURVE",
"669 571 OFFCURVE",
"671 568 CURVE",
"671 567 OFFCURVE",
"684 548 OFFCURVE",
"695 513 CURVE",
"706 481 OFFCURVE",
"718 429 OFFCURVE",
"715 364 CURVE",
"713 323 OFFCURVE",
"686 265 OFFCURVE",
"632 193 CURVE",
"654 164 OFFCURVE",
"665 133 OFFCURVE",
"663 102 CURVE",
"661 66 OFFCURVE",
"640 35 OFFCURVE",
"605 14 CURVE",
"571 -6 OFFCURVE",
"524 -17 OFFCURVE",
"468 -17 CURVE"
);
},
{
closed = 1;
nodes = (
"517 -3 OFFCURVE",
"564 6 OFFCURVE",
"597 26 CURVE",
"629 45 OFFCURVE",
"647 71 OFFCURVE",
"649 103 CURVE",
"651 129 OFFCURVE",
"642 156 OFFCURVE",
"623 182 CURVE",
"610 164 OFFCURVE",
"595 146 OFFCURVE",
"579 126 CURVE",
"530 69 OFFCURVE",
"482 19 OFFCURVE",
"460 -2 CURVE"
);
}
);
width = 735;
}
);
unicode = 0054;
},
{
glyphname = U;
lastChange = "2020-05-19 14:46:24 +0000";
layers = (
{
layerId = "A4322E26-1E68-404E-BC15-B577A9E05BE3";
paths = (
{
closed = 1;
nodes = (
"311 -5 OFFCURVE",
"300 2 OFFCURVE",
"294 15 CURVE",
"285 33 OFFCURVE",
"282 61 OFFCURVE",
"288 91 CURVE",
"292 113 OFFCURVE",
"299 132 OFFCURVE",
"308 147 CURVE",
"295 178 OFFCURVE",
"281 208 OFFCURVE",
"272 228 CURVE",
"269 235 OFFCURVE",
"266 242 OFFCURVE",
"263 247 CURVE",
"255 266 OFFCURVE",
"247 278 OFFCURVE",
"235 297 CURVE",
"220 320 OFFCURVE",
"197 354 OFFCURVE",
"158 427 CURVE",
"155 433 OFFCURVE",
"152 438 OFFCURVE",
"150 443 CURVE",
"147 442 OFFCURVE",
"145 441 OFFCURVE",
"142 439 CURVE",
"85 413 OFFCURVE",
"50 380 OFFCURVE",
"38 342 CURVE",
"27 304 OFFCURVE",
"44 273 OFFCURVE",
"44 273 CURVE",
"46 270 OFFCURVE",
"45 266 OFFCURVE",
"42 264 CURVE",
"39 262 OFFCURVE",
"34 263 OFFCURVE",
"32 266 CURVE",
"31 267 OFFCURVE",
"11 302 OFFCURVE",
"25 346 CURVE",
"38 388 OFFCURVE",
"75 423 OFFCURVE",
"136 452 CURVE",
"139 453 OFFCURVE",
"142 455 OFFCURVE",
"144 456 CURVE",
"135 480 OFFCURVE",
"129 503 OFFCURVE",
"129 525 CURVE",
"128 549 OFFCURVE",
"134 571 OFFCURVE",
"145 590 CURVE",
"160 614 OFFCURVE",
"181 629 OFFCURVE",
"194 629 CURVE",
"208 629 OFFCURVE",
"233 605 OFFCURVE",
"240 572 CURVE",
"246 545 OFFCURVE",
"243 495 OFFCURVE",
"162 450 CURVE",
"165 445 OFFCURVE",
"167 439 OFFCURVE",
"170 434 CURVE",
"209 361 OFFCURVE",
"231 328 OFFCURVE",
"247 304 CURVE",
"259 285 OFFCURVE",
"267 273 OFFCURVE",
"276 252 CURVE",
"278 248 OFFCURVE",
"281 241 OFFCURVE",
"285 234 CURVE",
"296 209 OFFCURVE",
"307 184 OFFCURVE",
"317 161 CURVE",
"318 162 OFFCURVE",
"319 163 OFFCURVE",
"320 164 CURVE",
"330 174 OFFCURVE",
"344 184 OFFCURVE",
"359 196 CURVE",
"406 231 OFFCURVE",
"464 276 OFFCURVE",
"464 345 CURVE",
"464 367 OFFCURVE",
"457 381 OFFCURVE",
"443 390 CURVE",
"407 413 OFFCURVE",
"334 390 OFFCURVE",
"313 379 CURVE",
"311 378 OFFCURVE",
"309 378 OFFCURVE",
"307 379 CURVE",
"305 380 OFFCURVE",
"303 383 OFFCURVE",
"303 385 CURVE",
"303 387 OFFCURVE",
"300 441 OFFCURVE",
"328 470 CURVE",
"339 482 OFFCURVE",
"353 488 OFFCURVE",
"370 488 CURVE",
"407 488 OFFCURVE",
"417 498 OFFCURVE",
"422 505 CURVE",
"429 517 OFFCURVE",
"429 535 OFFCURVE",
"429 556 CURVE",
"429 575 OFFCURVE",
"417 585 OFFCURVE",
"403 596 CURVE",
"387 609 OFFCURVE",
"369 623 OFFCURVE",
"369 652 CURVE",
"369 656 OFFCURVE",
"372 659 OFFCURVE",
"376 659 CURVE",
"379 659 OFFCURVE",
"383 656 OFFCURVE",
"383 652 CURVE",
"383 630 OFFCURVE",
"396 619 OFFCURVE",
"411 607 CURVE",
"426 595 OFFCURVE",
"443 582 OFFCURVE",
"443 556 CURVE",
"443 533 OFFCURVE",
"443 513 OFFCURVE",
"434 498 CURVE",
"424 482 OFFCURVE",
"403 474 OFFCURVE",
"370 474 CURVE",
"357 474 OFFCURVE",
"347 470 OFFCURVE",
"338 461 CURVE",
"321 443 OFFCURVE",
"318 412 OFFCURVE",
"317 396 CURVE",
"345 407 OFFCURVE",
"411 426 OFFCURVE",
"450 402 CURVE",
"469 391 OFFCURVE",
"478 372 OFFCURVE",
"478 345 CURVE",
"478 269 OFFCURVE",
"414 220 OFFCURVE",
"367 185 CURVE",
"353 174 OFFCURVE",
"339 163 OFFCURVE",
"330 154 CURVE",
"328 152 OFFCURVE",
"325 149 OFFCURVE",
"323 146 CURVE",
"348 85 OFFCURVE",
"362 33 OFFCURVE",
"350 9 CURVE",
"346 2 OFFCURVE",
"340 -3 OFFCURVE",
"331 -4 CURVE",
"329 -4 OFFCURVE",
"327 -5 OFFCURVE",
"324 -5 CURVE"
);
},
{
closed = 1;
nodes = (
"309 118 OFFCURVE",
"304 104 OFFCURVE",
"302 89 CURVE",
"297 62 OFFCURVE",
"298 36 OFFCURVE",
"306 22 CURVE",
"311 12 OFFCURVE",
"319 8 OFFCURVE",
"329 10 CURVE",
"333 10 OFFCURVE",
"335 12 OFFCURVE",
"337 16 CURVE",
"342 25 OFFCURVE",
"344 50 OFFCURVE",
"321 112 CURVE",
"319 118 OFFCURVE",
"317 124 OFFCURVE",
"314 130 CURVE"
);
},
{
closed = 1;
nodes = (
"189 615 OFFCURVE",
"171 606 OFFCURVE",
"157 583 CURVE",
"146 564 OFFCURVE",
"132 524 OFFCURVE",
"157 463 CURVE",
"184 478 OFFCURVE",
"203 494 OFFCURVE",
"215 512 CURVE",
"226 530 OFFCURVE",
"230 548 OFFCURVE",
"227 567 CURVE",
"221 596 OFFCURVE",
"199 615 OFFCURVE",
"194 615 CURVE"
);
}
);
width = 498;
}
);
unicode = 0055;
},
{
glyphname = V;
lastChange = "2020-05-19 14:46:30 +0000";
layers = (
{
layerId = "A4322E26-1E68-404E-BC15-B577A9E05BE3";
paths = (
{
closed = 1;
nodes = (
"426 88 OFFCURVE",
"425 88 OFFCURVE",
"424 89 CURVE",
"422 90 OFFCURVE",
"373 120 OFFCURVE",
"373 199 CURVE",
"373 255 OFFCURVE",
"392 295 OFFCURVE",
"407 319 CURVE",
"417 333 OFFCURVE",
"427 343 OFFCURVE",
"433 349 CURVE",
"424 354 OFFCURVE",
"409 364 OFFCURVE",
"394 380 CURVE",
"371 405 OFFCURVE",
"344 451 OFFCURVE",
"344 532 CURVE",
"344 583 OFFCURVE",
"359 621 OFFCURVE",
"387 647 CURVE",
"428 685 OFFCURVE",
"483 682 OFFCURVE",
"485 682 CURVE",
"489 682 OFFCURVE",
"492 678 OFFCURVE",
"492 674 CURVE",
"491 671 OFFCURVE",
"488 668 OFFCURVE",
"484 668 CURVE",
"484 668 LINE",
"484 668 OFFCURVE",
"432 671 OFFCURVE",
"396 637 CURVE",
"371 614 OFFCURVE",
"358 578 OFFCURVE",
"358 532 CURVE",
"358 456 OFFCURVE",
"383 412 OFFCURVE",
"404 390 CURVE",
"426 365 OFFCURVE",
"448 358 OFFCURVE",
"449 358 CURVE",
"451 357 OFFCURVE",
"453 355 OFFCURVE",
"453 353 CURVE",
"454 350 OFFCURVE",
"453 347 OFFCURVE",
"451 346 CURVE",
"450 346 OFFCURVE",
"434 334 OFFCURVE",
"419 310 CURVE",
"404 288 OFFCURVE",
"387 251 OFFCURVE",
"387 199 CURVE",
"387 170 OFFCURVE",
"394 144 OFFCURVE",
"409 123 CURVE",
"420 108 OFFCURVE",
"431 101 OFFCURVE",
"431 101 CURVE",
"434 99 OFFCURVE",
"435 94 OFFCURVE",
"434 91 CURVE",
"432 89 OFFCURVE",
"430 88 OFFCURVE",
"428 88 CURVE"
);
},
{
closed = 1;
nodes = (
"335 -8 OFFCURVE",
"305 8 OFFCURVE",
"263 40 CURVE",
"228 67 OFFCURVE",
"194 98 OFFCURVE",
"184 109 CURVE",
"175 117 OFFCURVE",
"177 135 OFFCURVE",
"180 163 CURVE",
"185 214 OFFCURVE",
"192 291 OFFCURVE",
"136 347 CURVE",
"131 352 OFFCURVE",
"126 357 OFFCURVE",
"121 363 CURVE",
"58 238 OFFCURVE",
"34 11 OFFCURVE",
"34 8 CURVE",
"34 5 OFFCURVE",
"30 2 OFFCURVE",
"26 2 CURVE",
"22 3 OFFCURVE",
"20 6 OFFCURVE",
"20 10 CURVE",
"20 11 OFFCURVE",
"29 99 OFFCURVE",
"51 195 CURVE",
"68 272 OFFCURVE",
"89 332 OFFCURVE",
"112 375 CURVE",
"93 400 OFFCURVE",
"77 430 OFFCURVE",
"66 460 CURVE",
"51 505 OFFCURVE",
"48 547 OFFCURVE",
"57 578 CURVE",
"67 609 OFFCURVE",
"89 628 OFFCURVE",
"121 634 CURVE",
"143 638 OFFCURVE",
"163 633 OFFCURVE",
"180 620 CURVE",
"233 575 OFFCURVE",
"234 452 OFFCURVE",
"234 447 CURVE",
"234 444 OFFCURVE",
"233 442 OFFCURVE",
"231 441 CURVE",
"229 440 OFFCURVE",
"227 439 OFFCURVE",
"225 440 CURVE",
"206 444 OFFCURVE",
"189 441 OFFCURVE",
"172 429 CURVE",
"156 418 OFFCURVE",
"141 399 OFFCURVE",
"128 376 CURVE",
"134 369 OFFCURVE",
"140 363 OFFCURVE",
"146 356 CURVE",
"173 330 OFFCURVE",
"189 297 OFFCURVE",
"194 255 CURVE",
"199 221 OFFCURVE",
"196 188 OFFCURVE",
"194 161 CURVE",
"192 144 OFFCURVE",
"190 122 OFFCURVE",
"194 119 CURVE",
"204 108 OFFCURVE",
"237 78 OFFCURVE",
"271 52 CURVE",
"315 18 OFFCURVE",
"338 9 OFFCURVE",
"350 7 CURVE",
"338 36 OFFCURVE",
"305 127 OFFCURVE",
"305 199 CURVE",
"305 245 OFFCURVE",
"324 283 OFFCURVE",
"340 307 CURVE",
"357 332 OFFCURVE",
"374 347 OFFCURVE",
"374 347 CURVE",
"377 350 OFFCURVE",
"382 349 OFFCURVE",
"384 347 CURVE",
"387 344 OFFCURVE",
"386 339 OFFCURVE",
"383 337 CURVE",
"383 337 OFFCURVE",
"367 323 OFFCURVE",
"351 299 CURVE",
"337 277 OFFCURVE",
"319 242 OFFCURVE",
"319 199 CURVE",
"319 116 OFFCURVE",
"366 3 OFFCURVE",
"366 2 CURVE",
"367 0 OFFCURVE",
"367 -2 OFFCURVE",
"366 -4 CURVE",
"365 -5 OFFCURVE",
"364 -7 OFFCURVE",
"362 -7 CURVE",
"359 -8 OFFCURVE",
"357 -8 OFFCURVE",
"355 -8 CURVE"
);
},
{
closed = 1;
nodes = (
"132 622 OFFCURVE",
"128 621 OFFCURVE",
"123 620 CURVE",
"97 616 OFFCURVE",
"79 600 OFFCURVE",
"71 574 CURVE",
"55 525 OFFCURVE",
"77 447 OFFCURVE",
"119 388 CURVE",
"133 412 OFFCURVE",
"148 429 OFFCURVE",
"164 441 CURVE",
"182 453 OFFCURVE",
"200 458 OFFCURVE",
"220 455 CURVE",
"218 483 OFFCURVE",
"212 575 OFFCURVE",
"171 609 CURVE",
"160 617 OFFCURVE",
"149 622 OFFCURVE",
"136 622 CURVE"
);
}
);
width = 512;
}
);
unicode = 0056;
},
{
glyphname = W;
lastChange = "2020-05-19 14:46:34 +0000";
layers = (
{
layerId = "A4322E26-1E68-404E-BC15-B577A9E05BE3";
paths = (
{
closed = 1;
nodes = (
"307 -19 OFFCURVE",
"307 -19 OFFCURVE",
"307 -19 CURVE",
"303 -19 OFFCURVE",
"300 -15 OFFCURVE",
"300 -11 CURVE",
"303 22 OFFCURVE",
"293 72 OFFCURVE",
"272 134 CURVE",
"253 187 OFFCURVE",
"228 244 OFFCURVE",
"201 290 CURVE",
"192 306 OFFCURVE",
"183 305 OFFCURVE",
"176 301 CURVE",
"173 300 OFFCURVE",
"169 298 OFFCURVE",
"166 295 CURVE",
"165 290 OFFCURVE",
"165 285 OFFCURVE",
"165 281 CURVE",
"152 133 OFFCURVE",
"99 93 OFFCURVE",
"70 93 CURVE",
"66 93 OFFCURVE",
"61 96 OFFCURVE",
"60 103 CURVE",
"57 121 OFFCURVE",
"76 173 OFFCURVE",
"95 213 CURVE",
"107 239 OFFCURVE",
"128 279 OFFCURVE",
"152 301 CURVE",
"156 396 OFFCURVE",
"133 491 OFFCURVE",
"118 539 CURVE",
"112 492 OFFCURVE",
"97 455 OFFCURVE",
"73 429 CURVE",
"51 405 OFFCURVE",
"29 399 OFFCURVE",
"28 399 CURVE",
"25 398 OFFCURVE",
"21 401 OFFCURVE",
"20 404 CURVE",
"19 408 OFFCURVE",
"21 412 OFFCURVE",
"25 413 CURVE",
"25 413 OFFCURVE",
"44 418 OFFCURVE",
"64 439 CURVE",
"82 460 OFFCURVE",
"104 500 OFFCURVE",
"107 575 CURVE",
"107 578 OFFCURVE",
"110 581 OFFCURVE",
"113 581 CURVE",
"116 582 OFFCURVE",
"119 580 OFFCURVE",
"121 577 CURVE",
"121 576 OFFCURVE",
"135 538 OFFCURVE",
"147 483 CURVE",
"157 439 OFFCURVE",
"168 376 OFFCURVE",
"166 312 CURVE",
"169 313 OFFCURVE",
"171 315 OFFCURVE",
"173 315 CURVE",
"183 319 OFFCURVE",
"200 321 OFFCURVE",
"214 297 CURVE",
"240 251 OFFCURVE",
"266 193 OFFCURVE",
"285 138 CURVE",
"300 94 OFFCURVE",
"318 32 OFFCURVE",
"314 -13 CURVE",
"314 -16 OFFCURVE",
"311 -19 OFFCURVE",
"307 -19 CURVE"
);
},
{
closed = 1;
nodes = (
"136 261 OFFCURVE",
"120 234 OFFCURVE",
"105 202 CURVE",
"83 154 OFFCURVE",
"74 118 OFFCURVE",
"74 108 CURVE",
"84 109 OFFCURVE",
"99 119 OFFCURVE",
"113 141 CURVE",
"126 162 OFFCURVE",
"144 203 OFFCURVE",
"150 279 CURVE"
);
},
{
closed = 1;
nodes = (
"226 -6 OFFCURVE",
"226 -6 OFFCURVE",
"226 -6 CURVE",
"222 -6 OFFCURVE",
"219 -3 OFFCURVE",
"219 1 CURVE",
"222 35 OFFCURVE",
"236 72 OFFCURVE",
"262 112 CURVE",
"282 143 OFFCURVE",
"308 176 OFFCURVE",
"341 209 CURVE",
"397 266 OFFCURVE",
"452 305 OFFCURVE",
"453 306 CURVE",
"456 308 OFFCURVE",
"460 307 OFFCURVE",
"463 304 CURVE",
"465 301 OFFCURVE",
"464 296 OFFCURVE",
"461 294 CURVE",
"461 294 OFFCURVE",
"406 255 OFFCURVE",
"351 199 CURVE",
"301 148 OFFCURVE",
"239 72 OFFCURVE",
"233 0 CURVE",
"233 -4 OFFCURVE",
"230 -6 OFFCURVE",
"226 -6 CURVE"
);
},
{
closed = 1;
nodes = (
"297 143 OFFCURVE",
"295 144 OFFCURVE",
"294 145 CURVE",
"291 147 OFFCURVE",
"290 152 OFFCURVE",
"293 155 CURVE",
"378 257 OFFCURVE",
"415 324 OFFCURVE",
"405 362 CURVE",
"398 387 OFFCURVE",
"370 397 OFFCURVE",
"340 408 CURVE",
"305 420 OFFCURVE",
"264 435 OFFCURVE",
"269 481 CURVE",
"273 517 OFFCURVE",
"285 550 OFFCURVE",
"306 580 CURVE",
"323 604 OFFCURVE",
"345 626 OFFCURVE",
"371 645 CURVE",
"417 678 OFFCURVE",
"459 693 OFFCURVE",
"461 693 CURVE",
"465 694 OFFCURVE",
"469 692 OFFCURVE",
"470 689 CURVE",
"471 685 OFFCURVE",
"469 681 OFFCURVE",
"465 680 CURVE",
"465 680 LINE",
"465 680 OFFCURVE",
"423 666 OFFCURVE",
"379 634 CURVE",
"322 591 OFFCURVE",
"289 540 OFFCURVE",
"283 480 CURVE",
"279 444 OFFCURVE",
"310 433 OFFCURVE",
"345 421 CURVE",
"377 409 OFFCURVE",
"410 398 OFFCURVE",
"418 365 CURVE",
"424 345 OFFCURVE",
"419 318 OFFCURVE",
"402 285 CURVE",
"383 248 OFFCURVE",
"351 202 OFFCURVE",
"304 146 CURVE",
"302 144 OFFCURVE",
"300 143 OFFCURVE",
"298 143 CURVE"
);
}
);
width = 490;
}
);
unicode = 0057;
},
{
glyphname = X;
lastChange = "2020-05-19 14:46:39 +0000";
layers = (
{
layerId = "A4322E26-1E68-404E-BC15-B577A9E05BE3";
paths = (
{
closed = 1;
nodes = (
"457 297 OFFCURVE",
"391 346 OFFCURVE",
"328 394 CURVE",
"318 402 OFFCURVE",
"308 409 OFFCURVE",
"298 417 CURVE",
"249 355 OFFCURVE",
"191 297 OFFCURVE",
"131 297 CURVE",
"89 297 OFFCURVE",
"64 318 OFFCURVE",
"51 335 CURVE",
"35 355 OFFCURVE",
"28 379 OFFCURVE",
"28 393 CURVE",
"28 404 OFFCURVE",
"31 430 OFFCURVE",
"50 454 CURVE",
"73 481 OFFCURVE",
"110 495 OFFCURVE",
"160 495 CURVE",
"205 495 OFFCURVE",
"249 469 OFFCURVE",
"295 436 CURVE",
"302 445 OFFCURVE",
"309 454 OFFCURVE",
"315 463 CURVE",
"336 492 OFFCURVE",
"372 537 OFFCURVE",
"410 574 CURVE",
"452 617 OFFCURVE",
"484 638 OFFCURVE",
"505 638 CURVE",
"550 638 OFFCURVE",
"569 613 OFFCURVE",
"570 611 CURVE",
"572 608 OFFCURVE",
"572 604 OFFCURVE",
"569 602 CURVE",
"566 599 OFFCURVE",
"561 600 OFFCURVE",
"559 603 CURVE",
"558 604 OFFCURVE",
"542 624 OFFCURVE",
"505 624 CURVE",
"496 624 OFFCURVE",
"472 616 OFFCURVE",
"420 564 CURVE",
"383 527 OFFCURVE",
"347 483 OFFCURVE",
"326 455 CURVE",
"320 446 OFFCURVE",
"313 437 OFFCURVE",
"307 428 CURVE",
"317 421 OFFCURVE",
"327 413 OFFCURVE",
"337 405 CURVE",
"398 359 OFFCURVE",
"461 311 OFFCURVE",
"523 311 CURVE",
"572 311 OFFCURVE",
"606 331 OFFCURVE",
"626 369 CURVE",
"640 399 OFFCURVE",
"641 429 OFFCURVE",
"641 429 CURVE",
"641 433 OFFCURVE",
"644 436 OFFCURVE",
"648 436 CURVE",
"648 436 OFFCURVE",
"648 436 OFFCURVE",
"648 436 CURVE",
"652 436 OFFCURVE",
"655 433 OFFCURVE",
"655 429 CURVE",
"655 428 OFFCURVE",
"655 396 OFFCURVE",
"638 363 CURVE",
"623 333 OFFCURVE",
"591 297 OFFCURVE",
"523 297 CURVE"
);
},
{
closed = 1;
nodes = (
"114 481 OFFCURVE",
"81 469 OFFCURVE",
"61 445 CURVE",
"44 425 OFFCURVE",
"42 402 OFFCURVE",
"42 393 CURVE",
"42 372 OFFCURVE",
"64 311 OFFCURVE",
"131 311 CURVE",
"185 311 OFFCURVE",
"240 366 OFFCURVE",
"287 425 CURVE",
"243 457 OFFCURVE",
"200 481 OFFCURVE",
"160 481 CURVE"
);
},
{
closed = 1;
nodes = (
"408 -190 OFFCURVE",
"365 -170 OFFCURVE",
"327 -129 CURVE",
"295 -94 OFFCURVE",
"270 -49 OFFCURVE",
"246 -5 CURVE",
"235 15 OFFCURVE",
"225 35 OFFCURVE",
"214 52 CURVE",
"166 13 OFFCURVE",
"127 -6 OFFCURVE",
"95 -6 CURVE",
"72 -6 OFFCURVE",
"52 0 OFFCURVE",
"39 11 CURVE",
"26 21 OFFCURVE",
"20 35 OFFCURVE",
"20 51 CURVE",
"20 91 OFFCURVE",
"61 133 OFFCURVE",
"131 133 CURVE",
"157 133 OFFCURVE",
"180 120 OFFCURVE",
"203 92 CURVE",
"208 86 OFFCURVE",
"212 79 OFFCURVE",
"217 73 CURVE",
"236 88 OFFCURVE",
"255 107 OFFCURVE",
"276 128 CURVE",
"309 162 OFFCURVE",
"339 197 OFFCURVE",
"358 220 CURVE",
"351 217 OFFCURVE",
"342 212 OFFCURVE",
"334 208 CURVE",
"292 188 OFFCURVE",
"264 183 OFFCURVE",
"249 191 CURVE",
"243 194 OFFCURVE",
"237 201 OFFCURVE",
"237 215 CURVE",
"237 242 OFFCURVE",
"247 271 OFFCURVE",
"268 302 CURVE",
"285 326 OFFCURVE",
"308 351 OFFCURVE",
"337 375 CURVE",
"386 418 OFFCURVE",
"436 447 OFFCURVE",
"436 447 CURVE",
"440 449 OFFCURVE",
"444 448 OFFCURVE",
"446 444 CURVE",
"448 441 OFFCURVE",
"447 437 OFFCURVE",
"443 435 CURVE",
"441 434 OFFCURVE",
"251 322 OFFCURVE",
"251 215 CURVE",
"251 207 OFFCURVE",
"253 205 OFFCURVE",
"256 204 CURVE",
"260 201 OFFCURVE",
"277 197 OFFCURVE",
"328 221 CURVE",
"357 234 OFFCURVE",
"382 250 OFFCURVE",
"382 251 CURVE",
"385 252 OFFCURVE",
"389 252 OFFCURVE",
"391 249 CURVE",
"394 247 OFFCURVE",
"394 243 OFFCURVE",
"392 240 CURVE",
"391 240 OFFCURVE",
"345 178 OFFCURVE",
"286 118 CURVE",
"264 96 OFFCURVE",
"244 77 OFFCURVE",
"225 61 CURVE",
"236 43 OFFCURVE",
"247 22 OFFCURVE",
"259 2 CURVE",
"304 -82 OFFCURVE",
"355 -176 OFFCURVE",
"458 -176 CURVE",
"571 -176 OFFCURVE",
"664 2 OFFCURVE",
"665 4 CURVE",
"667 8 OFFCURVE",
"671 9 OFFCURVE",
"675 7 CURVE",
"678 5 OFFCURVE",
"679 1 OFFCURVE",
"678 -2 CURVE",
"677 -4 OFFCURVE",
"653 -50 OFFCURVE",
"614 -96 CURVE",
"592 -123 OFFCURVE",
"568 -145 OFFCURVE",
"545 -160 CURVE",
"515 -180 OFFCURVE",
"486 -190 OFFCURVE",
"458 -190 CURVE"
);
},
{
closed = 1;
nodes = (
"94 119 OFFCURVE",
"71 106 OFFCURVE",
"58 96 CURVE",
"42 84 OFFCURVE",
"34 67 OFFCURVE",
"34 51 CURVE",
"34 30 OFFCURVE",
"50 8 OFFCURVE",
"95 8 CURVE",
"123 8 OFFCURVE",
"161 27 OFFCURVE",
"206 64 CURVE",
"184 96 OFFCURVE",
"161 119 OFFCURVE",
"131 119 CURVE"
);
}
);
width = 698;
}
);
unicode = 0058;
},
{
glyphname = Y;
lastChange = "2020-05-19 14:46:44 +0000";
layers = (
{
layerId = "A4322E26-1E68-404E-BC15-B577A9E05BE3";
paths = (
{
closed = 1;
nodes = (
"255 309 OFFCURVE",
"250 310 OFFCURVE",
"246 311 CURVE",
"239 314 OFFCURVE",
"235 318 OFFCURVE",
"232 325 CURVE",
"226 340 OFFCURVE",
"229 364 OFFCURVE",
"242 402 CURVE",
"253 435 OFFCURVE",
"270 474 OFFCURVE",
"286 512 CURVE",
"317 584 OFFCURVE",
"352 666 OFFCURVE",
"340 692 CURVE",
"338 695 OFFCURVE",
"336 697 OFFCURVE",
"333 698 CURVE",
"314 705 OFFCURVE",
"286 693 OFFCURVE",
"252 665 CURVE",
"222 641 OFFCURVE",
"189 605 OFFCURVE",
"151 558 CURVE",
"87 479 OFFCURVE",
"34 394 OFFCURVE",
"33 393 CURVE",
"31 390 OFFCURVE",
"27 389 OFFCURVE",
"23 391 CURVE",
"20 393 OFFCURVE",
"19 397 OFFCURVE",
"21 401 CURVE",
"22 401 OFFCURVE",
"75 487 OFFCURVE",
"140 567 CURVE",
"178 614 OFFCURVE",
"213 651 OFFCURVE",
"243 675 CURVE",
"282 708 OFFCURVE",
"313 720 OFFCURVE",
"337 711 CURVE",
"344 709 OFFCURVE",
"350 704 OFFCURVE",
"353 697 CURVE",
"367 666 OFFCURVE",
"334 588 OFFCURVE",
"299 506 CURVE",
"268 436 OFFCURVE",
"234 356 OFFCURVE",
"245 330 CURVE",
"246 327 OFFCURVE",
"248 325 OFFCURVE",
"251 324 CURVE",
"261 320 OFFCURVE",
"285 324 OFFCURVE",
"313 342 CURVE",
"342 360 OFFCURVE",
"434 431 OFFCURVE",
"447 603 CURVE",
"447 606 OFFCURVE",
"449 608 OFFCURVE",
"452 609 CURVE",
"455 610 OFFCURVE",
"458 608 OFFCURVE",
"459 606 CURVE",
"460 606 OFFCURVE",
"479 578 OFFCURVE",
"510 578 CURVE",
"510 578 OFFCURVE",
"510 578 OFFCURVE",
"510 578 CURVE",
"540 578 OFFCURVE",
"573 604 OFFCURVE",
"606 653 CURVE",
"608 657 OFFCURVE",
"612 657 OFFCURVE",
"615 655 CURVE",
"619 653 OFFCURVE",
"620 649 OFFCURVE",
"617 646 CURVE",
"581 592 OFFCURVE",
"545 564 OFFCURVE",
"510 564 CURVE",
"487 564 OFFCURVE",
"470 576 OFFCURVE",
"459 585 CURVE",
"453 525 OFFCURVE",
"436 470 OFFCURVE",
"409 424 CURVE",
"379 374 OFFCURVE",
"345 345 OFFCURVE",
"321 330 CURVE",
"299 316 OFFCURVE",
"277 309 OFFCURVE",
"260 309 CURVE"
);
},
{
closed = 1;
nodes = (
"330 3 OFFCURVE",
"301 33 OFFCURVE",
"268 69 CURVE",
"244 93 OFFCURVE",
"220 119 OFFCURVE",
"195 134 CURVE",
"169 150 OFFCURVE",
"147 152 OFFCURVE",
"126 138 CURVE",
"122 136 OFFCURVE",
"118 137 OFFCURVE",
"116 140 CURVE",
"114 144 OFFCURVE",
"115 148 OFFCURVE",
"118 150 CURVE",
"144 166 OFFCURVE",
"172 165 OFFCURVE",
"203 146 CURVE",
"229 129 OFFCURVE",
"254 103 OFFCURVE",
"278 78 CURVE",
"308 47 OFFCURVE",
"336 17 OFFCURVE",
"359 17 CURVE",
"366 17 OFFCURVE",
"372 19 OFFCURVE",
"376 23 CURVE",
"389 37 OFFCURVE",
"387 73 OFFCURVE",
"385 111 CURVE",
"384 148 OFFCURVE",
"382 189 OFFCURVE",
"392 225 CURVE",
"409 289 OFFCURVE",
"443 332 OFFCURVE",
"461 351 CURVE",
"422 354 OFFCURVE",
"402 364 OFFCURVE",
"399 380 CURVE",
"397 392 OFFCURVE",
"405 406 OFFCURVE",
"424 422 CURVE",
"438 434 OFFCURVE",
"457 447 OFFCURVE",
"482 461 CURVE",
"525 486 OFFCURVE",
"569 506 OFFCURVE",
"569 506 CURVE",
"573 507 OFFCURVE",
"577 506 OFFCURVE",
"578 502 CURVE",
"580 499 OFFCURVE",
"578 495 OFFCURVE",
"575 493 CURVE",
"574 493 OFFCURVE",
"531 473 OFFCURVE",
"489 449 CURVE",
"414 406 OFFCURVE",
"412 387 OFFCURVE",
"413 382 CURVE",
"413 379 OFFCURVE",
"420 367 OFFCURVE",
"478 364 CURVE",
"480 364 OFFCURVE",
"483 362 OFFCURVE",
"484 360 CURVE",
"485 357 OFFCURVE",
"484 354 OFFCURVE",
"482 352 CURVE",
"481 352 OFFCURVE",
"428 305 OFFCURVE",
"405 221 CURVE",
"396 188 OFFCURVE",
"398 147 OFFCURVE",
"399 111 CURVE",
"401 68 OFFCURVE",
"403 31 OFFCURVE",
"386 13 CURVE",
"379 6 OFFCURVE",
"370 3 OFFCURVE",
"359 3 CURVE"
);
},
{
closed = 1;
nodes = (
"510 121 OFFCURVE",
"487 137 OFFCURVE",
"461 156 CURVE",
"431 176 OFFCURVE",
"397 200 OFFCURVE",
"319 208 CURVE",
"243 216 OFFCURVE",
"193 197 OFFCURVE",
"165 180 CURVE",
"134 161 OFFCURVE",
"120 140 OFFCURVE",
"120 140 CURVE",
"118 137 OFFCURVE",
"113 136 OFFCURVE",
"110 138 CURVE",
"107 140 OFFCURVE",
"106 145 OFFCURVE",
"108 148 CURVE",
"109 149 OFFCURVE",
"123 171 OFFCURVE",
"157 192 CURVE",
"187 210 OFFCURVE",
"241 230 OFFCURVE",
"320 222 CURVE",
"402 213 OFFCURVE",
"439 188 OFFCURVE",
"469 167 CURVE",
"494 149 OFFCURVE",
"514 135 OFFCURVE",
"556 135 CURVE",
"562 135 OFFCURVE",
"578 142 OFFCURVE",
"596 201 CURVE",
"607 236 OFFCURVE",
"612 271 OFFCURVE",
"613 272 CURVE",
"613 275 OFFCURVE",
"617 278 OFFCURVE",
"621 277 CURVE",
"624 277 OFFCURVE",
"627 273 OFFCURVE",
"626 269 CURVE",
"626 268 OFFCURVE",
"620 233 OFFCURVE",
"609 197 CURVE",
"594 146 OFFCURVE",
"576 121 OFFCURVE",
"556 121 CURVE"
);
}
);
width = 646;
}
);
unicode = 0059;
},
{
glyphname = Z;
lastChange = "2020-05-19 14:46:49 +0000";
layers = (
{
layerId = "A4322E26-1E68-404E-BC15-B577A9E05BE3";
paths = (
{
closed = 1;
nodes = (
"445 -169 OFFCURVE",
"445 -169 OFFCURVE",
"444 -169 CURVE",
"437 -169 OFFCURVE",
"433 -161 OFFCURVE",
"430 -154 CURVE",
"426 -146 OFFCURVE",
"422 -135 OFFCURVE",
"416 -119 CURVE",
"400 -77 OFFCURVE",
"372 -5 OFFCURVE",
"316 110 CURVE",
"294 155 OFFCURVE",
"272 189 OFFCURVE",
"249 212 CURVE",
"232 171 OFFCURVE",
"215 135 OFFCURVE",
"200 105 CURVE",
"161 30 OFFCURVE",
"128 -6 OFFCURVE",
"99 -6 CURVE",
"75 -6 OFFCURVE",
"60 11 OFFCURVE",
"55 43 CURVE",
"50 77 OFFCURVE",
"58 125 OFFCURVE",
"76 167 CURVE",
"88 195 OFFCURVE",
"115 245 OFFCURVE",
"159 258 CURVE",
"181 265 OFFCURVE",
"210 264 OFFCURVE",
"244 236 CURVE",
"257 269 OFFCURVE",
"271 305 OFFCURVE",
"286 347 CURVE",
"287 350 OFFCURVE",
"288 354 OFFCURVE",
"290 357 CURVE",
"282 367 OFFCURVE",
"273 378 OFFCURVE",
"264 388 CURVE",
"175 494 OFFCURVE",
"93 557 OFFCURVE",
"26 570 CURVE",
"24 570 OFFCURVE",
"22 571 OFFCURVE",
"21 573 CURVE",
"20 575 OFFCURVE",
"20 577 OFFCURVE",
"20 579 CURVE",
"20 579 OFFCURVE",
"33 611 OFFCURVE",
"50 643 CURVE",
"73 688 OFFCURVE",
"93 712 OFFCURVE",
"109 715 CURVE",
"116 717 OFFCURVE",
"122 714 OFFCURVE",
"128 709 CURVE",
"136 701 OFFCURVE",
"145 687 OFFCURVE",
"155 671 CURVE",
"184 627 OFFCURVE",
"223 567 OFFCURVE",
"291 567 CURVE",
"338 567 OFFCURVE",
"360 585 OFFCURVE",
"373 611 CURVE",
"385 652 OFFCURVE",
"393 680 OFFCURVE",
"395 688 CURVE",
"395 689 OFFCURVE",
"396 690 OFFCURVE",
"396 690 CURVE",
"397 694 OFFCURVE",
"401 696 OFFCURVE",
"404 695 CURVE",
"408 694 OFFCURVE",
"410 690 OFFCURVE",
"409 686 CURVE",
"409 686 OFFCURVE",
"409 686 OFFCURVE",
"409 684 CURVE",
"407 677 OFFCURVE",
"405 669 OFFCURVE",
"403 661 CURVE",
"399 642 OFFCURVE",
"394 623 OFFCURVE",
"386 606 CURVE",
"367 543 OFFCURVE",
"338 452 OFFCURVE",
"305 360 CURVE",
"357 293 OFFCURVE",
"392 237 OFFCURVE",
"393 236 CURVE",
"395 233 OFFCURVE",
"394 229 OFFCURVE",
"390 227 CURVE",
"387 225 OFFCURVE",
"383 226 OFFCURVE",
"381 229 CURVE",
"380 230 OFFCURVE",
"348 281 OFFCURVE",
"300 344 CURVE",
"300 343 OFFCURVE",
"299 343 OFFCURVE",
"299 342 CURVE",
"284 300 OFFCURVE",
"269 261 OFFCURVE",
"255 226 CURVE",
"278 204 OFFCURVE",
"303 169 OFFCURVE",
"329 116 CURVE",
"385 1 OFFCURVE",
"413 -71 OFFCURVE",
"429 -114 CURVE",
"436 -132 OFFCURVE",
"442 -148 OFFCURVE",
"446 -154 CURVE",
"448 -151 OFFCURVE",
"452 -144 OFFCURVE",
"455 -138 CURVE",
"468 -116 OFFCURVE",
"489 -79 OFFCURVE",
"534 -34 CURVE",
"632 65 OFFCURVE",
"655 201 OFFCURVE",
"619 275 CURVE",
"600 315 OFFCURVE",
"566 334 OFFCURVE",
"523 330 CURVE",
"491 326 OFFCURVE",
"468 307 OFFCURVE",
"456 272 CURVE",
"438 222 OFFCURVE",
"447 153 OFFCURVE",
"454 116 CURVE",
"464 63 OFFCURVE",
"480 21 OFFCURVE",
"487 14 CURVE",
"490 11 OFFCURVE",
"490 7 OFFCURVE",
"487 4 CURVE",
"485 1 OFFCURVE",
"480 1 OFFCURVE",
"478 4 CURVE",
"466 15 OFFCURVE",
"450 63 OFFCURVE",
"441 113 CURVE",
"433 151 OFFCURVE",
"424 224 OFFCURVE",
"443 277 CURVE",
"457 317 OFFCURVE",
"483 339 OFFCURVE",
"522 344 CURVE",
"547 346 OFFCURVE",
"569 342 OFFCURVE",
"588 330 CURVE",
"606 320 OFFCURVE",
"621 303 OFFCURVE",
"631 282 CURVE",
"651 241 OFFCURVE",
"654 184 OFFCURVE",
"640 127 CURVE",
"630 82 OFFCURVE",
"604 17 OFFCURVE",
"543 -44 CURVE",
"500 -87 OFFCURVE",
"480 -123 OFFCURVE",
"467 -145 CURVE",
"458 -161 OFFCURVE",
"453 -169 OFFCURVE",
"445 -169 CURVE"
);
},
{
closed = 1;
nodes = (
"175 248 OFFCURVE",
"169 247 OFFCURVE",
"163 245 CURVE",
"135 236 OFFCURVE",
"108 206 OFFCURVE",
"89 162 CURVE",
"72 122 OFFCURVE",
"64 76 OFFCURVE",
"69 45 CURVE",
"72 28 OFFCURVE",
"79 8 OFFCURVE",
"99 8 CURVE",
"119 8 OFFCURVE",
"162 39 OFFCURVE",
"238 223 CURVE",
"236 225 OFFCURVE",
"234 226 OFFCURVE",
"232 228 CURVE",
"215 241 OFFCURVE",
"198 248 OFFCURVE",
"182 248 CURVE"
);
},
{
closed = 1;
nodes = (
"74 572 OFFCURVE",
"115 550 OFFCURVE",
"158 515 CURVE",
"195 485 OFFCURVE",
"235 445 OFFCURVE",
"275 397 CURVE",
"282 389 OFFCURVE",
"289 381 OFFCURVE",
"295 373 CURVE",
"321 446 OFFCURVE",
"344 517 OFFCURVE",
"361 574 CURVE",
"346 561 OFFCURVE",
"323 553 OFFCURVE",
"291 553 CURVE",
"257 553 OFFCURVE",
"227 566 OFFCURVE",
"199 592 CURVE",
"176 614 OFFCURVE",
"158 641 OFFCURVE",
"144 664 CURVE",
"134 679 OFFCURVE",
"125 692 OFFCURVE",
"118 699 CURVE",
"115 702 OFFCURVE",
"114 702 OFFCURVE",
"112 701 CURVE",
"107 700 OFFCURVE",
"91 692 OFFCURVE",
"62 636 CURVE",
"51 614 OFFCURVE",
"41 593 OFFCURVE",
"37 581 CURVE"
);
}
);
width = 669;
}
);
unicode = 005A;
},
{
glyphname = a;
lastChange = "2020-05-19 14:48:07 +0000";
layers = (
{
background = {
paths = (
{
closed = 1;
nodes = (
"114 63 OFFCURVE",
"113 64 OFFCURVE",
"111 65 CURVE",
"110 66 OFFCURVE",
"87 86 OFFCURVE",
"64 117 CURVE",
"32 158 OFFCURVE",
"16 196 OFFCURVE",
"16 230 CURVE",
"16 267 OFFCURVE",
"36 303 OFFCURVE",
"73 331 CURVE",
"106 355 OFFCURVE",
"149 371 OFFCURVE",
"193 374 CURVE",
"220 376 OFFCURVE",
"243 372 OFFCURVE",
"263 365 CURVE",
"297 451 OFFCURVE",
"324 634 OFFCURVE",
"332 695 CURVE",
"285 653 OFFCURVE",
"229 638 OFFCURVE",
"189 634 CURVE",
"141 628 OFFCURVE",
"105 635 OFFCURVE",
"104 635 CURVE",
"100 636 OFFCURVE",
"97 640 OFFCURVE",
"98 643 CURVE",
"99 647 OFFCURVE",
"103 649 OFFCURVE",
"106 649 CURVE",
"106 649 LINE",
"107 649 OFFCURVE",
"142 642 OFFCURVE",
"188 648 CURVE",
"230 653 OFFCURVE",
"290 669 OFFCURVE",
"336 718 CURVE",
"339 721 OFFCURVE",
"342 721 OFFCURVE",
"345 720 CURVE",
"347 719 OFFCURVE",
"349 716 OFFCURVE",
"348 713 CURVE",
"347 702 OFFCURVE",
"317 465 OFFCURVE",
"276 359 CURVE",
"296 349 OFFCURVE",
"314 336 OFFCURVE",
"330 324 CURVE",
"335 320 OFFCURVE",
"340 316 OFFCURVE",
"346 312 CURVE",
"388 282 OFFCURVE",
"442 264 OFFCURVE",
"490 264 CURVE",
"520 264 OFFCURVE",
"553 271 OFFCURVE",
"584 284 CURVE",
"613 296 OFFCURVE",
"637 312 OFFCURVE",
"650 328 CURVE",
"652 331 OFFCURVE",
"657 331 OFFCURVE",
"659 328 CURVE",
"662 326 OFFCURVE",
"663 322 OFFCURVE",
"660 319 CURVE",
"646 301 OFFCURVE",
"620 284 OFFCURVE",
"590 271 CURVE",
"557 258 OFFCURVE",
"522 250 OFFCURVE",
"490 250 CURVE",
"439 250 OFFCURVE",
"382 269 OFFCURVE",
"337 301 CURVE",
"332 305 OFFCURVE",
"327 309 OFFCURVE",
"321 313 CURVE",
"305 325 OFFCURVE",
"289 337 OFFCURVE",
"270 346 CURVE",
"226 248 OFFCURVE",
"123 68 OFFCURVE",
"122 67 CURVE",
"121 65 OFFCURVE",
"119 64 OFFCURVE",
"117 63 CURVE",
"117 63 OFFCURVE",
"116 63 OFFCURVE",
"116 63 CURVE"
);
},
{
closed = 1;
nodes = (
"202 361 OFFCURVE",
"198 360 OFFCURVE",
"194 360 CURVE",
"115 354 OFFCURVE",
"30 302 OFFCURVE",
"30 230 CURVE",
"30 168 OFFCURVE",
"94 101 OFFCURVE",
"114 81 CURVE",
"135 117 OFFCURVE",
"219 265 OFFCURVE",
"257 352 CURVE",
"243 357 OFFCURVE",
"226 361 OFFCURVE",
"207 361 CURVE"
);
},
{
closed = 1;
nodes = (
"392 -96 OFFCURVE",
"352 -86 OFFCURVE",
"318 -68 CURVE",
"287 -51 OFFCURVE",
"267 -30 OFFCURVE",
"263 -8 CURVE",
"251 51 OFFCURVE",
"331 208 OFFCURVE",
"352 244 CURVE",
"356 251 OFFCURVE",
"363 263 OFFCURVE",
"373 278 CURVE",
"394 312 OFFCURVE",
"426 363 OFFCURVE",
"450 408 CURVE",
"463 433 OFFCURVE",
"472 453 OFFCURVE",
"477 469 CURVE",
"484 491 OFFCURVE",
"481 498 OFFCURVE",
"479 500 CURVE",
"475 505 OFFCURVE",
"462 504 OFFCURVE",
"444 499 CURVE",
"427 493 OFFCURVE",
"405 483 OFFCURVE",
"379 468 CURVE",
"334 443 OFFCURVE",
"292 414 OFFCURVE",
"292 414 CURVE",
"288 412 OFFCURVE",
"284 412 OFFCURVE",
"282 416 CURVE",
"280 419 OFFCURVE",
"280 423 OFFCURVE",
"284 425 CURVE",
"284 426 OFFCURVE",
"327 455 OFFCURVE",
"372 481 CURVE",
"399 496 OFFCURVE",
"422 506 OFFCURVE",
"440 512 CURVE",
"465 520 OFFCURVE",
"481 519 OFFCURVE",
"490 509 CURVE",
"502 494 OFFCURVE",
"494 461 OFFCURVE",
"463 402 CURVE",
"439 356 OFFCURVE",
"406 305 OFFCURVE",
"385 271 CURVE",
"375 256 OFFCURVE",
"368 244 OFFCURVE",
"364 237 CURVE",
"338 192 OFFCURVE",
"267 45 OFFCURVE",
"277 -6 CURVE",
"280 -23 OFFCURVE",
"297 -40 OFFCURVE",
"325 -55 CURVE",
"369 -79 OFFCURVE",
"426 -89 OFFCURVE",
"454 -77 CURVE",
"474 -70 OFFCURVE",
"504 -31 OFFCURVE",
"532 20 CURVE",
"560 71 OFFCURVE",
"578 121 OFFCURVE",
"577 147 CURVE",
"577 156 OFFCURVE",
"574 161 OFFCURVE",
"570 162 CURVE",
"525 177 OFFCURVE",
"457 115 OFFCURVE",
"456 114 CURVE",
"453 112 OFFCURVE",
"449 112 OFFCURVE",
"446 115 CURVE",
"444 118 OFFCURVE",
"444 122 OFFCURVE",
"447 125 CURVE",
"450 128 OFFCURVE",
"522 193 OFFCURVE",
"575 176 CURVE",
"582 173 OFFCURVE",
"590 167 OFFCURVE",
"591 148 CURVE",
"592 113 OFFCURVE",
"568 56 OFFCURVE",
"545 13 CURVE",
"533 -8 OFFCURVE",
"494 -77 OFFCURVE",
"460 -90 CURVE",
"450 -94 OFFCURVE",
"438 -96 OFFCURVE",
"424 -96 CURVE"
);
}
);
};
layerId = "A4322E26-1E68-404E-BC15-B577A9E05BE3";
paths = (
{
closed = 1;
nodes = (
"661 331 OFFCURVE",
"656 331 OFFCURVE",
"654 328 CURVE",
"641 312 OFFCURVE",
"617 296 OFFCURVE",
"588 284 CURVE SMOOTH",
"557 271 OFFCURVE",
"524 264 OFFCURVE",
"494 264 CURVE SMOOTH",
"463 264 OFFCURVE",
"429 272 OFFCURVE",
"398 285 CURVE",
"418 318 OFFCURVE",
"446 362 OFFCURVE",
"467 402 CURVE SMOOTH",
"498 461 OFFCURVE",
"506 494 OFFCURVE",
"494 509 CURVE",
"485 519 OFFCURVE",
"469 520 OFFCURVE",
"444 512 CURVE SMOOTH",
"426 506 OFFCURVE",
"403 496 OFFCURVE",
"376 481 CURVE SMOOTH",
"347 465 OFFCURVE",
"320 447 OFFCURVE",
"303 436 CURVE",
"332 551 OFFCURVE",
"351 704 OFFCURVE",
"352 713 CURVE",
"353 716 OFFCURVE",
"351 719 OFFCURVE",
"349 720 CURVE",
"346 721 OFFCURVE",
"343 721 OFFCURVE",
"340 718 CURVE SMOOTH",
"292 670 OFFCURVE",
"234 653 OFFCURVE",
"192 648 CURVE SMOOTH",
"146 643 OFFCURVE",
"111 649 OFFCURVE",
"110 649 CURVE SMOOTH",
"107 649 OFFCURVE",
"103 647 OFFCURVE",
"102 643 CURVE",
"101 640 OFFCURVE",
"104 636 OFFCURVE",
"108 635 CURVE",
"109 635 OFFCURVE",
"145 628 OFFCURVE",
"193 634 CURVE SMOOTH",
"233 639 OFFCURVE",
"289 653 OFFCURVE",
"336 695 CURVE",
"330 646 OFFCURVE",
"311 516 OFFCURVE",
"285 423 CURVE",
"285 420 LINE",
"279 399 OFFCURVE",
"273 381 OFFCURVE",
"267 365 CURVE",
"247 372 OFFCURVE",
"224 376 OFFCURVE",
"197 374 CURVE SMOOTH",
"153 371 OFFCURVE",
"110 355 OFFCURVE",
"77 331 CURVE SMOOTH",
"39 304 OFFCURVE",
"20 267 OFFCURVE",
"20 230 CURVE SMOOTH",
"20 196 OFFCURVE",
"36 158 OFFCURVE",
"68 117 CURVE SMOOTH",
"92 87 OFFCURVE",
"114 66 OFFCURVE",
"115 65 CURVE",
"117 64 OFFCURVE",
"118 63 OFFCURVE",
"120 63 CURVE SMOOTH",
"121 63 LINE",
"123 64 OFFCURVE",
"125 65 OFFCURVE",
"126 67 CURVE",
"127 68 OFFCURVE",
"230 248 OFFCURVE",
"274 346 CURVE",
"293 337 OFFCURVE",
"309 325 OFFCURVE",
"325 313 CURVE",
"331 309 OFFCURVE",
"336 305 OFFCURVE",
"341 301 CURVE",
"353 293 OFFCURVE",
"365 285 OFFCURVE",
"378 279 CURVE",
"377 279 OFFCURVE",
"377 278 OFFCURVE",
"377 278 CURVE",
"367 263 OFFCURVE",
"360 251 OFFCURVE",
"356 244 CURVE SMOOTH",
"335 208 OFFCURVE",
"256 51 OFFCURVE",
"267 -8 CURVE SMOOTH",
"271 -30 OFFCURVE",
"291 -51 OFFCURVE",
"322 -68 CURVE SMOOTH",
"356 -86 OFFCURVE",
"396 -96 OFFCURVE",
"428 -96 CURVE SMOOTH",
"442 -96 OFFCURVE",
"454 -94 OFFCURVE",
"464 -90 CURVE SMOOTH",
"498 -76 OFFCURVE",
"537 -8 OFFCURVE",
"549 13 CURVE SMOOTH",
"573 55 OFFCURVE",
"597 113 OFFCURVE",
"595 148 CURVE SMOOTH",
"594 167 OFFCURVE",
"586 173 OFFCURVE",
"579 176 CURVE",
"526 193 OFFCURVE",
"454 128 OFFCURVE",
"451 125 CURVE SMOOTH",
"448 122 OFFCURVE",
"448 118 OFFCURVE",
"450 115 CURVE",
"453 112 OFFCURVE",
"457 112 OFFCURVE",
"460 114 CURVE",
"461 115 OFFCURVE",
"529 177 OFFCURVE",
"574 162 CURVE",
"578 161 OFFCURVE",
"581 156 OFFCURVE",
"581 147 CURVE",
"582 121 OFFCURVE",
"564 71 OFFCURVE",
"536 20 CURVE SMOOTH",
"508 -31 OFFCURVE",
"478 -70 OFFCURVE",
"458 -77 CURVE",
"430 -89 OFFCURVE",
"373 -79 OFFCURVE",
"329 -55 CURVE SMOOTH",
"301 -40 OFFCURVE",
"284 -23 OFFCURVE",
"281 -6 CURVE SMOOTH",
"272 45 OFFCURVE",
"342 192 OFFCURVE",
"368 237 CURVE SMOOTH",
"372 244 OFFCURVE",
"379 256 OFFCURVE",
"389 271 CURVE",
"389 272 OFFCURVE",
"390 272 OFFCURVE",
"390 273 CURVE",
"424 258 OFFCURVE",
"460 250 OFFCURVE",
"494 250 CURVE SMOOTH",
"526 250 OFFCURVE",
"561 258 OFFCURVE",
"594 271 CURVE SMOOTH",
"624 283 OFFCURVE",
"650 301 OFFCURVE",
"664 319 CURVE",
"667 322 OFFCURVE",
"666 326 OFFCURVE",
"663 328 CURVE"
);
},
{
closed = 1;
nodes = (
"344 316 OFFCURVE",
"339 320 OFFCURVE",
"334 324 CURVE SMOOTH",
"318 336 OFFCURVE",
"300 349 OFFCURVE",
"280 359 CURVE",
"286 375 OFFCURVE",
"292 394 OFFCURVE",
"298 415 CURVE",
"307 421 OFFCURVE",
"344 446 OFFCURVE",
"383 468 CURVE SMOOTH",
"409 483 OFFCURVE",
"431 493 OFFCURVE",
"448 499 CURVE",
"466 504 OFFCURVE",
"479 505 OFFCURVE",
"483 500 CURVE",
"485 498 OFFCURVE",
"488 491 OFFCURVE",
"481 469 CURVE SMOOTH",
"476 453 OFFCURVE",
"467 433 OFFCURVE",
"454 408 CURVE SMOOTH",
"433 368 OFFCURVE",
"406 324 OFFCURVE",
"385 291 CURVE",
"373 297 OFFCURVE",
"361 304 OFFCURVE",
"350 312 CURVE"
);
},
{
closed = 1;
nodes = (
"98 101 OFFCURVE",
"34 168 OFFCURVE",
"34 230 CURVE SMOOTH",
"34 302 OFFCURVE",
"119 354 OFFCURVE",
"198 360 CURVE",
"202 360 OFFCURVE",
"206 361 OFFCURVE",
"211 361 CURVE SMOOTH",
"230 361 OFFCURVE",
"247 357 OFFCURVE",
"261 352 CURVE",
"223 265 OFFCURVE",
"139 117 OFFCURVE",
"118 81 CURVE"
);
}
);
width = 686;
}
);
unicode = 0061;
},
{
glyphname = b;
lastChange = "2020-05-19 14:48:14 +0000";
layers = (
{
layerId = "A4322E26-1E68-404E-BC15-B577A9E05BE3";
paths = (
{
closed = 1;
nodes = (
"245 -3 OFFCURVE",
"238 0 OFFCURVE",
"231 8 CURVE",
"216 26 OFFCURVE",
"211 70 OFFCURVE",
"216 141 CURVE",
"221 201 OFFCURVE",
"232 272 OFFCURVE",
"242 327 CURVE",
"252 383 OFFCURVE",
"289 451 OFFCURVE",
"353 529 CURVE",
"359 538 OFFCURVE",
"366 546 OFFCURVE",
"373 553 CURVE",
"348 541 OFFCURVE",
"318 531 OFFCURVE",
"283 531 CURVE",
"250 531 OFFCURVE",
"219 544 OFFCURVE",
"192 570 CURVE",
"170 591 OFFCURVE",
"154 617 OFFCURVE",
"143 636 CURVE",
"137 645 OFFCURVE",
"131 656 OFFCURVE",
"127 658 CURVE",
"125 657 OFFCURVE",
"113 653 OFFCURVE",
"74 625 CURVE",
"63 617 OFFCURVE",
"52 609 OFFCURVE",
"44 602 CURVE",
"61 597 OFFCURVE",
"87 581 OFFCURVE",
"127 538 CURVE",
"202 457 OFFCURVE",
"204 427 OFFCURVE",
"204 423 CURVE",
"190 423 LINE",
"190 423 OFFCURVE",
"190 423 OFFCURVE",
"190 423 CURVE",
"190 424 OFFCURVE",
"188 452 OFFCURVE",
"117 528 CURVE",
"51 600 OFFCURVE",
"28 590 OFFCURVE",
"28 590 CURVE",
"29 590 OFFCURVE",
"29 590 OFFCURVE",
"29 590 CURVE",
"25 596 LINE",
"20 601 LINE",
"20 602 OFFCURVE",
"42 619 OFFCURVE",
"66 636 CURVE",
"115 672 OFFCURVE",
"124 672 OFFCURVE",
"128 672 CURVE",
"137 672 OFFCURVE",
"143 662 OFFCURVE",
"155 643 CURVE",
"177 606 OFFCURVE",
"214 545 OFFCURVE",
"283 545 CURVE",
"338 545 OFFCURVE",
"381 571 OFFCURVE",
"409 594 CURVE",
"431 616 OFFCURVE",
"445 630 OFFCURVE",
"445 630 CURVE",
"448 632 OFFCURVE",
"452 632 OFFCURVE",
"455 630 CURVE",
"457 628 OFFCURVE",
"458 624 OFFCURVE",
"456 621 CURVE",
"455 620 OFFCURVE",
"442 602 OFFCURVE",
"418 583 CURVE",
"403 566 OFFCURVE",
"383 545 OFFCURVE",
"363 520 CURVE",
"302 445 OFFCURVE",
"265 377 OFFCURVE",
"256 325 CURVE",
"246 270 OFFCURVE",
"235 199 OFFCURVE",
"230 140 CURVE",
"224 57 OFFCURVE",
"233 27 OFFCURVE",
"242 17 CURVE",
"246 13 OFFCURVE",
"250 11 OFFCURVE",
"255 11 CURVE",
"279 11 OFFCURVE",
"305 26 OFFCURVE",
"331 57 CURVE",
"354 84 OFFCURVE",
"378 122 OFFCURVE",
"404 174 CURVE",
"405 177 OFFCURVE",
"407 181 OFFCURVE",
"409 184 CURVE",
"377 195 OFFCURVE",
"351 225 OFFCURVE",
"351 257 CURVE",
"351 273 OFFCURVE",
"359 303 OFFCURVE",
"371 332 CURVE",
"379 353 OFFCURVE",
"397 391 OFFCURVE",
"422 410 CURVE",
"436 420 OFFCURVE",
"450 423 OFFCURVE",
"464 419 CURVE",
"475 415 OFFCURVE",
"483 408 OFFCURVE",
"487 398 CURVE",
"504 359 OFFCURVE",
"469 275 OFFCURVE",
"430 195 CURVE",
"431 195 OFFCURVE",
"432 195 OFFCURVE",
"433 195 CURVE",
"449 195 OFFCURVE",
"499 230 OFFCURVE",
"553 278 CURVE",
"578 300 OFFCURVE",
"601 324 OFFCURVE",
"618 343 CURVE",
"643 372 OFFCURVE",
"644 382 OFFCURVE",
"644 383 CURVE",
"644 387 OFFCURVE",
"648 390 OFFCURVE",
"651 390 CURVE",
"655 390 OFFCURVE",
"658 387 OFFCURVE",
"658 383 CURVE",
"658 380 OFFCURVE",
"658 368 OFFCURVE",
"628 334 CURVE",
"611 314 OFFCURVE",
"588 290 OFFCURVE",
"562 267 CURVE",
"546 253 OFFCURVE",
"464 181 OFFCURVE",
"433 181 CURVE",
"430 181 OFFCURVE",
"426 181 OFFCURVE",
"423 181 CURVE",
"421 177 OFFCURVE",
"418 172 OFFCURVE",
"416 167 CURVE",
"390 115 OFFCURVE",
"365 76 OFFCURVE",
"342 48 CURVE",
"312 13 OFFCURVE",
"284 -3 OFFCURVE",
"255 -3 CURVE"
);
},
{
closed = 1;
nodes = (
"445 406 OFFCURVE",
"438 404 OFFCURVE",
"430 398 CURVE",
"414 386 OFFCURVE",
"398 361 OFFCURVE",
"384 327 CURVE",
"372 297 OFFCURVE",
"365 269 OFFCURVE",
"365 257 CURVE",
"365 230 OFFCURVE",
"388 205 OFFCURVE",
"415 197 CURVE",
"446 259 OFFCURVE",
"490 356 OFFCURVE",
"474 392 CURVE",
"471 399 OFFCURVE",
"467 403 OFFCURVE",
"460 405 CURVE",
"457 406 OFFCURVE",
"454 406 OFFCURVE",
"452 406 CURVE"
);
}
);
width = 678;
}
);
unicode = 0062;
},
{
glyphname = c;
lastChange = "2020-05-19 14:48:16 +0000";
layers = (
{
layerId = "A4322E26-1E68-404E-BC15-B577A9E05BE3";
paths = (
{
closed = 1;
nodes = (
"107 -152 OFFCURVE",
"84 -143 OFFCURVE",
"67 -127 CURVE",
"49 -108 OFFCURVE",
"30 -54 OFFCURVE",
"31 25 CURVE",
"32 89 OFFCURVE",
"45 189 OFFCURVE",
"107 303 CURVE",
"153 387 OFFCURVE",
"190 443 OFFCURVE",
"222 479 CURVE",
"257 517 OFFCURVE",
"290 535 OFFCURVE",
"324 535 CURVE",
"343 535 OFFCURVE",
"359 524 OFFCURVE",
"371 503 CURVE",
"382 485 OFFCURVE",
"388 463 OFFCURVE",
"391 448 CURVE",
"392 445 OFFCURVE",
"390 441 OFFCURVE",
"386 440 CURVE",
"382 439 OFFCURVE",
"378 441 OFFCURVE",
"378 445 CURVE",
"371 474 OFFCURVE",
"356 521 OFFCURVE",
"324 521 CURVE",
"294 521 OFFCURVE",
"265 505 OFFCURVE",
"233 470 CURVE",
"201 435 OFFCURVE",
"165 380 OFFCURVE",
"120 296 CURVE",
"59 185 OFFCURVE",
"46 87 OFFCURVE",
"45 25 CURVE",
"44 -46 OFFCURVE",
"61 -100 OFFCURVE",
"77 -117 CURVE",
"109 -149 OFFCURVE",
"170 -144 OFFCURVE",
"233 -104 CURVE",
"295 -65 OFFCURVE",
"347 21 OFFCURVE",
"348 22 CURVE",
"349 25 OFFCURVE",
"354 27 OFFCURVE",
"357 25 CURVE",
"360 23 OFFCURVE",
"362 18 OFFCURVE",
"360 15 CURVE",
"357 11 OFFCURVE",
"305 -75 OFFCURVE",
"240 -116 CURVE",
"207 -137 OFFCURVE",
"174 -149 OFFCURVE",
"144 -152 CURVE",
"140 -152 OFFCURVE",
"137 -152 OFFCURVE",
"134 -152 CURVE"
);
},
{
closed = 1;
nodes = (
"332 17 OFFCURVE",
"329 21 OFFCURVE",
"329 24 CURVE",
"329 109 OFFCURVE",
"334 193 OFFCURVE",
"345 273 CURVE",
"296 244 OFFCURVE",
"244 229 OFFCURVE",
"190 228 CURVE",
"175 228 OFFCURVE",
"168 235 OFFCURVE",
"165 240 CURVE",
"156 255 OFFCURVE",
"161 280 OFFCURVE",
"177 309 CURVE",
"196 343 OFFCURVE",
"231 377 OFFCURVE",
"265 377 CURVE",
"270 377 OFFCURVE",
"306 378 OFFCURVE",
"355 340 CURVE",
"365 401 OFFCURVE",
"379 459 OFFCURVE",
"395 510 CURVE",
"417 581 OFFCURVE",
"444 636 OFFCURVE",
"474 675 CURVE",
"507 718 OFFCURVE",
"543 740 OFFCURVE",
"582 740 CURVE",
"590 740 OFFCURVE",
"604 735 OFFCURVE",
"604 701 CURVE",
"605 643 OFFCURVE",
"568 527 OFFCURVE",
"500 425 CURVE",
"467 377 OFFCURVE",
"431 336 OFFCURVE",
"391 305 CURVE",
"398 298 OFFCURVE",
"405 289 OFFCURVE",
"412 280 CURVE",
"465 211 OFFCURVE",
"487 164 OFFCURVE",
"496 142 CURVE",
"504 157 OFFCURVE",
"520 183 OFFCURVE",
"541 209 CURVE",
"560 232 OFFCURVE",
"580 251 OFFCURVE",
"599 263 CURVE",
"623 279 OFFCURVE",
"648 286 OFFCURVE",
"671 283 CURVE",
"674 283 OFFCURVE",
"677 279 OFFCURVE",
"677 275 CURVE",
"676 272 OFFCURVE",
"673 269 OFFCURVE",
"669 269 CURVE",
"581 280 OFFCURVE",
"501 122 OFFCURVE",
"500 121 CURVE",
"499 118 OFFCURVE",
"496 117 OFFCURVE",
"493 117 CURVE",
"490 117 OFFCURVE",
"488 120 OFFCURVE",
"487 122 CURVE",
"487 123 OFFCURVE",
"475 175 OFFCURVE",
"401 272 CURVE",
"394 281 OFFCURVE",
"387 289 OFFCURVE",
"380 296 CURVE",
"377 294 OFFCURVE",
"373 291 OFFCURVE",
"370 289 CURVE",
"367 287 OFFCURVE",
"363 284 OFFCURVE",
"360 282 CURVE",
"349 200 OFFCURVE",
"343 112 OFFCURVE",
"343 24 CURVE",
"343 21 OFFCURVE",
"340 17 OFFCURVE",
"336 17 CURVE"
);
},
{
closed = 1;
nodes = (
"267 363 OFFCURVE",
"266 363 OFFCURVE",
"266 363 CURVE",
"266 363 OFFCURVE",
"266 363 OFFCURVE",
"266 363 CURVE",
"237 363 OFFCURVE",
"206 331 OFFCURVE",
"189 302 CURVE",
"176 279 OFFCURVE",
"171 257 OFFCURVE",
"177 248 CURVE",
"178 246 OFFCURVE",
"180 242 OFFCURVE",
"189 242 CURVE",
"250 243 OFFCURVE",
"302 262 OFFCURVE",
"347 290 CURVE",
"349 302 OFFCURVE",
"350 313 OFFCURVE",
"352 324 CURVE",
"334 339 OFFCURVE",
"318 348 OFFCURVE",
"306 354 CURVE",
"286 362 OFFCURVE",
"272 363 OFFCURVE",
"268 363 CURVE"
);
},
{
closed = 1;
nodes = (
"364 309 OFFCURVE",
"363 305 OFFCURVE",
"363 301 CURVE",
"366 303 OFFCURVE",
"368 305 OFFCURVE",
"371 307 CURVE",
"369 309 OFFCURVE",
"367 311 OFFCURVE",
"365 313 CURVE"
);
},
{
closed = 1;
nodes = (
"372 325 OFFCURVE",
"377 320 OFFCURVE",
"382 315 CURVE",
"426 350 OFFCURVE",
"462 393 OFFCURVE",
"488 433 CURVE",
"528 491 OFFCURVE",
"552 548 OFFCURVE",
"565 585 CURVE",
"581 631 OFFCURVE",
"590 673 OFFCURVE",
"590 701 CURVE",
"590 716 OFFCURVE",
"587 726 OFFCURVE",
"582 726 CURVE",
"548 726 OFFCURVE",
"515 706 OFFCURVE",
"485 667 CURVE",
"456 629 OFFCURVE",
"430 575 OFFCURVE",
"408 506 CURVE",
"392 453 OFFCURVE",
"378 393 OFFCURVE",
"367 329 CURVE"
);
}
);
width = 700;
}
);
unicode = 0063;
},
{
glyphname = d;
lastChange = "2020-05-19 14:48:17 +0000";
layers = (
{
layerId = "A4322E26-1E68-404E-BC15-B577A9E05BE3";
paths = (
{
closed = 1;
nodes = (
"188 -26 OFFCURVE",
"170 -20 OFFCURVE",
"155 7 CURVE",
"140 35 OFFCURVE",
"131 81 OFFCURVE",
"132 130 CURVE",
"133 180 OFFCURVE",
"143 224 OFFCURVE",
"161 252 CURVE",
"173 271 OFFCURVE",
"200 297 OFFCURVE",
"238 325 CURVE",
"277 355 OFFCURVE",
"324 384 OFFCURVE",
"370 408 CURVE",
"375 410 OFFCURVE",
"381 413 OFFCURVE",
"387 416 CURVE",
"400 456 OFFCURVE",
"417 506 OFFCURVE",
"436 554 CURVE",
"448 585 OFFCURVE",
"459 612 OFFCURVE",
"470 635 CURVE",
"462 631 OFFCURVE",
"453 627 OFFCURVE",
"444 624 CURVE",
"378 594 OFFCURVE",
"306 571 OFFCURVE",
"274 568 CURVE",
"272 568 OFFCURVE",
"270 568 OFFCURVE",
"268 568 CURVE",
"223 568 OFFCURVE",
"191 617 OFFCURVE",
"165 656 CURVE",
"148 682 OFFCURVE",
"132 706 OFFCURVE",
"119 708 CURVE",
"102 711 OFFCURVE",
"83 704 OFFCURVE",
"67 691 CURVE",
"46 673 OFFCURVE",
"34 645 OFFCURVE",
"34 615 CURVE",
"34 606 OFFCURVE",
"37 599 OFFCURVE",
"44 592 CURVE",
"80 558 OFFCURVE",
"192 562 OFFCURVE",
"193 562 CURVE",
"197 562 OFFCURVE",
"200 559 OFFCURVE",
"200 555 CURVE",
"200 551 OFFCURVE",
"197 548 OFFCURVE",
"194 548 CURVE",
"189 548 OFFCURVE",
"74 544 OFFCURVE",
"34 582 CURVE",
"24 591 OFFCURVE",
"20 602 OFFCURVE",
"20 615 CURVE",
"20 649 OFFCURVE",
"34 681 OFFCURVE",
"58 701 CURVE",
"77 718 OFFCURVE",
"101 725 OFFCURVE",
"121 722 CURVE",
"140 719 OFFCURVE",
"157 693 OFFCURVE",
"176 664 CURVE",
"203 624 OFFCURVE",
"233 578 OFFCURVE",
"273 582 CURVE",
"304 585 OFFCURVE",
"373 608 OFFCURVE",
"439 636 CURVE",
"454 643 OFFCURVE",
"467 650 OFFCURVE",
"480 656 CURVE",
"503 702 OFFCURVE",
"523 728 OFFCURVE",
"541 735 CURVE",
"549 738 OFFCURVE",
"557 738 OFFCURVE",
"563 734 CURVE",
"576 727 OFFCURVE",
"576 717 OFFCURVE",
"575 712 CURVE",
"572 700 OFFCURVE",
"558 685 OFFCURVE",
"531 668 CURVE",
"520 661 OFFCURVE",
"506 653 OFFCURVE",
"490 645 CURVE",
"478 621 OFFCURVE",
"465 590 OFFCURVE",
"449 549 CURVE",
"432 506 OFFCURVE",
"417 462 OFFCURVE",
"405 424 CURVE",
"477 457 OFFCURVE",
"584 492 OFFCURVE",
"663 461 CURVE",
"666 460 OFFCURVE",
"668 456 OFFCURVE",
"667 452 CURVE",
"665 449 OFFCURVE",
"661 447 OFFCURVE",
"657 448 CURVE",
"579 479 OFFCURVE",
"469 439 OFFCURVE",
"399 406 CURVE",
"390 380 OFFCURVE",
"384 359 OFFCURVE",
"380 346 CURVE",
"379 343 OFFCURVE",
"378 340 OFFCURVE",
"377 337 CURVE",
"365 295 OFFCURVE",
"338 207 OFFCURVE",
"307 127 CURVE",
"289 82 OFFCURVE",
"272 47 OFFCURVE",
"256 22 CURVE",
"236 -10 OFFCURVE",
"217 -26 OFFCURVE",
"200 -26 CURVE"
);
},
{
closed = 1;
nodes = (
"380 397 OFFCURVE",
"378 396 OFFCURVE",
"376 395 CURVE",
"277 344 OFFCURVE",
"194 279 OFFCURVE",
"172 244 CURVE",
"139 192 OFFCURVE",
"137 69 OFFCURVE",
"168 13 CURVE",
"177 -3 OFFCURVE",
"188 -12 OFFCURVE",
"200 -12 CURVE",
"213 -12 OFFCURVE",
"244 7 OFFCURVE",
"294 132 CURVE",
"325 211 OFFCURVE",
"351 299 OFFCURVE",
"364 341 CURVE",
"365 344 OFFCURVE",
"366 347 OFFCURVE",
"367 350 CURVE",
"370 361 OFFCURVE",
"375 378 OFFCURVE",
"381 398 CURVE"
);
},
{
closed = 1;
nodes = (
"550 723 OFFCURVE",
"548 723 OFFCURVE",
"546 722 CURVE",
"538 719 OFFCURVE",
"524 707 OFFCURVE",
"502 667 CURVE",
"542 690 OFFCURVE",
"560 706 OFFCURVE",
"561 715 CURVE",
"562 716 OFFCURVE",
"562 719 OFFCURVE",
"557 722 CURVE",
"555 723 OFFCURVE",
"553 723 OFFCURVE",
"551 723 CURVE"
);
},
{
closed = 1;
nodes = (
"543 -6 OFFCURVE",
"509 14 OFFCURVE",
"479 40 CURVE",
"451 23 OFFCURVE",
"420 14 OFFCURVE",
"387 14 CURVE",
"356 14 OFFCURVE",
"331 19 OFFCURVE",
"313 28 CURVE",
"296 36 OFFCURVE",
"285 48 OFFCURVE",
"281 63 CURVE",
"271 96 OFFCURVE",
"296 135 OFFCURVE",
"325 153 CURVE",
"349 169 OFFCURVE",
"374 169 OFFCURVE",
"391 153 CURVE",
"408 138 OFFCURVE",
"424 120 OFFCURVE",
"439 103 CURVE",
"453 87 OFFCURVE",
"467 72 OFFCURVE",
"481 58 CURVE",
"547 104 OFFCURVE",
"580 193 OFFCURVE",
"589 253 CURVE",
"597 302 OFFCURVE",
"590 326 OFFCURVE",
"584 328 CURVE",
"567 334 OFFCURVE",
"555 323 OFFCURVE",
"532 302 CURVE",
"513 285 OFFCURVE",
"490 264 OFFCURVE",
"456 248 CURVE",
"382 215 OFFCURVE",
"277 221 OFFCURVE",
"273 221 CURVE",
"269 221 OFFCURVE",
"266 225 OFFCURVE",
"266 229 CURVE",
"267 232 OFFCURVE",
"270 235 OFFCURVE",
"274 235 CURVE",
"275 235 OFFCURVE",
"380 229 OFFCURVE",
"450 261 CURVE",
"483 276 OFFCURVE",
"505 296 OFFCURVE",
"522 312 CURVE",
"545 333 OFFCURVE",
"563 350 OFFCURVE",
"589 341 CURVE",
"609 335 OFFCURVE",
"610 290 OFFCURVE",
"603 251 CURVE",
"594 195 OFFCURVE",
"571 139 OFFCURVE",
"540 98 CURVE",
"526 78 OFFCURVE",
"509 61 OFFCURVE",
"491 48 CURVE",
"518 25 OFFCURVE",
"548 8 OFFCURVE",
"587 8 CURVE",
"622 8 OFFCURVE",
"674 29 OFFCURVE",
"703 69 CURVE",
"729 103 OFFCURVE",
"734 145 OFFCURVE",
"720 193 CURVE",
"719 196 OFFCURVE",
"721 200 OFFCURVE",
"725 201 CURVE",
"728 203 OFFCURVE",
"732 200 OFFCURVE",
"733 197 CURVE",
"749 145 OFFCURVE",
"742 98 OFFCURVE",
"715 61 CURVE",
"682 17 OFFCURVE",
"626 -6 OFFCURVE",
"587 -6 CURVE"
);
},
{
closed = 1;
nodes = (
"349 151 OFFCURVE",
"338 145 OFFCURVE",
"332 142 CURVE",
"308 126 OFFCURVE",
"287 94 OFFCURVE",
"294 67 CURVE",
"302 42 OFFCURVE",
"334 28 OFFCURVE",
"387 28 CURVE",
"418 28 OFFCURVE",
"445 36 OFFCURVE",
"469 50 CURVE",
"455 64 OFFCURVE",
"442 79 OFFCURVE",
"429 93 CURVE",
"413 111 OFFCURVE",
"398 129 OFFCURVE",
"382 143 CURVE",
"375 149 OFFCURVE",
"368 151 OFFCURVE",
"361 151 CURVE"
);
}
);
width = 761;
}
);
unicode = 0064;
},
{
glyphname = e;
lastChange = "2020-05-19 14:48:19 +0000";
layers = (
{
layerId = "A4322E26-1E68-404E-BC15-B577A9E05BE3";
paths = (
{
closed = 1;
nodes = (
"226 -18 OFFCURVE",
"224 -17 OFFCURVE",
"223 -15 CURVE",
"223 -14 OFFCURVE",
"210 6 OFFCURVE",
"185 23 CURVE",
"151 46 OFFCURVE",
"112 51 OFFCURVE",
"69 40 CURVE",
"66 39 OFFCURVE",
"63 41 OFFCURVE",
"61 43 CURVE",
"53 59 OFFCURVE",
"31 102 OFFCURVE",
"22 111 CURVE",
"20 113 OFFCURVE",
"19 116 OFFCURVE",
"21 119 CURVE",
"22 122 OFFCURVE",
"25 123 OFFCURVE",
"28 123 CURVE",
"28 123 OFFCURVE",
"54 119 OFFCURVE",
"92 128 CURVE",
"127 136 OFFCURVE",
"180 158 OFFCURVE",
"235 213 CURVE",
"238 216 OFFCURVE",
"243 216 OFFCURVE",
"245 213 CURVE",
"248 210 OFFCURVE",
"248 206 OFFCURVE",
"245 203 CURVE",
"188 145 OFFCURVE",
"131 123 OFFCURVE",
"94 114 CURVE",
"72 109 OFFCURVE",
"54 108 OFFCURVE",
"42 108 CURVE",
"52 91 OFFCURVE",
"65 66 OFFCURVE",
"71 55 CURVE",
"127 68 OFFCURVE",
"168 51 OFFCURVE",
"193 34 CURVE",
"208 24 OFFCURVE",
"219 13 OFFCURVE",
"226 4 CURVE",
"244 63 OFFCURVE",
"274 132 OFFCURVE",
"316 211 CURVE",
"351 280 OFFCURVE",
"396 355 OFFCURVE",
"447 435 CURVE",
"494 508 OFFCURVE",
"538 572 OFFCURVE",
"569 616 CURVE",
"551 602 OFFCURVE",
"531 589 OFFCURVE",
"516 580 CURVE",
"479 557 OFFCURVE",
"421 524 OFFCURVE",
"408 524 CURVE",
"395 524 OFFCURVE",
"371 550 OFFCURVE",
"310 623 CURVE",
"292 645 OFFCURVE",
"274 667 OFFCURVE",
"264 676 CURVE",
"263 677 OFFCURVE",
"260 681 OFFCURVE",
"251 679 CURVE",
"236 676 OFFCURVE",
"211 659 OFFCURVE",
"186 634 CURVE",
"164 611 OFFCURVE",
"144 585 OFFCURVE",
"137 569 CURVE",
"134 562 OFFCURVE",
"134 557 OFFCURVE",
"135 555 CURVE",
"139 548 OFFCURVE",
"159 545 OFFCURVE",
"181 542 CURVE",
"198 540 OFFCURVE",
"219 538 OFFCURVE",
"242 532 CURVE",
"319 515 OFFCURVE",
"360 457 OFFCURVE",
"362 454 CURVE",
"364 451 OFFCURVE",
"363 447 OFFCURVE",
"360 445 CURVE",
"357 442 OFFCURVE",
"352 443 OFFCURVE",
"350 446 CURVE",
"350 446 LINE",
"350 447 OFFCURVE",
"310 502 OFFCURVE",
"239 519 CURVE",
"217 524 OFFCURVE",
"197 526 OFFCURVE",
"180 528 CURVE",
"150 532 OFFCURVE",
"131 535 OFFCURVE",
"123 548 CURVE",
"119 554 OFFCURVE",
"120 563 OFFCURVE",
"124 574 CURVE",
"132 592 OFFCURVE",
"152 619 OFFCURVE",
"176 643 CURVE",
"192 660 OFFCURVE",
"223 688 OFFCURVE",
"248 693 CURVE",
"262 695 OFFCURVE",
"270 691 OFFCURVE",
"274 686 CURVE",
"284 676 OFFCURVE",
"301 656 OFFCURVE",
"321 632 CURVE",
"339 611 OFFCURVE",
"358 588 OFFCURVE",
"375 569 CURVE",
"399 543 OFFCURVE",
"406 539 OFFCURVE",
"408 538 CURVE",
"416 539 OFFCURVE",
"460 561 OFFCURVE",
"510 593 CURVE",
"553 620 OFFCURVE",
"587 645 OFFCURVE",
"604 664 CURVE",
"611 674 OFFCURVE",
"615 679 OFFCURVE",
"616 680 CURVE",
"618 683 OFFCURVE",
"622 683 OFFCURVE",
"625 681 CURVE",
"628 679 OFFCURVE",
"629 676 OFFCURVE",
"627 672 CURVE",
"625 667 OFFCURVE",
"620 661 OFFCURVE",
"615 655 CURVE",
"589 620 OFFCURVE",
"526 533 OFFCURVE",
"459 428 CURVE",
"378 302 OFFCURVE",
"274 123 OFFCURVE",
"236 -13 CURVE",
"235 -16 OFFCURVE",
"233 -18 OFFCURVE",
"230 -18 CURVE",
"229 -18 OFFCURVE",
"229 -18 OFFCURVE",
"229 -18 CURVE"
);
},
{
closed = 1;
nodes = (
"465 12 OFFCURVE",
"460 13 OFFCURVE",
"455 14 CURVE",
"433 20 OFFCURVE",
"416 39 OFFCURVE",
"404 70 CURVE",
"394 93 OFFCURVE",
"389 123 OFFCURVE",
"389 150 CURVE",
"389 209 OFFCURVE",
"413 256 OFFCURVE",
"427 279 CURVE",
"449 315 OFFCURVE",
"477 339 OFFCURVE",
"499 342 CURVE",
"509 343 OFFCURVE",
"518 341 OFFCURVE",
"525 334 CURVE",
"545 316 OFFCURVE",
"542 270 OFFCURVE",
"542 265 CURVE",
"541 261 OFFCURVE",
"538 259 OFFCURVE",
"534 259 CURVE",
"530 259 OFFCURVE",
"527 263 OFFCURVE",
"528 266 CURVE",
"529 278 OFFCURVE",
"528 312 OFFCURVE",
"515 324 CURVE",
"511 328 OFFCURVE",
"507 329 OFFCURVE",
"501 328 CURVE",
"483 326 OFFCURVE",
"459 303 OFFCURVE",
"439 272 CURVE",
"416 235 OFFCURVE",
"403 191 OFFCURVE",
"403 150 CURVE",
"403 99 OFFCURVE",
"423 38 OFFCURVE",
"459 28 CURVE",
"478 22 OFFCURVE",
"501 30 OFFCURVE",
"528 52 CURVE",
"561 78 OFFCURVE",
"598 124 OFFCURVE",
"638 189 CURVE",
"640 192 OFFCURVE",
"645 193 OFFCURVE",
"648 191 CURVE",
"651 189 OFFCURVE",
"652 185 OFFCURVE",
"650 181 CURVE",
"579 69 OFFCURVE",
"519 12 OFFCURVE",
"471 12 CURVE"
);
}
);
width = 671;
}
);
unicode = 0065;
},
{
glyphname = f;
lastChange = "2020-05-19 14:48:21 +0000";
layers = (
{
layerId = "A4322E26-1E68-404E-BC15-B577A9E05BE3";
paths = (
{
closed = 1;
nodes = (
"159 -146 OFFCURVE",
"155 -145 OFFCURVE",
"150 -144 CURVE",
"111 -134 OFFCURVE",
"60 -81 OFFCURVE",
"35 -37 CURVE",
"13 1 OFFCURVE",
"15 75 OFFCURVE",
"38 116 CURVE",
"50 136 OFFCURVE",
"66 147 OFFCURVE",
"84 147 CURVE",
"103 147 OFFCURVE",
"119 134 OFFCURVE",
"130 110 CURVE",
"151 118 OFFCURVE",
"175 124 OFFCURVE",
"200 128 CURVE",
"218 130 OFFCURVE",
"239 132 OFFCURVE",
"264 132 CURVE",
"283 158 OFFCURVE",
"301 178 OFFCURVE",
"308 185 CURVE",
"307 187 OFFCURVE",
"305 191 OFFCURVE",
"299 198 CURVE",
"292 206 OFFCURVE",
"282 216 OFFCURVE",
"271 228 CURVE",
"239 260 OFFCURVE",
"196 303 OFFCURVE",
"179 347 CURVE",
"159 396 OFFCURVE",
"204 507 OFFCURVE",
"258 579 CURVE",
"278 605 OFFCURVE",
"317 649 OFFCURVE",
"353 646 CURVE",
"366 644 OFFCURVE",
"378 638 OFFCURVE",
"387 626 CURVE",
"406 602 OFFCURVE",
"412 559 OFFCURVE",
"413 523 CURVE",
"423 544 OFFCURVE",
"437 568 OFFCURVE",
"456 595 CURVE",
"487 641 OFFCURVE",
"520 679 OFFCURVE",
"520 679 CURVE",
"523 682 OFFCURVE",
"527 683 OFFCURVE",
"530 680 CURVE",
"533 678 OFFCURVE",
"533 673 OFFCURVE",
"531 670 CURVE",
"530 670 OFFCURVE",
"498 632 OFFCURVE",
"467 587 CURVE",
"437 543 OFFCURVE",
"418 507 OFFCURVE",
"412 481 CURVE",
"411 467 OFFCURVE",
"410 458 OFFCURVE",
"409 457 CURVE",
"409 454 OFFCURVE",
"406 451 OFFCURVE",
"403 451 CURVE",
"402 451 OFFCURVE",
"402 451 OFFCURVE",
"402 451 CURVE",
"399 451 OFFCURVE",
"396 454 OFFCURVE",
"396 457 CURVE",
"395 464 OFFCURVE",
"395 473 OFFCURVE",
"398 482 CURVE",
"400 518 OFFCURVE",
"400 587 OFFCURVE",
"376 618 CURVE",
"369 626 OFFCURVE",
"361 631 OFFCURVE",
"351 632 CURVE",
"330 634 OFFCURVE",
"300 612 OFFCURVE",
"269 570 CURVE",
"243 536 OFFCURVE",
"220 492 OFFCURVE",
"204 451 CURVE",
"189 408 OFFCURVE",
"184 372 OFFCURVE",
"192 352 CURVE",
"208 311 OFFCURVE",
"250 269 OFFCURVE",
"281 238 CURVE",
"309 209 OFFCURVE",
"323 195 OFFCURVE",
"323 183 CURVE",
"323 181 OFFCURVE",
"322 180 OFFCURVE",
"321 178 CURVE",
"320 178 OFFCURVE",
"302 159 OFFCURVE",
"281 131 CURVE",
"336 128 OFFCURVE",
"405 115 OFFCURVE",
"485 81 CURVE",
"488 80 OFFCURVE",
"490 75 OFFCURVE",
"489 72 CURVE",
"487 68 OFFCURVE",
"483 67 OFFCURVE",
"479 68 CURVE",
"396 104 OFFCURVE",
"326 116 OFFCURVE",
"271 117 CURVE",
"240 76 OFFCURVE",
"207 22 OFFCURVE",
"207 -19 CURVE",
"207 -40 OFFCURVE",
"208 -57 OFFCURVE",
"209 -70 CURVE",
"211 -107 OFFCURVE",
"212 -123 OFFCURVE",
"182 -141 CURVE",
"176 -144 OFFCURVE",
"170 -146 OFFCURVE",
"163 -146 CURVE"
);
},
{
closed = 1;
nodes = (
"71 133 OFFCURVE",
"60 125 OFFCURVE",
"50 109 CURVE",
"29 73 OFFCURVE",
"28 4 OFFCURVE",
"47 -30 CURVE",
"71 -71 OFFCURVE",
"119 -122 OFFCURVE",
"153 -131 CURVE",
"162 -133 OFFCURVE",
"169 -132 OFFCURVE",
"175 -129 CURVE",
"198 -115 OFFCURVE",
"197 -107 OFFCURVE",
"195 -71 CURVE",
"194 -57 OFFCURVE",
"193 -41 OFFCURVE",
"193 -19 CURVE",
"193 23 OFFCURVE",
"223 76 OFFCURVE",
"253 118 CURVE",
"234 117 OFFCURVE",
"217 116 OFFCURVE",
"202 114 CURVE",
"176 110 OFFCURVE",
"154 105 OFFCURVE",
"135 97 CURVE",
"146 67 OFFCURVE",
"147 27 OFFCURVE",
"128 10 CURVE",
"120 3 OFFCURVE",
"105 -3 OFFCURVE",
"81 11 CURVE",
"60 22 OFFCURVE",
"54 40 OFFCURVE",
"63 60 CURVE",
"70 74 OFFCURVE",
"87 89 OFFCURVE",
"110 101 CURVE",
"112 102 OFFCURVE",
"115 104 OFFCURVE",
"117 105 CURVE",
"109 122 OFFCURVE",
"97 133 OFFCURVE",
"84 133 CURVE"
);
},
{
closed = 1;
nodes = (
"98 80 OFFCURVE",
"82 66 OFFCURVE",
"76 53 CURVE",
"70 41 OFFCURVE",
"74 31 OFFCURVE",
"88 23 CURVE",
"102 15 OFFCURVE",
"112 15 OFFCURVE",
"119 20 CURVE",
"131 31 OFFCURVE",
"133 63 OFFCURVE",
"123 92 CURVE"
);
},
{
closed = 1;
nodes = (
"104 227 OFFCURVE",
"101 228 OFFCURVE",
"100 230 CURVE",
"98 234 OFFCURVE",
"99 238 OFFCURVE",
"103 240 CURVE",
"104 241 OFFCURVE",
"141 260 OFFCURVE",
"201 271 CURVE",
"237 278 OFFCURVE",
"274 280 OFFCURVE",
"311 277 CURVE",
"357 274 OFFCURVE",
"403 264 OFFCURVE",
"448 248 CURVE",
"452 246 OFFCURVE",
"454 242 OFFCURVE",
"452 239 CURVE",
"451 235 OFFCURVE",
"447 233 OFFCURVE",
"443 234 CURVE",
"344 271 OFFCURVE",
"259 267 OFFCURVE",
"205 258 CURVE",
"146 247 OFFCURVE",
"110 228 OFFCURVE",
"109 228 CURVE",
"108 227 OFFCURVE",
"107 227 OFFCURVE",
"106 227 CURVE"
);
}
);
width = 550;
}
);
unicode = 0066;
},
{
glyphname = g;
lastChange = "2020-05-19 14:48:22 +0000";
layers = (
{
layerId = "A4322E26-1E68-404E-BC15-B577A9E05BE3";
paths = (
{
closed = 1;
nodes = (
"234 379 OFFCURVE",
"206 392 OFFCURVE",
"194 417 CURVE",
"183 439 OFFCURVE",
"186 470 OFFCURVE",
"203 508 CURVE",
"221 548 OFFCURVE",
"248 585 OFFCURVE",
"268 610 CURVE",
"293 640 OFFCURVE",
"321 667 OFFCURVE",
"345 687 CURVE",
"373 709 OFFCURVE",
"394 718 OFFCURVE",
"407 715 CURVE",
"421 711 OFFCURVE",
"431 703 OFFCURVE",
"438 691 CURVE",
"459 652 OFFCURVE",
"436 581 OFFCURVE",
"435 578 CURVE",
"434 575 OFFCURVE",
"430 573 OFFCURVE",
"426 574 CURVE",
"422 575 OFFCURVE",
"420 579 OFFCURVE",
"422 583 CURVE",
"422 584 OFFCURVE",
"444 651 OFFCURVE",
"425 685 CURVE",
"421 693 OFFCURVE",
"414 699 OFFCURVE",
"404 701 CURVE",
"387 705 OFFCURVE",
"333 666 OFFCURVE",
"279 601 CURVE",
"231 542 OFFCURVE",
"187 464 OFFCURVE",
"206 423 CURVE",
"216 403 OFFCURVE",
"240 393 OFFCURVE",
"278 393 CURVE",
"316 393 OFFCURVE",
"347 408 OFFCURVE",
"369 439 CURVE",
"386 461 OFFCURVE",
"391 484 OFFCURVE",
"391 485 CURVE",
"392 488 OFFCURVE",
"396 491 OFFCURVE",
"400 490 CURVE",
"404 489 OFFCURVE",
"406 485 OFFCURVE",
"405 482 CURVE",
"405 480 OFFCURVE",
"399 456 OFFCURVE",
"380 430 CURVE",
"363 407 OFFCURVE",
"332 379 OFFCURVE",
"278 379 CURVE"
);
},
{
closed = 1;
nodes = (
"85 4 OFFCURVE",
"62 20 OFFCURVE",
"45 50 CURVE",
"26 85 OFFCURVE",
"17 140 OFFCURVE",
"21 201 CURVE",
"25 260 OFFCURVE",
"41 316 OFFCURVE",
"63 351 CURVE",
"82 380 OFFCURVE",
"105 394 OFFCURVE",
"129 393 CURVE",
"163 391 OFFCURVE",
"200 365 OFFCURVE",
"240 316 CURVE",
"256 295 OFFCURVE",
"273 271 OFFCURVE",
"289 244 CURVE",
"323 331 OFFCURVE",
"344 411 OFFCURVE",
"344 412 CURVE",
"345 415 OFFCURVE",
"349 418 OFFCURVE",
"353 417 CURVE",
"357 416 OFFCURVE",
"359 412 OFFCURVE",
"358 408 CURVE",
"358 407 OFFCURVE",
"335 320 OFFCURVE",
"298 229 CURVE",
"312 204 OFFCURVE",
"326 177 OFFCURVE",
"338 150 CURVE",
"349 126 OFFCURVE",
"360 99 OFFCURVE",
"367 75 CURVE",
"368 81 OFFCURVE",
"369 87 OFFCURVE",
"371 93 CURVE",
"380 127 OFFCURVE",
"398 175 OFFCURVE",
"438 211 CURVE",
"470 240 OFFCURVE",
"487 266 OFFCURVE",
"495 282 CURVE",
"505 302 OFFCURVE",
"509 321 OFFCURVE",
"505 331 CURVE",
"502 338 OFFCURVE",
"497 341 OFFCURVE",
"488 341 CURVE",
"473 341 OFFCURVE",
"453 321 OFFCURVE",
"432 285 CURVE",
"416 256 OFFCURVE",
"405 226 OFFCURVE",
"405 226 CURVE",
"403 222 OFFCURVE",
"399 221 OFFCURVE",
"396 222 CURVE",
"392 223 OFFCURVE",
"390 227 OFFCURVE",
"392 231 CURVE",
"392 232 OFFCURVE",
"403 262 OFFCURVE",
"420 292 CURVE",
"444 334 OFFCURVE",
"467 355 OFFCURVE",
"488 355 CURVE",
"503 355 OFFCURVE",
"513 349 OFFCURVE",
"518 336 CURVE",
"523 322 OFFCURVE",
"520 300 OFFCURVE",
"508 276 CURVE",
"495 251 OFFCURVE",
"474 225 OFFCURVE",
"448 201 CURVE",
"411 167 OFFCURVE",
"393 122 OFFCURVE",
"385 90 CURVE",
"378 65 OFFCURVE",
"376 43 OFFCURVE",
"376 33 CURVE",
"376 30 OFFCURVE",
"376 28 OFFCURVE",
"375 25 CURVE",
"375 22 OFFCURVE",
"371 19 OFFCURVE",
"368 19 CURVE",
"364 20 OFFCURVE",
"361 23 OFFCURVE",
"361 26 CURVE",
"361 27 OFFCURVE",
"361 29 OFFCURVE",
"362 33 CURVE",
"361 51 OFFCURVE",
"350 90 OFFCURVE",
"325 144 CURVE",
"315 167 OFFCURVE",
"303 190 OFFCURVE",
"291 212 CURVE",
"291 211 OFFCURVE",
"290 209 OFFCURVE",
"289 208 CURVE",
"232 73 OFFCURVE",
"173 4 OFFCURVE",
"114 4 CURVE"
);
},
{
closed = 1;
nodes = (
"103 379 OFFCURVE",
"86 360 OFFCURVE",
"75 343 CURVE",
"29 272 OFFCURVE",
"20 124 OFFCURVE",
"58 56 CURVE",
"72 31 OFFCURVE",
"90 18 OFFCURVE",
"114 18 CURVE",
"166 18 OFFCURVE",
"222 86 OFFCURVE",
"277 213 CURVE",
"279 218 OFFCURVE",
"281 223 OFFCURVE",
"283 228 CURVE",
"265 258 OFFCURVE",
"247 285 OFFCURVE",
"229 307 CURVE",
"192 352 OFFCURVE",
"157 377 OFFCURVE",
"128 379 CURVE",
"127 379 OFFCURVE",
"126 379 OFFCURVE",
"125 379 CURVE"
);
},
{
closed = 1;
nodes = (
"283 27 OFFCURVE",
"281 28 OFFCURVE",
"280 31 CURVE",
"279 33 OFFCURVE",
"182 231 OFFCURVE",
"81 267 CURVE",
"78 268 OFFCURVE",
"76 272 OFFCURVE",
"77 276 CURVE",
"78 279 OFFCURVE",
"82 281 OFFCURVE",
"86 280 CURVE",
"131 264 OFFCURVE",
"179 218 OFFCURVE",
"230 143 CURVE",
"267 88 OFFCURVE",
"292 37 OFFCURVE",
"292 37 CURVE",
"294 33 OFFCURVE",
"292 29 OFFCURVE",
"289 27 CURVE",
"288 27 OFFCURVE",
"287 27 OFFCURVE",
"286 27 CURVE"
);
}
);
width = 540;
}
);
unicode = 0067;
},
{
glyphname = h;
lastChange = "2020-05-19 14:48:25 +0000";
layers = (
{
layerId = "A4322E26-1E68-404E-BC15-B577A9E05BE3";
paths = (
{
closed = 1;
nodes = (
"109 -7 OFFCURVE",
"88 15 OFFCURVE",
"74 33 CURVE",
"55 57 OFFCURVE",
"39 84 OFFCURVE",
"29 108 CURVE",
"18 134 OFFCURVE",
"17 152 OFFCURVE",
"26 161 CURVE",
"28 163 OFFCURVE",
"31 166 OFFCURVE",
"35 171 CURVE",
"54 196 OFFCURVE",
"93 246 OFFCURVE",
"167 273 CURVE",
"172 274 OFFCURVE",
"176 275 OFFCURVE",
"181 277 CURVE",
"196 349 OFFCURVE",
"236 465 OFFCURVE",
"265 543 CURVE",
"250 525 OFFCURVE",
"234 515 OFFCURVE",
"218 515 CURVE",
"187 515 OFFCURVE",
"177 551 OFFCURVE",
"168 579 CURVE",
"163 597 OFFCURVE",
"157 617 OFFCURVE",
"148 617 CURVE",
"143 617 OFFCURVE",
"129 612 OFFCURVE",
"99 569 CURVE",
"82 544 OFFCURVE",
"68 519 OFFCURVE",
"68 519 CURVE",
"66 516 OFFCURVE",
"62 514 OFFCURVE",
"59 516 CURVE",
"55 518 OFFCURVE",
"54 522 OFFCURVE",
"56 526 CURVE",
"56 527 OFFCURVE",
"70 552 OFFCURVE",
"88 577 CURVE",
"113 613 OFFCURVE",
"132 631 OFFCURVE",
"148 631 CURVE",
"167 631 OFFCURVE",
"174 608 OFFCURVE",
"182 583 CURVE",
"191 552 OFFCURVE",
"199 529 OFFCURVE",
"218 529 CURVE",
"251 529 OFFCURVE",
"284 593 OFFCURVE",
"296 623 CURVE",
"297 625 OFFCURVE",
"297 626 OFFCURVE",
"297 626 CURVE",
"299 630 OFFCURVE",
"303 632 OFFCURVE",
"307 630 CURVE",
"310 629 OFFCURVE",
"312 625 OFFCURVE",
"310 621 CURVE",
"310 621 OFFCURVE",
"310 620 OFFCURVE",
"310 619 CURVE",
"300 596 OFFCURVE",
"220 392 OFFCURVE",
"196 281 CURVE",
"282 301 OFFCURVE",
"384 282 OFFCURVE",
"502 224 CURVE",
"506 223 OFFCURVE",
"507 219 OFFCURVE",
"505 215 CURVE",
"504 212 OFFCURVE",
"499 210 OFFCURVE",
"496 212 CURVE",
"360 278 OFFCURVE",
"262 284 OFFCURVE",
"193 266 CURVE",
"186 230 OFFCURVE",
"180 192 OFFCURVE",
"175 155 CURVE",
"160 48 OFFCURVE",
"151 -7 OFFCURVE",
"125 -7 CURVE"
);
},
{
closed = 1;
nodes = (
"104 238 OFFCURVE",
"65 187 OFFCURVE",
"46 163 CURVE",
"41 157 OFFCURVE",
"38 153 OFFCURVE",
"36 151 CURVE",
"33 148 OFFCURVE",
"32 136 OFFCURVE",
"42 113 CURVE",
"51 91 OFFCURVE",
"67 64 OFFCURVE",
"85 42 CURVE",
"104 18 OFFCURVE",
"118 7 OFFCURVE",
"125 7 CURVE",
"126 7 OFFCURVE",
"134 9 OFFCURVE",
"143 48 CURVE",
"150 76 OFFCURVE",
"155 116 OFFCURVE",
"161 157 CURVE",
"166 192 OFFCURVE",
"171 228 OFFCURVE",
"178 261 CURVE"
);
},
{
closed = 1;
nodes = (
"250 -179 OFFCURVE",
"243 -173 OFFCURVE",
"237 -162 CURVE",
"224 -136 OFFCURVE",
"215 -84 OFFCURVE",
"215 -32 CURVE",
"214 5 OFFCURVE",
"218 73 OFFCURVE",
"248 114 CURVE",
"268 141 OFFCURVE",
"295 152 OFFCURVE",
"328 147 CURVE",
"338 145 OFFCURVE",
"348 144 OFFCURVE",
"358 141 CURVE",
"379 249 OFFCURVE",
"442 452 OFFCURVE",
"446 462 CURVE",
"447 466 OFFCURVE",
"451 468 OFFCURVE",
"454 467 CURVE",
"458 466 OFFCURVE",
"460 462 OFFCURVE",
"459 458 CURVE",
"458 455 OFFCURVE",
"392 246 OFFCURVE",
"371 138 CURVE",
"429 123 OFFCURVE",
"476 98 OFFCURVE",
"508 79 CURVE",
"550 52 OFFCURVE",
"573 29 OFFCURVE",
"574 28 CURVE",
"577 25 OFFCURVE",
"577 21 OFFCURVE",
"574 18 CURVE",
"571 15 OFFCURVE",
"567 15 OFFCURVE",
"564 18 CURVE",
"564 18 OFFCURVE",
"541 41 OFFCURVE",
"500 67 CURVE",
"470 86 OFFCURVE",
"424 110 OFFCURVE",
"369 124 CURVE",
"367 115 OFFCURVE",
"366 107 OFFCURVE",
"366 100 CURVE",
"362 56 OFFCURVE",
"346 -12 OFFCURVE",
"326 -70 CURVE",
"316 -101 OFFCURVE",
"305 -127 OFFCURVE",
"294 -145 CURVE",
"281 -168 OFFCURVE",
"269 -179 OFFCURVE",
"257 -179 CURVE"
);
},
{
closed = 1;
nodes = (
"292 134 OFFCURVE",
"275 126 OFFCURVE",
"262 108 CURVE",
"215 49 OFFCURVE",
"225 -97 OFFCURVE",
"247 -150 CURVE",
"253 -164 OFFCURVE",
"257 -165 OFFCURVE",
"257 -165 CURVE",
"259 -165 OFFCURVE",
"268 -163 OFFCURVE",
"282 -138 CURVE",
"292 -121 OFFCURVE",
"303 -95 OFFCURVE",
"313 -65 CURVE",
"332 -10 OFFCURVE",
"348 59 OFFCURVE",
"352 102 CURVE",
"352 109 OFFCURVE",
"354 118 OFFCURVE",
"355 128 CURVE",
"346 130 OFFCURVE",
"336 132 OFFCURVE",
"326 133 CURVE",
"322 134 OFFCURVE",
"317 134 OFFCURVE",
"313 134 CURVE"
);
}
);
width = 596;
}
);
unicode = 0068;
},
{
glyphname = i;
lastChange = "2020-05-19 14:48:26 +0000";
layers = (
{
layerId = "A4322E26-1E68-404E-BC15-B577A9E05BE3";
paths = (
{
closed = 1;
nodes = (
"127 0 OFFCURVE",
"125 1 OFFCURVE",
"124 3 CURVE",
"123 5 OFFCURVE",
"87 49 OFFCURVE",
"58 108 CURVE",
"41 143 OFFCURVE",
"29 176 OFFCURVE",
"24 206 CURVE",
"17 244 OFFCURVE",
"20 277 OFFCURVE",
"33 305 CURVE",
"61 367 OFFCURVE",
"139 400 OFFCURVE",
"263 404 CURVE",
"280 404 OFFCURVE",
"296 404 OFFCURVE",
"312 404 CURVE",
"350 500 OFFCURVE",
"382 585 OFFCURVE",
"396 621 CURVE",
"306 581 OFFCURVE",
"98 576 OFFCURVE",
"89 576 CURVE",
"85 576 OFFCURVE",
"82 579 OFFCURVE",
"82 583 CURVE",
"82 586 OFFCURVE",
"85 590 OFFCURVE",
"89 590 CURVE",
"91 590 OFFCURVE",
"332 596 OFFCURVE",
"405 641 CURVE",
"407 643 OFFCURVE",
"411 642 OFFCURVE",
"413 640 CURVE",
"415 639 OFFCURVE",
"416 635 OFFCURVE",
"415 633 CURVE",
"415 631 OFFCURVE",
"376 526 OFFCURVE",
"327 403 CURVE",
"407 400 OFFCURVE",
"467 388 OFFCURVE",
"506 377 CURVE",
"559 361 OFFCURVE",
"585 345 OFFCURVE",
"587 345 CURVE",
"590 343 OFFCURVE",
"591 338 OFFCURVE",
"589 335 CURVE",
"587 332 OFFCURVE",
"583 331 OFFCURVE",
"579 333 CURVE",
"579 333 OFFCURVE",
"553 348 OFFCURVE",
"501 363 CURVE",
"462 374 OFFCURVE",
"402 387 OFFCURVE",
"322 390 CURVE",
"312 366 OFFCURVE",
"303 342 OFFCURVE",
"293 319 CURVE",
"256 227 OFFCURVE",
"224 155 OFFCURVE",
"199 102 CURVE",
"156 13 OFFCURVE",
"140 0 OFFCURVE",
"130 0 CURVE"
);
},
{
closed = 1;
nodes = (
"129 14 OFFCURVE",
"129 14 OFFCURVE",
"129 14 CURVE",
"129 14 OFFCURVE",
"129 14 OFFCURVE",
"129 14 CURVE"
);
},
{
closed = 1;
nodes = (
"282 390 OFFCURVE",
"273 390 OFFCURVE",
"263 390 CURVE",
"145 387 OFFCURVE",
"72 356 OFFCURVE",
"45 299 CURVE",
"19 242 OFFCURVE",
"44 167 OFFCURVE",
"70 115 CURVE",
"94 67 OFFCURVE",
"122 28 OFFCURVE",
"132 16 CURVE",
"135 18 OFFCURVE",
"141 25 OFFCURVE",
"151 41 CURVE",
"161 58 OFFCURVE",
"174 82 OFFCURVE",
"189 113 CURVE",
"214 166 OFFCURVE",
"245 238 OFFCURVE",
"282 328 CURVE",
"290 349 OFFCURVE",
"299 370 OFFCURVE",
"307 390 CURVE",
"301 390 OFFCURVE",
"296 390 OFFCURVE",
"290 390 CURVE"
);
},
{
closed = 1;
nodes = (
"241 -146 OFFCURVE",
"237 -146 OFFCURVE",
"233 -145 CURVE",
"230 -144 OFFCURVE",
"228 -142 OFFCURVE",
"227 -139 CURVE",
"227 -138 OFFCURVE",
"221 -78 OFFCURVE",
"225 -9 CURVE",
"230 85 OFFCURVE",
"251 151 OFFCURVE",
"286 185 CURVE",
"310 208 OFFCURVE",
"339 217 OFFCURVE",
"375 212 CURVE",
"388 210 OFFCURVE",
"400 208 OFFCURVE",
"411 206 CURVE",
"439 333 OFFCURVE",
"454 448 OFFCURVE",
"454 450 CURVE",
"454 454 OFFCURVE",
"458 456 OFFCURVE",
"462 456 CURVE",
"466 455 OFFCURVE",
"468 452 OFFCURVE",
"468 448 CURVE",
"468 447 OFFCURVE",
"453 330 OFFCURVE",
"425 203 CURVE",
"451 197 OFFCURVE",
"472 191 OFFCURVE",
"492 185 CURVE",
"540 171 OFFCURVE",
"575 161 OFFCURVE",
"622 171 CURVE",
"626 172 OFFCURVE",
"630 169 OFFCURVE",
"630 166 CURVE",
"631 162 OFFCURVE",
"629 158 OFFCURVE",
"625 157 CURVE",
"611 154 OFFCURVE",
"597 153 OFFCURVE",
"585 153 CURVE",
"552 153 OFFCURVE",
"523 161 OFFCURVE",
"489 171 CURVE",
"469 177 OFFCURVE",
"447 183 OFFCURVE",
"422 189 CURVE",
"382 13 OFFCURVE",
"336 -95 OFFCURVE",
"286 -131 CURVE",
"272 -141 OFFCURVE",
"258 -146 OFFCURVE",
"244 -146 CURVE"
);
},
{
closed = 1;
nodes = (
"253 -133 OFFCURVE",
"265 -129 OFFCURVE",
"277 -120 CURVE",
"335 -78 OFFCURVE",
"379 61 OFFCURVE",
"408 192 CURVE",
"397 194 OFFCURVE",
"385 196 OFFCURVE",
"373 198 CURVE",
"342 202 OFFCURVE",
"316 195 OFFCURVE",
"296 175 CURVE",
"223 105 OFFCURVE",
"237 -96 OFFCURVE",
"241 -132 CURVE"
);
}
);
width = 650;
}
);
unicode = 0069;
},
{
glyphname = j;
lastChange = "2020-05-19 14:48:29 +0000";
layers = (
{
layerId = "A4322E26-1E68-404E-BC15-B577A9E05BE3";
paths = (
{
closed = 1;
nodes = (
"55 -7 OFFCURVE",
"39 7 OFFCURVE",
"30 32 CURVE",
"10 85 OFFCURVE",
"19 175 OFFCURVE",
"61 212 CURVE",
"78 227 OFFCURVE",
"107 240 OFFCURVE",
"153 215 CURVE",
"190 196 OFFCURVE",
"224 174 OFFCURVE",
"255 152 CURVE",
"293 198 OFFCURVE",
"336 255 OFFCURVE",
"382 322 CURVE",
"448 419 OFFCURVE",
"509 517 OFFCURVE",
"545 578 CURVE",
"530 568 OFFCURVE",
"513 563 OFFCURVE",
"496 562 CURVE",
"458 561 OFFCURVE",
"416 582 OFFCURVE",
"371 625 CURVE",
"345 651 OFFCURVE",
"326 676 OFFCURVE",
"318 686 CURVE",
"302 680 OFFCURVE",
"249 660 OFFCURVE",
"196 633 CURVE",
"114 591 OFFCURVE",
"71 549 OFFCURVE",
"71 513 CURVE",
"71 412 OFFCURVE",
"109 355 OFFCURVE",
"141 324 CURVE",
"165 301 OFFCURVE",
"189 290 OFFCURVE",
"201 285 CURVE",
"205 307 OFFCURVE",
"215 329 OFFCURVE",
"231 351 CURVE",
"245 370 OFFCURVE",
"264 388 OFFCURVE",
"287 406 CURVE",
"327 436 OFFCURVE",
"364 452 OFFCURVE",
"366 453 CURVE",
"369 455 OFFCURVE",
"373 453 OFFCURVE",
"375 450 CURVE",
"377 446 OFFCURVE",
"375 442 OFFCURVE",
"371 440 CURVE",
"371 440 OFFCURVE",
"333 424 OFFCURVE",
"295 395 CURVE",
"261 368 OFFCURVE",
"219 326 OFFCURVE",
"214 275 CURVE",
"214 273 OFFCURVE",
"213 271 OFFCURVE",
"211 270 CURVE",
"209 269 OFFCURVE",
"207 268 OFFCURVE",
"205 269 CURVE",
"204 269 OFFCURVE",
"167 279 OFFCURVE",
"131 314 CURVE",
"109 335 OFFCURVE",
"92 360 OFFCURVE",
"80 389 CURVE",
"65 425 OFFCURVE",
"57 467 OFFCURVE",
"57 513 CURVE",
"57 556 OFFCURVE",
"102 600 OFFCURVE",
"189 646 CURVE",
"253 679 OFFCURVE",
"318 700 OFFCURVE",
"319 701 CURVE",
"322 702 OFFCURVE",
"325 701 OFFCURVE",
"327 698 CURVE",
"328 697 OFFCURVE",
"413 573 OFFCURVE",
"496 576 CURVE",
"528 577 OFFCURVE",
"557 599 OFFCURVE",
"581 640 CURVE",
"583 644 OFFCURVE",
"588 645 OFFCURVE",
"591 643 CURVE",
"594 641 OFFCURVE",
"595 637 OFFCURVE",
"593 633 CURVE",
"593 632 OFFCURVE",
"502 472 OFFCURVE",
"393 314 CURVE",
"347 247 OFFCURVE",
"305 190 OFFCURVE",
"266 144 CURVE",
"296 122 OFFCURVE",
"323 101 OFFCURVE",
"347 82 CURVE",
"387 51 OFFCURVE",
"419 25 OFFCURVE",
"440 18 CURVE",
"446 39 OFFCURVE",
"468 104 OFFCURVE",
"505 164 CURVE",
"532 207 OFFCURVE",
"562 239 OFFCURVE",
"593 260 CURVE",
"633 286 OFFCURVE",
"677 294 OFFCURVE",
"722 282 CURVE",
"726 281 OFFCURVE",
"728 278 OFFCURVE",
"727 274 CURVE",
"726 270 OFFCURVE",
"723 268 OFFCURVE",
"719 269 CURVE",
"643 288 OFFCURVE",
"575 250 OFFCURVE",
"517 157 CURVE",
"473 86 OFFCURVE",
"452 8 OFFCURVE",
"451 7 CURVE",
"450 4 OFFCURVE",
"447 2 OFFCURVE",
"443 2 CURVE",
"419 7 OFFCURVE",
"385 34 OFFCURVE",
"338 71 CURVE",
"314 90 OFFCURVE",
"287 112 OFFCURVE",
"257 133 CURVE",
"246 119 OFFCURVE",
"234 106 OFFCURVE",
"223 95 CURVE",
"160 26 OFFCURVE",
"111 -7 OFFCURVE",
"74 -7 CURVE"
);
},
{
closed = 1;
nodes = (
"92 215 OFFCURVE",
"80 210 OFFCURVE",
"70 201 CURVE",
"33 169 OFFCURVE",
"25 85 OFFCURVE",
"43 37 CURVE",
"47 26 OFFCURVE",
"57 7 OFFCURVE",
"74 7 CURVE",
"106 7 OFFCURVE",
"153 40 OFFCURVE",
"213 104 CURVE",
"224 115 OFFCURVE",
"235 128 OFFCURVE",
"246 141 CURVE",
"215 163 OFFCURVE",
"182 184 OFFCURVE",
"147 203 CURVE",
"131 211 OFFCURVE",
"118 215 OFFCURVE",
"105 215 CURVE"
);
}
);
width = 747;
}
);
unicode = 006A;
},
{
glyphname = k;
lastChange = "2020-05-19 14:48:30 +0000";
layers = (
{
layerId = "A4322E26-1E68-404E-BC15-B577A9E05BE3";
paths = (
{
closed = 1;
nodes = (
"58 159 OFFCURVE",
"44 164 OFFCURVE",
"34 184 CURVE",
"19 212 OFFCURVE",
"16 263 OFFCURVE",
"26 321 CURVE",
"35 382 OFFCURVE",
"57 439 OFFCURVE",
"84 477 CURVE",
"113 518 OFFCURVE",
"149 537 OFFCURVE",
"187 532 CURVE",
"223 527 OFFCURVE",
"242 499 OFFCURVE",
"255 465 CURVE",
"296 558 OFFCURVE",
"325 636 OFFCURVE",
"326 637 CURVE",
"327 641 OFFCURVE",
"331 643 OFFCURVE",
"335 642 CURVE",
"338 640 OFFCURVE",
"340 636 OFFCURVE",
"339 633 CURVE",
"338 632 OFFCURVE",
"305 544 OFFCURVE",
"262 446 CURVE",
"266 432 OFFCURVE",
"269 417 OFFCURVE",
"272 403 CURVE",
"285 350 OFFCURVE",
"295 305 OFFCURVE",
"332 305 CURVE",
"350 305 OFFCURVE",
"359 315 OFFCURVE",
"369 326 CURVE",
"380 337 OFFCURVE",
"392 351 OFFCURVE",
"415 341 CURVE",
"440 331 OFFCURVE",
"448 288 OFFCURVE",
"450 270 CURVE",
"455 232 OFFCURVE",
"452 183 OFFCURVE",
"432 168 CURVE",
"428 166 OFFCURVE",
"424 166 OFFCURVE",
"422 169 CURVE",
"419 173 OFFCURVE",
"420 177 OFFCURVE",
"423 179 CURVE",
"436 189 OFFCURVE",
"442 229 OFFCURVE",
"436 268 CURVE",
"432 300 OFFCURVE",
"422 323 OFFCURVE",
"410 328 CURVE",
"396 334 OFFCURVE",
"390 328 OFFCURVE",
"379 316 CURVE",
"369 305 OFFCURVE",
"356 291 OFFCURVE",
"332 291 CURVE",
"310 291 OFFCURVE",
"293 303 OFFCURVE",
"281 327 CURVE",
"271 346 OFFCURVE",
"265 372 OFFCURVE",
"259 400 CURVE",
"257 408 OFFCURVE",
"255 417 OFFCURVE",
"252 426 CURVE",
"248 416 OFFCURVE",
"244 407 OFFCURVE",
"240 398 CURVE",
"208 329 OFFCURVE",
"178 275 OFFCURVE",
"153 236 CURVE",
"119 184 OFFCURVE",
"91 159 OFFCURVE",
"68 159 CURVE"
);
},
{
closed = 1;
nodes = (
"145 519 OFFCURVE",
"119 502 OFFCURVE",
"95 469 CURVE",
"39 389 OFFCURVE",
"19 242 OFFCURVE",
"46 190 CURVE",
"52 179 OFFCURVE",
"59 173 OFFCURVE",
"68 173 CURVE",
"87 173 OFFCURVE",
"133 203 OFFCURVE",
"227 404 CURVE",
"234 418 OFFCURVE",
"240 432 OFFCURVE",
"247 447 CURVE",
"235 483 OFFCURVE",
"219 513 OFFCURVE",
"185 518 CURVE",
"181 519 OFFCURVE",
"177 519 OFFCURVE",
"174 519 CURVE"
);
},
{
closed = 1;
nodes = (
"96 64 OFFCURVE",
"94 65 OFFCURVE",
"93 66 CURVE",
"90 69 OFFCURVE",
"90 73 OFFCURVE",
"93 76 CURVE",
"168 158 OFFCURVE",
"229 269 OFFCURVE",
"267 347 CURVE",
"309 432 OFFCURVE",
"333 498 OFFCURVE",
"333 498 CURVE",
"334 502 OFFCURVE",
"338 504 OFFCURVE",
"342 502 CURVE",
"345 501 OFFCURVE",
"347 497 OFFCURVE",
"346 493 CURVE",
"346 493 OFFCURVE",
"322 426 OFFCURVE",
"280 341 CURVE",
"241 262 OFFCURVE",
"179 150 OFFCURVE",
"103 66 CURVE",
"102 65 OFFCURVE",
"100 64 OFFCURVE",
"98 64 CURVE"
);
},
{
closed = 1;
nodes = (
"145 -16 OFFCURVE",
"142 -14 OFFCURVE",
"142 -10 CURVE",
"142 -4 OFFCURVE",
"136 127 OFFCURVE",
"177 186 CURVE",
"191 207 OFFCURVE",
"209 224 OFFCURVE",
"229 236 CURVE",
"248 247 OFFCURVE",
"267 253 OFFCURVE",
"282 252 CURVE",
"294 251 OFFCURVE",
"304 245 OFFCURVE",
"309 235 CURVE",
"324 206 OFFCURVE",
"331 126 OFFCURVE",
"266 18 CURVE",
"280 25 OFFCURVE",
"298 33 OFFCURVE",
"320 39 CURVE",
"347 47 OFFCURVE",
"373 50 OFFCURVE",
"396 48 CURVE",
"426 46 OFFCURVE",
"453 36 OFFCURVE",
"476 18 CURVE",
"479 16 OFFCURVE",
"479 11 OFFCURVE",
"477 8 CURVE",
"474 5 OFFCURVE",
"470 5 OFFCURVE",
"467 7 CURVE",
"429 36 OFFCURVE",
"381 42 OFFCURVE",
"324 26 CURVE",
"281 14 OFFCURVE",
"248 -8 OFFCURVE",
"248 -8 CURVE",
"245 -10 OFFCURVE",
"242 -9 OFFCURVE",
"239 -7 CURVE",
"237 -5 OFFCURVE",
"237 -1 OFFCURVE",
"238 2 CURVE",
"273 52 OFFCURVE",
"295 103 OFFCURVE",
"302 149 CURVE",
"308 187 OFFCURVE",
"303 216 OFFCURVE",
"297 229 CURVE",
"294 234 OFFCURVE",
"289 237 OFFCURVE",
"281 238 CURVE",
"257 240 OFFCURVE",
"216 218 OFFCURVE",
"188 178 CURVE",
"150 123 OFFCURVE",
"156 -8 OFFCURVE",
"156 -9 CURVE",
"156 -13 OFFCURVE",
"153 -16 OFFCURVE",
"149 -16 CURVE",
"149 -16 OFFCURVE",
"149 -16 OFFCURVE",
"149 -16 CURVE"
);
}
);
width = 498;
}
);
unicode = 006B;
},
{
glyphname = l;
lastChange = "2020-05-19 14:48:33 +0000";
layers = (
{
layerId = "A4322E26-1E68-404E-BC15-B577A9E05BE3";
paths = (
{
closed = 1;
nodes = (
"50 -22 OFFCURVE",
"47 -20 OFFCURVE",
"46 -17 CURVE",
"45 -14 OFFCURVE",
"47 -10 OFFCURVE",
"51 -9 CURVE",
"78 -1 OFFCURVE",
"112 33 OFFCURVE",
"144 85 CURVE",
"179 141 OFFCURVE",
"210 216 OFFCURVE",
"233 296 CURVE",
"258 385 OFFCURVE",
"312 478 OFFCURVE",
"353 540 CURVE",
"372 570 OFFCURVE",
"391 595 OFFCURVE",
"405 615 CURVE",
"356 580 OFFCURVE",
"275 527 OFFCURVE",
"234 527 CURVE",
"201 527 OFFCURVE",
"183 560 OFFCURVE",
"166 590 CURVE",
"148 623 OFFCURVE",
"137 638 OFFCURVE",
"120 629 CURVE",
"114 626 OFFCURVE",
"111 621 OFFCURVE",
"109 614 CURVE",
"103 584 OFFCURVE",
"140 526 OFFCURVE",
"155 506 CURVE",
"157 503 OFFCURVE",
"156 499 OFFCURVE",
"153 496 CURVE",
"150 494 OFFCURVE",
"146 495 OFFCURVE",
"143 498 CURVE",
"141 501 OFFCURVE",
"87 574 OFFCURVE",
"96 617 CURVE",
"98 628 OFFCURVE",
"104 636 OFFCURVE",
"114 641 CURVE",
"128 649 OFFCURVE",
"141 647 OFFCURVE",
"153 635 CURVE",
"162 626 OFFCURVE",
"170 612 OFFCURVE",
"179 596 CURVE",
"194 569 OFFCURVE",
"210 541 OFFCURVE",
"234 541 CURVE",
"257 541 OFFCURVE",
"299 561 OFFCURVE",
"357 598 CURVE",
"400 627 OFFCURVE",
"438 656 OFFCURVE",
"438 657 CURVE",
"441 659 OFFCURVE",
"445 659 OFFCURVE",
"447 656 CURVE",
"450 654 OFFCURVE",
"450 650 OFFCURVE",
"448 647 CURVE",
"447 646 OFFCURVE",
"409 600 OFFCURVE",
"365 533 CURVE",
"324 471 OFFCURVE",
"271 379 OFFCURVE",
"246 292 CURVE",
"223 210 OFFCURVE",
"192 136 OFFCURVE",
"156 78 CURVE",
"122 22 OFFCURVE",
"86 -14 OFFCURVE",
"55 -22 CURVE",
"54 -22 OFFCURVE",
"54 -22 OFFCURVE",
"53 -22 CURVE"
);
},
{
closed = 1;
nodes = (
"493 -145 OFFCURVE",
"490 -144 OFFCURVE",
"489 -141 CURVE",
"433 -20 OFFCURVE",
"374 74 OFFCURVE",
"315 137 CURVE",
"314 138 OFFCURVE",
"312 139 OFFCURVE",
"311 141 CURVE",
"306 123 OFFCURVE",
"303 107 OFFCURVE",
"299 93 CURVE",
"289 51 OFFCURVE",
"284 26 OFFCURVE",
"274 11 CURVE",
"262 -6 OFFCURVE",
"246 -8 OFFCURVE",
"223 -6 CURVE",
"196 -4 OFFCURVE",
"161 34 OFFCURVE",
"116 108 CURVE",
"83 162 OFFCURVE",
"58 216 OFFCURVE",
"57 216 CURVE",
"56 219 OFFCURVE",
"57 223 OFFCURVE",
"59 225 CURVE",
"61 226 OFFCURVE",
"107 260 OFFCURVE",
"179 241 CURVE",
"221 231 OFFCURVE",
"262 206 OFFCURVE",
"303 168 CURVE",
"305 173 OFFCURVE",
"306 178 OFFCURVE",
"308 184 CURVE",
"330 268 OFFCURVE",
"366 322 OFFCURVE",
"392 353 CURVE",
"394 356 OFFCURVE",
"396 359 OFFCURVE",
"399 361 CURVE",
"385 357 OFFCURVE",
"373 355 OFFCURVE",
"361 355 CURVE",
"331 355 OFFCURVE",
"304 366 OFFCURVE",
"277 378 CURVE",
"250 389 OFFCURVE",
"225 399 OFFCURVE",
"197 399 CURVE",
"116 399 OFFCURVE",
"32 306 OFFCURVE",
"32 305 CURVE",
"29 302 OFFCURVE",
"25 302 OFFCURVE",
"22 305 CURVE",
"19 307 OFFCURVE",
"19 312 OFFCURVE",
"21 315 CURVE",
"22 316 OFFCURVE",
"43 339 OFFCURVE",
"75 364 CURVE",
"119 396 OFFCURVE",
"160 413 OFFCURVE",
"197 413 CURVE",
"228 413 OFFCURVE",
"256 401 OFFCURVE",
"282 390 CURVE",
"328 371 OFFCURVE",
"372 353 OFFCURVE",
"433 393 CURVE",
"439 399 OFFCURVE",
"444 401 OFFCURVE",
"444 401 CURVE",
"447 403 OFFCURVE",
"451 402 OFFCURVE",
"454 399 CURVE",
"456 396 OFFCURVE",
"455 392 OFFCURVE",
"452 390 CURVE",
"448 387 OFFCURVE",
"445 384 OFFCURVE",
"441 382 CURVE",
"432 375 OFFCURVE",
"418 362 OFFCURVE",
"402 343 CURVE",
"377 314 OFFCURVE",
"343 261 OFFCURVE",
"321 180 CURVE",
"319 172 OFFCURVE",
"317 164 OFFCURVE",
"315 157 CURVE",
"318 153 OFFCURVE",
"322 150 OFFCURVE",
"325 146 CURVE",
"381 88 OFFCURVE",
"435 3 OFFCURVE",
"487 -104 CURVE",
"487 -69 OFFCURVE",
"488 -10 OFFCURVE",
"497 55 CURVE",
"505 116 OFFCURVE",
"519 170 OFFCURVE",
"539 216 CURVE",
"563 273 OFFCURVE",
"596 318 OFFCURVE",
"635 348 CURVE",
"639 350 OFFCURVE",
"643 349 OFFCURVE",
"645 346 CURVE",
"648 343 OFFCURVE",
"647 339 OFFCURVE",
"644 336 CURVE",
"558 272 OFFCURVE",
"524 147 OFFCURVE",
"511 53 CURVE",
"496 -49 OFFCURVE",
"503 -137 OFFCURVE",
"503 -138 CURVE",
"503 -141 OFFCURVE",
"501 -144 OFFCURVE",
"497 -145 CURVE",
"497 -145 OFFCURVE",
"496 -145 OFFCURVE",
"496 -145 CURVE"
);
},
{
closed = 1;
nodes = (
"80 202 OFFCURVE",
"102 159 OFFCURVE",
"128 115 CURVE",
"183 24 OFFCURVE",
"212 9 OFFCURVE",
"224 8 CURVE",
"246 6 OFFCURVE",
"255 8 OFFCURVE",
"262 19 CURVE",
"270 31 OFFCURVE",
"276 56 OFFCURVE",
"286 96 CURVE",
"290 112 OFFCURVE",
"294 131 OFFCURVE",
"299 152 CURVE",
"258 192 OFFCURVE",
"217 218 OFFCURVE",
"176 228 CURVE",
"123 241 OFFCURVE",
"85 224 OFFCURVE",
"73 217 CURVE"
);
}
);
width = 667;
}
);
unicode = 006C;
},
{
glyphname = m;
lastChange = "2020-05-19 14:48:35 +0000";
layers = (
{
layerId = "A4322E26-1E68-404E-BC15-B577A9E05BE3";
paths = (
{
closed = 1;
nodes = (
"105 3 OFFCURVE",
"81 16 OFFCURVE",
"61 41 CURVE",
"44 62 OFFCURVE",
"32 92 OFFCURVE",
"25 127 CURVE",
"19 158 OFFCURVE",
"19 190 OFFCURVE",
"24 215 CURVE",
"33 252 OFFCURVE",
"52 289 OFFCURVE",
"79 321 CURVE",
"104 349 OFFCURVE",
"132 370 OFFCURVE",
"156 376 CURVE",
"174 381 OFFCURVE",
"189 377 OFFCURVE",
"199 366 CURVE",
"220 343 OFFCURVE",
"216 289 OFFCURVE",
"187 211 CURVE",
"186 207 OFFCURVE",
"182 205 OFFCURVE",
"178 207 CURVE",
"175 208 OFFCURVE",
"173 212 OFFCURVE",
"174 216 CURVE",
"188 255 OFFCURVE",
"197 287 OFFCURVE",
"198 313 CURVE",
"200 333 OFFCURVE",
"196 349 OFFCURVE",
"189 357 CURVE",
"183 364 OFFCURVE",
"173 366 OFFCURVE",
"160 362 CURVE",
"138 357 OFFCURVE",
"112 338 OFFCURVE",
"90 311 CURVE",
"64 282 OFFCURVE",
"46 246 OFFCURVE",
"38 212 CURVE",
"28 167 OFFCURVE",
"38 92 OFFCURVE",
"72 49 CURVE",
"89 28 OFFCURVE",
"109 17 OFFCURVE",
"133 17 CURVE",
"148 17 OFFCURVE",
"190 47 OFFCURVE",
"251 324 CURVE",
"284 478 OFFCURVE",
"307 634 OFFCURVE",
"307 636 CURVE",
"307 638 OFFCURVE",
"309 640 OFFCURVE",
"311 641 CURVE",
"313 642 OFFCURVE",
"316 642 OFFCURVE",
"318 640 CURVE",
"384 594 OFFCURVE",
"393 532 OFFCURVE",
"388 487 CURVE",
"384 440 OFFCURVE",
"364 403 OFFCURVE",
"363 402 CURVE",
"361 398 OFFCURVE",
"357 397 OFFCURVE",
"353 399 CURVE",
"350 401 OFFCURVE",
"349 405 OFFCURVE",
"351 409 CURVE",
"351 409 OFFCURVE",
"370 444 OFFCURVE",
"374 489 CURVE",
"380 544 OFFCURVE",
"361 589 OFFCURVE",
"319 622 CURVE",
"313 583 OFFCURVE",
"293 451 OFFCURVE",
"264 321 CURVE",
"244 230 OFFCURVE",
"225 158 OFFCURVE",
"206 106 CURVE",
"181 36 OFFCURVE",
"157 3 OFFCURVE",
"133 3 CURVE"
);
},
{
closed = 1;
nodes = (
"76 174 OFFCURVE",
"73 177 OFFCURVE",
"72 180 CURVE",
"72 184 OFFCURVE",
"74 187 OFFCURVE",
"78 188 CURVE",
"79 188 OFFCURVE",
"153 200 OFFCURVE",
"258 207 CURVE",
"354 214 OFFCURVE",
"497 218 OFFCURVE",
"630 199 CURVE",
"634 198 OFFCURVE",
"636 195 OFFCURVE",
"636 191 CURVE",
"635 187 OFFCURVE",
"632 184 OFFCURVE",
"628 185 CURVE",
"496 204 OFFCURVE",
"354 200 OFFCURVE",
"259 194 CURVE",
"155 186 OFFCURVE",
"81 174 OFFCURVE",
"80 174 CURVE",
"80 174 OFFCURVE",
"80 174 OFFCURVE",
"79 174 CURVE"
);
},
{
closed = 1;
nodes = (
"472 3 OFFCURVE",
"458 9 OFFCURVE",
"425 60 CURVE",
"411 82 OFFCURVE",
"390 93 OFFCURVE",
"362 92 CURVE",
"340 92 OFFCURVE",
"322 84 OFFCURVE",
"322 84 CURVE",
"319 83 OFFCURVE",
"315 84 OFFCURVE",
"314 87 CURVE",
"312 89 OFFCURVE",
"312 93 OFFCURVE",
"314 95 CURVE",
"315 96 OFFCURVE",
"357 140 OFFCURVE",
"396 188 CURVE",
"466 274 OFFCURVE",
"461 295 OFFCURVE",
"458 300 CURVE",
"449 313 OFFCURVE",
"423 317 OFFCURVE",
"385 311 CURVE",
"355 306 OFFCURVE",
"327 297 OFFCURVE",
"327 297 CURVE",
"323 296 OFFCURVE",
"319 298 OFFCURVE",
"318 302 CURVE",
"317 305 OFFCURVE",
"319 309 OFFCURVE",
"322 311 CURVE",
"324 311 OFFCURVE",
"351 320 OFFCURVE",
"383 325 CURVE",
"427 331 OFFCURVE",
"456 326 OFFCURVE",
"469 308 CURVE",
"477 297 OFFCURVE",
"474 279 OFFCURVE",
"458 251 CURVE",
"447 232 OFFCURVE",
"430 207 OFFCURVE",
"407 179 CURVE",
"383 149 OFFCURVE",
"358 122 OFFCURVE",
"342 104 CURVE",
"348 105 OFFCURVE",
"354 106 OFFCURVE",
"361 106 CURVE",
"394 107 OFFCURVE",
"421 94 OFFCURVE",
"437 68 CURVE",
"452 44 OFFCURVE",
"464 29 OFFCURVE",
"473 22 CURVE",
"480 17 OFFCURVE",
"485 17 OFFCURVE",
"492 17 CURVE",
"493 17 OFFCURVE",
"494 17 OFFCURVE",
"495 17 CURVE",
"499 19 OFFCURVE",
"515 34 OFFCURVE",
"536 60 CURVE",
"553 82 OFFCURVE",
"577 118 OFFCURVE",
"594 161 CURVE",
"623 233 OFFCURVE",
"624 298 OFFCURVE",
"596 354 CURVE",
"594 358 OFFCURVE",
"596 362 OFFCURVE",
"599 363 CURVE",
"602 365 OFFCURVE",
"607 364 OFFCURVE",
"608 360 CURVE",
"660 257 OFFCURVE",
"609 148 OFFCURVE",
"574 92 CURVE",
"560 69 OFFCURVE",
"544 47 OFFCURVE",
"528 29 CURVE",
"505 3 OFFCURVE",
"498 3 OFFCURVE",
"495 3 CURVE",
"494 3 OFFCURVE",
"493 3 OFFCURVE",
"492 3 CURVE",
"491 3 OFFCURVE",
"490 3 OFFCURVE",
"489 3 CURVE"
);
},
{
closed = 1;
nodes = (
"494 17 LINE"
);
}
);
width = 656;
}
);
unicode = 006D;
},
{
glyphname = n;
lastChange = "2020-05-19 14:48:37 +0000";
layers = (
{
layerId = "A4322E26-1E68-404E-BC15-B577A9E05BE3";
paths = (
{
closed = 1;
nodes = (
"416 -5 OFFCURVE",
"393 4 OFFCURVE",
"370 20 CURVE",
"347 37 OFFCURVE",
"322 65 OFFCURVE",
"322 92 CURVE",
"322 135 OFFCURVE",
"352 161 OFFCURVE",
"386 190 CURVE",
"390 193 OFFCURVE",
"394 197 OFFCURVE",
"398 200 CURVE",
"402 204 OFFCURVE",
"406 208 OFFCURVE",
"411 211 CURVE",
"446 242 OFFCURVE",
"490 279 OFFCURVE",
"479 309 CURVE",
"477 313 OFFCURVE",
"475 315 OFFCURVE",
"472 316 CURVE",
"457 322 OFFCURVE",
"421 302 OFFCURVE",
"397 288 CURVE",
"381 280 OFFCURVE",
"368 273 OFFCURVE",
"360 271 CURVE",
"351 269 OFFCURVE",
"341 267 OFFCURVE",
"333 271 CURVE",
"277 191 OFFCURVE",
"198 127 OFFCURVE",
"142 87 CURVE",
"118 70 OFFCURVE",
"96 56 OFFCURVE",
"78 45 CURVE",
"65 31 OFFCURVE",
"49 22 OFFCURVE",
"28 17 CURVE",
"25 17 OFFCURVE",
"21 19 OFFCURVE",
"20 22 CURVE",
"19 25 OFFCURVE",
"20 29 OFFCURVE",
"24 30 CURVE",
"24 31 OFFCURVE",
"42 40 OFFCURVE",
"69 56 CURVE",
"107 99 OFFCURVE",
"106 191 OFFCURVE",
"103 336 CURVE",
"99 479 OFFCURVE",
"141 574 OFFCURVE",
"178 612 CURVE",
"190 624 OFFCURVE",
"202 631 OFFCURVE",
"212 631 CURVE",
"229 631 OFFCURVE",
"247 612 OFFCURVE",
"268 574 CURVE",
"282 547 OFFCURVE",
"291 520 OFFCURVE",
"292 519 CURVE",
"293 515 OFFCURVE",
"291 511 OFFCURVE",
"288 510 CURVE",
"284 509 OFFCURVE",
"280 511 OFFCURVE",
"279 514 CURVE",
"263 557 OFFCURVE",
"232 617 OFFCURVE",
"212 617 CURVE",
"206 617 OFFCURVE",
"197 612 OFFCURVE",
"188 602 CURVE",
"169 583 OFFCURVE",
"151 549 OFFCURVE",
"138 509 CURVE",
"122 459 OFFCURVE",
"115 399 OFFCURVE",
"117 336 CURVE",
"119 241 OFFCURVE",
"120 169 OFFCURVE",
"110 117 CURVE",
"106 100 OFFCURVE",
"102 85 OFFCURVE",
"96 73 CURVE",
"108 81 OFFCURVE",
"121 89 OFFCURVE",
"134 98 CURVE",
"190 138 OFFCURVE",
"268 202 OFFCURVE",
"323 281 CURVE",
"316 290 OFFCURVE",
"312 307 OFFCURVE",
"308 335 CURVE",
"302 368 OFFCURVE",
"325 418 OFFCURVE",
"340 444 CURVE",
"360 484 OFFCURVE",
"388 523 OFFCURVE",
"410 545 CURVE",
"424 558 OFFCURVE",
"434 564 OFFCURVE",
"442 563 CURVE",
"448 562 OFFCURVE",
"453 558 OFFCURVE",
"456 552 CURVE",
"465 529 OFFCURVE",
"447 479 OFFCURVE",
"435 452 CURVE",
"420 416 OFFCURVE",
"392 359 OFFCURVE",
"341 283 CURVE",
"345 282 OFFCURVE",
"349 283 OFFCURVE",
"357 285 CURVE",
"363 286 OFFCURVE",
"376 293 OFFCURVE",
"390 301 CURVE",
"421 318 OFFCURVE",
"456 337 OFFCURVE",
"477 329 CURVE",
"484 327 OFFCURVE",
"489 321 OFFCURVE",
"492 314 CURVE",
"506 275 OFFCURVE",
"458 234 OFFCURVE",
"420 201 CURVE",
"415 197 OFFCURVE",
"411 193 OFFCURVE",
"407 190 CURVE",
"403 186 OFFCURVE",
"399 183 OFFCURVE",
"395 179 CURVE",
"362 151 OFFCURVE",
"336 129 OFFCURVE",
"336 92 CURVE",
"336 74 OFFCURVE",
"353 50 OFFCURVE",
"379 32 CURVE",
"404 13 OFFCURVE",
"431 5 OFFCURVE",
"449 11 CURVE",
"465 17 OFFCURVE",
"492 48 OFFCURVE",
"522 97 CURVE",
"548 140 OFFCURVE",
"565 179 OFFCURVE",
"566 185 CURVE",
"566 189 OFFCURVE",
"569 192 OFFCURVE",
"573 192 CURVE",
"577 192 OFFCURVE",
"580 189 OFFCURVE",
"580 185 CURVE",
"580 174 OFFCURVE",
"556 127 OFFCURVE",
"534 91 CURVE",
"512 53 OFFCURVE",
"479 7 OFFCURVE",
"453 -2 CURVE",
"448 -4 OFFCURVE",
"442 -5 OFFCURVE",
"436 -5 CURVE"
);
},
{
closed = 1;
nodes = (
"566 185 OFFCURVE",
"566 185 OFFCURVE",
"566 185 CURVE",
"566 185 OFFCURVE",
"566 185 OFFCURVE",
"566 185 CURVE"
);
},
{
closed = 1;
nodes = (
"439 549 OFFCURVE",
"433 548 OFFCURVE",
"420 535 CURVE",
"378 493 OFFCURVE",
"314 384 OFFCURVE",
"321 337 CURVE",
"325 317 OFFCURVE",
"328 302 OFFCURVE",
"331 294 CURVE",
"381 367 OFFCURVE",
"408 423 OFFCURVE",
"422 457 CURVE",
"444 508 OFFCURVE",
"447 536 OFFCURVE",
"443 546 CURVE",
"442 549 OFFCURVE",
"441 549 OFFCURVE",
"440 549 CURVE",
"440 549 OFFCURVE",
"440 549 OFFCURVE",
"440 549 CURVE"
);
}
);
width = 600;
}
);
unicode = 006E;
},
{
glyphname = o;
lastChange = "2020-05-19 14:48:38 +0000";
layers = (
{
layerId = "A4322E26-1E68-404E-BC15-B577A9E05BE3";
paths = (
{
closed = 1;
nodes = (
"590 232 OFFCURVE",
"589 232 OFFCURVE",
"588 233 CURVE",
"587 233 OFFCURVE",
"562 248 OFFCURVE",
"530 277 CURVE",
"500 303 OFFCURVE",
"457 348 OFFCURVE",
"424 408 CURVE",
"409 435 OFFCURVE",
"401 466 OFFCURVE",
"398 499 CURVE",
"397 525 OFFCURVE",
"399 553 OFFCURVE",
"406 582 CURVE",
"416 632 OFFCURVE",
"435 666 OFFCURVE",
"436 668 CURVE",
"438 671 OFFCURVE",
"442 672 OFFCURVE",
"445 670 CURVE",
"449 669 OFFCURVE",
"450 664 OFFCURVE",
"448 661 CURVE",
"448 661 OFFCURVE",
"430 626 OFFCURVE",
"419 579 CURVE",
"410 536 OFFCURVE",
"405 472 OFFCURVE",
"436 415 CURVE",
"469 356 OFFCURVE",
"510 313 OFFCURVE",
"539 287 CURVE",
"570 259 OFFCURVE",
"595 245 OFFCURVE",
"595 245 CURVE",
"598 243 OFFCURVE",
"599 238 OFFCURVE",
"597 235 CURVE",
"596 233 OFFCURVE",
"594 232 OFFCURVE",
"591 232 CURVE"
);
},
{
closed = 1;
nodes = (
"212 256 OFFCURVE",
"203 257 OFFCURVE",
"196 259 CURVE",
"148 268 OFFCURVE",
"120 301 OFFCURVE",
"113 329 CURVE",
"105 363 OFFCURVE",
"116 406 OFFCURVE",
"144 444 CURVE",
"160 465 OFFCURVE",
"180 484 OFFCURVE",
"202 497 CURVE",
"227 512 OFFCURVE",
"253 520 OFFCURVE",
"280 522 CURVE",
"337 525 OFFCURVE",
"366 496 OFFCURVE",
"380 471 CURVE",
"395 445 OFFCURVE",
"397 418 OFFCURVE",
"397 417 CURVE",
"397 413 OFFCURVE",
"394 410 OFFCURVE",
"390 410 CURVE",
"387 410 OFFCURVE",
"383 413 OFFCURVE",
"383 417 CURVE",
"383 417 OFFCURVE",
"381 442 OFFCURVE",
"368 465 CURVE",
"350 496 OFFCURVE",
"321 510 OFFCURVE",
"281 508 CURVE",
"234 505 OFFCURVE",
"187 478 OFFCURVE",
"156 436 CURVE",
"130 401 OFFCURVE",
"119 362 OFFCURVE",
"127 332 CURVE",
"133 308 OFFCURVE",
"157 280 OFFCURVE",
"198 272 CURVE",
"235 265 OFFCURVE",
"277 275 OFFCURVE",
"321 301 CURVE",
"377 334 OFFCURVE",
"435 392 OFFCURVE",
"494 473 CURVE",
"496 476 OFFCURVE",
"500 477 OFFCURVE",
"503 474 CURVE",
"507 472 OFFCURVE",
"507 468 OFFCURVE",
"505 465 CURVE",
"379 291 OFFCURVE",
"280 256 OFFCURVE",
"222 256 CURVE"
);
},
{
closed = 1;
nodes = (
"371 7 OFFCURVE",
"365 13 OFFCURVE",
"350 26 CURVE",
"335 40 OFFCURVE",
"310 62 OFFCURVE",
"248 100 CURVE",
"243 104 OFFCURVE",
"238 106 OFFCURVE",
"233 109 CURVE",
"170 42 OFFCURVE",
"117 7 OFFCURVE",
"74 7 CURVE",
"48 7 OFFCURVE",
"30 18 OFFCURVE",
"23 37 CURVE",
"14 64 OFFCURVE",
"28 99 OFFCURVE",
"58 122 CURVE",
"73 135 OFFCURVE",
"100 150 OFFCURVE",
"139 150 CURVE",
"139 150 OFFCURVE",
"140 150 OFFCURVE",
"140 150 CURVE",
"169 150 OFFCURVE",
"199 142 OFFCURVE",
"230 127 CURVE",
"234 131 OFFCURVE",
"238 135 OFFCURVE",
"242 140 CURVE",
"265 166 OFFCURVE",
"286 193 OFFCURVE",
"301 215 CURVE",
"279 200 OFFCURVE",
"254 191 OFFCURVE",
"235 191 CURVE",
"204 191 OFFCURVE",
"186 204 OFFCURVE",
"185 204 CURVE",
"182 206 OFFCURVE",
"181 211 OFFCURVE",
"183 214 CURVE",
"185 217 OFFCURVE",
"189 218 OFFCURVE",
"193 216 CURVE",
"193 216 OFFCURVE",
"209 205 OFFCURVE",
"235 205 CURVE",
"260 205 OFFCURVE",
"305 226 OFFCURVE",
"333 260 CURVE",
"335 263 OFFCURVE",
"339 264 OFFCURVE",
"342 262 CURVE",
"345 259 OFFCURVE",
"346 255 OFFCURVE",
"344 252 CURVE",
"344 251 OFFCURVE",
"305 191 OFFCURVE",
"252 131 CURVE",
"249 127 OFFCURVE",
"246 123 OFFCURVE",
"243 120 CURVE",
"247 117 OFFCURVE",
"251 115 OFFCURVE",
"256 112 CURVE",
"318 74 OFFCURVE",
"344 50 OFFCURVE",
"359 36 CURVE",
"373 24 OFFCURVE",
"376 21 OFFCURVE",
"390 21 CURVE",
"395 21 OFFCURVE",
"410 29 OFFCURVE",
"438 49 CURVE",
"463 67 OFFCURVE",
"492 91 OFFCURVE",
"520 117 CURVE",
"586 179 OFFCURVE",
"628 235 OFFCURVE",
"630 262 CURVE",
"631 266 OFFCURVE",
"634 269 OFFCURVE",
"638 269 CURVE",
"642 268 OFFCURVE",
"645 265 OFFCURVE",
"644 261 CURVE",
"641 216 OFFCURVE",
"563 138 OFFCURVE",
"529 107 CURVE",
"487 67 OFFCURVE",
"414 7 OFFCURVE",
"390 7 CURVE"
);
},
{
closed = 1;
nodes = (
"112 136 OFFCURVE",
"87 128 OFFCURVE",
"66 111 CURVE",
"42 92 OFFCURVE",
"29 63 OFFCURVE",
"37 42 CURVE",
"41 29 OFFCURVE",
"54 21 OFFCURVE",
"74 21 CURVE",
"112 21 OFFCURVE",
"162 54 OFFCURVE",
"220 116 CURVE",
"192 129 OFFCURVE",
"165 136 OFFCURVE",
"139 136 CURVE"
);
}
);
width = 664;
}
);
unicode = 006F;
},
{
glyphname = p;
lastChange = "2020-05-19 14:48:41 +0000";
layers = (
{
layerId = "A4322E26-1E68-404E-BC15-B577A9E05BE3";
paths = (
{
closed = 1;
nodes = (
"26 9 OFFCURVE",
"25 9 OFFCURVE",
"24 10 CURVE",
"21 11 OFFCURVE",
"19 16 OFFCURVE",
"21 19 CURVE",
"21 20 OFFCURVE",
"71 127 OFFCURVE",
"149 228 CURVE",
"181 269 OFFCURVE",
"214 304 OFFCURVE",
"246 333 CURVE",
"241 338 OFFCURVE",
"235 343 OFFCURVE",
"228 348 CURVE",
"188 378 OFFCURVE",
"147 389 OFFCURVE",
"147 389 CURVE",
"144 390 OFFCURVE",
"142 392 OFFCURVE",
"142 395 CURVE",
"141 396 OFFCURVE",
"135 430 OFFCURVE",
"135 473 CURVE",
"135 531 OFFCURVE",
"149 575 OFFCURVE",
"174 605 CURVE",
"200 635 OFFCURVE",
"238 649 OFFCURVE",
"286 646 CURVE",
"339 643 OFFCURVE",
"382 624 OFFCURVE",
"412 589 CURVE",
"445 552 OFFCURVE",
"458 504 OFFCURVE",
"463 471 CURVE",
"469 435 OFFCURVE",
"467 407 OFFCURVE",
"467 406 CURVE",
"467 404 OFFCURVE",
"466 403 OFFCURVE",
"464 401 CURVE",
"463 400 OFFCURVE",
"461 400 OFFCURVE",
"459 400 CURVE",
"390 409 OFFCURVE",
"324 377 OFFCURVE",
"267 332 CURVE",
"278 320 OFFCURVE",
"287 308 OFFCURVE",
"295 295 CURVE",
"304 279 OFFCURVE",
"311 261 OFFCURVE",
"315 243 CURVE",
"333 239 OFFCURVE",
"349 230 OFFCURVE",
"364 217 CURVE",
"421 166 OFFCURVE",
"430 114 OFFCURVE",
"427 80 CURVE",
"425 43 OFFCURVE",
"408 19 OFFCURVE",
"408 18 CURVE",
"406 14 OFFCURVE",
"401 13 OFFCURVE",
"398 16 CURVE",
"395 18 OFFCURVE",
"394 22 OFFCURVE",
"396 25 CURVE",
"396 26 OFFCURVE",
"411 48 OFFCURVE",
"413 82 CURVE",
"417 127 OFFCURVE",
"397 169 OFFCURVE",
"355 206 CURVE",
"343 217 OFFCURVE",
"330 224 OFFCURVE",
"318 228 CURVE",
"319 217 OFFCURVE",
"320 206 OFFCURVE",
"319 195 CURVE",
"314 40 OFFCURVE",
"249 11 OFFCURVE",
"246 10 CURVE",
"245 9 OFFCURVE",
"243 9 OFFCURVE",
"242 9 CURVE",
"237 10 OFFCURVE",
"128 37 OFFCURVE",
"105 82 CURVE",
"97 98 OFFCURVE",
"111 124 OFFCURVE",
"120 139 CURVE",
"135 161 OFFCURVE",
"157 185 OFFCURVE",
"181 203 CURVE",
"202 219 OFFCURVE",
"234 239 OFFCURVE",
"271 244 CURVE",
"281 246 OFFCURVE",
"291 246 OFFCURVE",
"300 245 CURVE",
"293 274 OFFCURVE",
"279 300 OFFCURVE",
"257 323 CURVE",
"220 291 OFFCURVE",
"187 254 OFFCURVE",
"160 219 CURVE",
"83 119 OFFCURVE",
"34 14 OFFCURVE",
"34 13 CURVE",
"32 11 OFFCURVE",
"30 9 OFFCURVE",
"27 9 CURVE"
);
},
{
closed = 1;
nodes = (
"248 232 OFFCURVE",
"209 207 OFFCURVE",
"190 192 CURVE",
"138 152 OFFCURVE",
"111 102 OFFCURVE",
"118 88 CURVE",
"134 57 OFFCURVE",
"211 31 OFFCURVE",
"243 24 CURVE",
"247 26 OFFCURVE",
"259 34 OFFCURVE",
"271 54 CURVE",
"285 76 OFFCURVE",
"303 119 OFFCURVE",
"305 196 CURVE",
"306 208 OFFCURVE",
"305 220 OFFCURVE",
"303 231 CURVE",
"299 232 OFFCURVE",
"294 232 OFFCURVE",
"290 232 CURVE"
);
},
{
closed = 1;
nodes = (
"167 398 OFFCURVE",
"202 385 OFFCURVE",
"237 359 CURVE",
"244 353 OFFCURVE",
"251 348 OFFCURVE",
"257 342 CURVE",
"268 350 OFFCURVE",
"278 358 OFFCURVE",
"288 365 CURVE",
"344 403 OFFCURVE",
"400 420 OFFCURVE",
"453 415 CURVE",
"454 440 OFFCURVE",
"451 524 OFFCURVE",
"402 580 CURVE",
"374 612 OFFCURVE",
"334 629 OFFCURVE",
"285 632 CURVE",
"241 634 OFFCURVE",
"208 622 OFFCURVE",
"185 596 CURVE",
"134 537 OFFCURVE",
"151 424 OFFCURVE",
"155 402 CURVE"
);
},
{
closed = 1;
nodes = (
"314 6 OFFCURVE",
"314 7 OFFCURVE",
"313 7 CURVE",
"309 8 OFFCURVE",
"307 12 OFFCURVE",
"308 15 CURVE",
"308 16 OFFCURVE",
"324 76 OFFCURVE",
"355 139 CURVE",
"374 177 OFFCURVE",
"393 208 OFFCURVE",
"414 232 CURVE",
"441 262 OFFCURVE",
"469 282 OFFCURVE",
"498 289 CURVE",
"500 290 OFFCURVE",
"503 289 OFFCURVE",
"504 288 CURVE",
"506 286 OFFCURVE",
"507 284 OFFCURVE",
"506 281 CURVE",
"506 281 OFFCURVE",
"494 226 OFFCURVE",
"487 166 CURVE",
"474 64 OFFCURVE",
"484 34 OFFCURVE",
"491 25 CURVE",
"494 22 OFFCURVE",
"496 20 OFFCURVE",
"500 20 CURVE",
"512 20 OFFCURVE",
"541 36 OFFCURVE",
"605 139 CURVE",
"642 198 OFFCURVE",
"672 259 OFFCURVE",
"673 259 CURVE",
"674 263 OFFCURVE",
"679 264 OFFCURVE",
"682 263 CURVE",
"686 261 OFFCURVE",
"687 257 OFFCURVE",
"685 253 CURVE",
"685 253 OFFCURVE",
"654 191 OFFCURVE",
"617 131 CURVE",
"565 47 OFFCURVE",
"527 6 OFFCURVE",
"500 6 CURVE",
"492 6 OFFCURVE",
"486 10 OFFCURVE",
"481 16 CURVE",
"465 35 OFFCURVE",
"463 85 OFFCURVE",
"473 168 CURVE",
"479 212 OFFCURVE",
"486 253 OFFCURVE",
"490 272 CURVE",
"381 231 OFFCURVE",
"322 14 OFFCURVE",
"322 12 CURVE",
"321 9 OFFCURVE",
"318 6 OFFCURVE",
"315 6 CURVE"
);
}
);
width = 706;
}
);
unicode = 0070;
},
{
glyphname = q;
lastChange = "2020-05-19 14:48:42 +0000";
layers = (
{
layerId = "A4322E26-1E68-404E-BC15-B577A9E05BE3";
paths = (
{
closed = 1;
nodes = (
"149 -7 OFFCURVE",
"145 -7 OFFCURVE",
"143 -7 CURVE",
"120 -4 OFFCURVE",
"110 8 OFFCURVE",
"106 18 CURVE",
"99 36 OFFCURVE",
"103 62 OFFCURVE",
"118 96 CURVE",
"131 126 OFFCURVE",
"152 160 OFFCURVE",
"180 195 CURVE",
"238 271 OFFCURVE",
"311 335 OFFCURVE",
"372 364 CURVE",
"375 366 OFFCURVE",
"379 367 OFFCURVE",
"382 369 CURVE",
"355 379 OFFCURVE",
"323 389 OFFCURVE",
"286 399 CURVE",
"268 371 OFFCURVE",
"244 344 OFFCURVE",
"218 322 CURVE",
"176 288 OFFCURVE",
"132 269 OFFCURVE",
"93 269 CURVE",
"57 269 OFFCURVE",
"31 289 OFFCURVE",
"23 324 CURVE",
"18 344 OFFCURVE",
"19 369 OFFCURVE",
"26 394 CURVE",
"33 422 OFFCURVE",
"46 450 OFFCURVE",
"65 478 CURVE",
"95 523 OFFCURVE",
"154 589 OFFCURVE",
"263 645 CURVE",
"324 677 OFFCURVE",
"377 696 OFFCURVE",
"420 700 CURVE",
"457 704 OFFCURVE",
"487 697 OFFCURVE",
"509 681 CURVE",
"526 668 OFFCURVE",
"538 649 OFFCURVE",
"543 625 CURVE",
"550 600 OFFCURVE",
"546 580 OFFCURVE",
"545 574 CURVE",
"545 571 LINE",
"533 510 OFFCURVE",
"518 457 OFFCURVE",
"504 412 CURVE",
"520 415 OFFCURVE",
"533 416 OFFCURVE",
"545 416 CURVE",
"579 414 OFFCURVE",
"593 400 OFFCURVE",
"599 388 CURVE",
"605 377 OFFCURVE",
"592 361 OFFCURVE",
"572 338 CURVE",
"549 311 OFFCURVE",
"517 275 OFFCURVE",
"527 251 CURVE",
"535 231 OFFCURVE",
"541 184 OFFCURVE",
"541 138 CURVE",
"540 106 OFFCURVE",
"537 46 OFFCURVE",
"517 16 CURVE",
"508 3 OFFCURVE",
"497 -4 OFFCURVE",
"484 -4 CURVE",
"470 -4 OFFCURVE",
"459 4 OFFCURVE",
"452 17 CURVE",
"426 69 OFFCURVE",
"461 203 OFFCURVE",
"505 262 CURVE",
"512 271 OFFCURVE",
"514 280 OFFCURVE",
"511 289 CURVE",
"508 299 OFFCURVE",
"498 311 OFFCURVE",
"475 326 CURVE",
"471 316 OFFCURVE",
"467 306 OFFCURVE",
"463 297 CURVE",
"434 227 OFFCURVE",
"400 168 OFFCURVE",
"364 121 CURVE",
"319 63 OFFCURVE",
"268 25 OFFCURVE",
"214 6 CURVE",
"189 -3 OFFCURVE",
"168 -7 OFFCURVE",
"152 -7 CURVE"
);
},
{
closed = 1;
nodes = (
"394 359 OFFCURVE",
"386 355 OFFCURVE",
"378 351 CURVE",
"319 323 OFFCURVE",
"248 260 OFFCURVE",
"191 187 CURVE",
"136 116 OFFCURVE",
"108 52 OFFCURVE",
"119 23 CURVE",
"130 -2 OFFCURVE",
"174 7 OFFCURVE",
"209 19 CURVE",
"304 52 OFFCURVE",
"386 147 OFFCURVE",
"450 303 CURVE",
"454 312 OFFCURVE",
"458 322 OFFCURVE",
"463 334 CURVE",
"447 342 OFFCURVE",
"427 352 OFFCURVE",
"401 362 CURVE"
);
},
{
closed = 1;
nodes = (
"494 220 OFFCURVE",
"476 177 OFFCURVE",
"466 133 CURVE",
"455 85 OFFCURVE",
"454 44 OFFCURVE",
"464 24 CURVE",
"469 15 OFFCURVE",
"475 10 OFFCURVE",
"484 10 CURVE",
"492 10 OFFCURVE",
"499 15 OFFCURVE",
"505 24 CURVE",
"537 70 OFFCURVE",
"528 210 OFFCURVE",
"514 246 CURVE",
"513 247 OFFCURVE",
"513 247 OFFCURVE",
"513 248 CURVE"
);
},
{
closed = 1;
nodes = (
"402 687 OFFCURVE",
"347 673 OFFCURVE",
"269 633 CURVE",
"81 535 OFFCURVE",
"20 396 OFFCURVE",
"36 327 CURVE",
"43 299 OFFCURVE",
"63 283 OFFCURVE",
"93 283 CURVE",
"129 283 OFFCURVE",
"170 301 OFFCURVE",
"209 333 CURVE",
"233 353 OFFCURVE",
"255 378 OFFCURVE",
"272 403 CURVE",
"258 407 OFFCURVE",
"243 410 OFFCURVE",
"228 414 CURVE",
"224 415 OFFCURVE",
"222 419 OFFCURVE",
"223 423 CURVE",
"224 427 OFFCURVE",
"227 429 OFFCURVE",
"231 428 CURVE",
"248 424 OFFCURVE",
"265 419 OFFCURVE",
"280 415 CURVE",
"284 422 OFFCURVE",
"288 429 OFFCURVE",
"291 436 CURVE",
"306 468 OFFCURVE",
"308 494 OFFCURVE",
"297 507 CURVE",
"288 518 OFFCURVE",
"278 523 OFFCURVE",
"265 524 CURVE",
"229 524 OFFCURVE",
"190 480 OFFCURVE",
"189 480 CURVE",
"187 477 OFFCURVE",
"182 477 OFFCURVE",
"179 479 CURVE",
"177 482 OFFCURVE",
"176 486 OFFCURVE",
"179 489 CURVE",
"181 491 OFFCURVE",
"223 538 OFFCURVE",
"265 538 CURVE",
"282 537 OFFCURVE",
"296 530 OFFCURVE",
"308 516 CURVE",
"323 498 OFFCURVE",
"322 467 OFFCURVE",
"304 430 CURVE",
"301 424 OFFCURVE",
"298 418 OFFCURVE",
"294 411 CURVE",
"335 400 OFFCURVE",
"371 388 OFFCURVE",
"401 377 CURVE",
"434 391 OFFCURVE",
"463 402 OFFCURVE",
"489 408 CURVE",
"503 455 OFFCURVE",
"518 510 OFFCURVE",
"531 574 CURVE",
"531 577 LINE",
"535 594 OFFCURVE",
"536 643 OFFCURVE",
"500 670 CURVE",
"487 679 OFFCURVE",
"468 687 OFFCURVE",
"440 687 CURVE"
);
},
{
closed = 1;
nodes = (
"502 325 OFFCURVE",
"517 311 OFFCURVE",
"523 297 CURVE",
"533 314 OFFCURVE",
"548 332 OFFCURVE",
"561 347 CURVE",
"571 359 OFFCURVE",
"586 377 OFFCURVE",
"586 382 CURVE",
"581 393 OFFCURVE",
"562 410 OFFCURVE",
"500 397 CURVE",
"493 376 OFFCURVE",
"486 357 OFFCURVE",
"480 340 CURVE"
);
},
{
closed = 1;
nodes = (
"438 362 OFFCURVE",
"454 354 OFFCURVE",
"468 347 CURVE",
"473 361 OFFCURVE",
"478 376 OFFCURVE",
"484 392 CURVE",
"465 387 OFFCURVE",
"444 380 OFFCURVE",
"419 370 CURVE"
);
},
{
closed = 1;
nodes = (
"586 382 LINE"
);
}
);
width = 620;
}
);
unicode = 0071;
},
{
glyphname = r;
lastChange = "2020-05-19 14:48:43 +0000";
layers = (
{
layerId = "A4322E26-1E68-404E-BC15-B577A9E05BE3";
paths = (
{
closed = 1;
nodes = (
"61 -19 OFFCURVE",
"61 -19 OFFCURVE",
"61 -19 CURVE",
"54 -19 OFFCURVE",
"48 -16 OFFCURVE",
"43 -10 CURVE",
"21 20 OFFCURVE",
"69 78 OFFCURVE",
"105 108 CURVE",
"107 110 OFFCURVE",
"110 113 OFFCURVE",
"113 115 CURVE",
"130 130 OFFCURVE",
"154 150 OFFCURVE",
"184 168 CURVE",
"189 191 OFFCURVE",
"193 214 OFFCURVE",
"193 235 CURVE",
"193 249 OFFCURVE",
"191 262 OFFCURVE",
"189 273 CURVE",
"185 273 OFFCURVE",
"181 272 OFFCURVE",
"177 271 CURVE",
"163 268 OFFCURVE",
"133 265 OFFCURVE",
"107 266 CURVE",
"70 267 OFFCURVE",
"46 273 OFFCURVE",
"37 286 CURVE",
"32 292 OFFCURVE",
"31 300 OFFCURVE",
"35 308 CURVE",
"47 332 OFFCURVE",
"106 345 OFFCURVE",
"133 345 CURVE",
"159 345 OFFCURVE",
"186 328 OFFCURVE",
"198 290 CURVE",
"260 306 OFFCURVE",
"304 329 OFFCURVE",
"331 361 CURVE",
"355 388 OFFCURVE",
"360 416 OFFCURVE",
"361 435 CURVE",
"365 482 OFFCURVE",
"351 550 OFFCURVE",
"310 595 CURVE",
"279 628 OFFCURVE",
"238 645 OFFCURVE",
"187 645 CURVE",
"123 645 OFFCURVE",
"78 628 OFFCURVE",
"54 597 CURVE",
"23 556 OFFCURVE",
"37 503 OFFCURVE",
"37 503 CURVE",
"38 499 OFFCURVE",
"36 495 OFFCURVE",
"33 494 CURVE",
"29 493 OFFCURVE",
"25 495 OFFCURVE",
"24 499 CURVE",
"23 501 OFFCURVE",
"8 559 OFFCURVE",
"42 605 CURVE",
"69 641 OFFCURVE",
"118 659 OFFCURVE",
"187 659 CURVE",
"242 659 OFFCURVE",
"287 640 OFFCURVE",
"320 604 CURVE",
"364 556 OFFCURVE",
"380 484 OFFCURVE",
"375 434 CURVE",
"374 413 OFFCURVE",
"368 382 OFFCURVE",
"342 351 CURVE",
"313 318 OFFCURVE",
"266 293 OFFCURVE",
"202 277 CURVE",
"205 265 OFFCURVE",
"207 251 OFFCURVE",
"207 235 CURVE",
"207 217 OFFCURVE",
"204 197 OFFCURVE",
"200 178 CURVE",
"231 194 OFFCURVE",
"265 206 OFFCURVE",
"302 206 CURVE",
"345 206 OFFCURVE",
"369 197 OFFCURVE",
"377 177 CURVE",
"389 146 OFFCURVE",
"355 93 OFFCURVE",
"268 10 CURVE",
"316 18 OFFCURVE",
"430 40 OFFCURVE",
"484 90 CURVE",
"538 139 OFFCURVE",
"566 194 OFFCURVE",
"566 248 CURVE",
"566 279 OFFCURVE",
"546 325 OFFCURVE",
"501 325 CURVE",
"476 325 OFFCURVE",
"453 318 OFFCURVE",
"437 306 CURVE",
"420 294 OFFCURVE",
"412 278 OFFCURVE",
"412 260 CURVE",
"412 234 OFFCURVE",
"420 214 OFFCURVE",
"434 208 CURVE",
"448 203 OFFCURVE",
"465 210 OFFCURVE",
"484 228 CURVE",
"487 231 OFFCURVE",
"491 231 OFFCURVE",
"494 228 CURVE",
"497 226 OFFCURVE",
"497 221 OFFCURVE",
"494 218 CURVE",
"463 188 OFFCURVE",
"440 191 OFFCURVE",
"429 195 CURVE",
"409 203 OFFCURVE",
"398 227 OFFCURVE",
"398 260 CURVE",
"398 282 OFFCURVE",
"408 303 OFFCURVE",
"428 317 CURVE",
"447 331 OFFCURVE",
"473 339 OFFCURVE",
"501 339 CURVE",
"532 339 OFFCURVE",
"551 322 OFFCURVE",
"561 307 CURVE",
"573 291 OFFCURVE",
"580 268 OFFCURVE",
"580 248 CURVE",
"580 223 OFFCURVE",
"575 199 OFFCURVE",
"565 175 CURVE",
"551 142 OFFCURVE",
"527 110 OFFCURVE",
"494 80 CURVE",
"463 51 OFFCURVE",
"412 28 OFFCURVE",
"343 11 CURVE",
"292 -2 OFFCURVE",
"249 -7 OFFCURVE",
"249 -7 CURVE",
"246 -7 OFFCURVE",
"243 -5 OFFCURVE",
"241 -3 CURVE",
"240 0 OFFCURVE",
"241 3 OFFCURVE",
"243 5 CURVE",
"356 110 OFFCURVE",
"371 154 OFFCURVE",
"364 172 CURVE",
"359 186 OFFCURVE",
"338 192 OFFCURVE",
"302 192 CURVE",
"264 192 OFFCURVE",
"227 178 OFFCURVE",
"196 159 CURVE",
"184 114 OFFCURVE",
"164 74 OFFCURVE",
"145 50 CURVE",
"115 15 OFFCURVE",
"85 -19 OFFCURVE",
"61 -19 CURVE"
);
},
{
closed = 1;
nodes = (
"155 133 OFFCURVE",
"136 116 OFFCURVE",
"122 104 CURVE",
"119 102 OFFCURVE",
"116 100 OFFCURVE",
"114 97 CURVE",
"75 65 OFFCURVE",
"41 16 OFFCURVE",
"54 -2 CURVE",
"56 -4 OFFCURVE",
"58 -5 OFFCURVE",
"61 -5 CURVE",
"80 -6 OFFCURVE",
"118 40 OFFCURVE",
"134 59 CURVE",
"150 78 OFFCURVE",
"166 111 OFFCURVE",
"178 148 CURVE"
);
},
{
closed = 1;
nodes = (
"104 331 OFFCURVE",
"55 316 OFFCURVE",
"47 301 CURVE",
"46 299 OFFCURVE",
"46 297 OFFCURVE",
"48 294 CURVE",
"62 275 OFFCURVE",
"144 278 OFFCURVE",
"174 285 CURVE",
"178 285 OFFCURVE",
"181 286 OFFCURVE",
"185 287 CURVE",
"175 314 OFFCURVE",
"157 331 OFFCURVE",
"133 331 CURVE"
);
}
);
width = 600;
}
);
unicode = 0072;
},
{
glyphname = s;
lastChange = "2020-05-19 14:48:45 +0000";
layers = (
{
layerId = "A4322E26-1E68-404E-BC15-B577A9E05BE3";
paths = (
{
closed = 1;
nodes = (
"88 120 OFFCURVE",
"83 121 OFFCURVE",
"78 124 CURVE",
"55 135 OFFCURVE",
"47 170 OFFCURVE",
"46 172 CURVE",
"45 176 OFFCURVE",
"48 179 OFFCURVE",
"51 180 CURVE",
"55 181 OFFCURVE",
"59 179 OFFCURVE",
"60 175 CURVE",
"62 166 OFFCURVE",
"70 143 OFFCURVE",
"84 136 CURVE",
"91 133 OFFCURVE",
"99 134 OFFCURVE",
"107 138 CURVE",
"159 164 OFFCURVE",
"201 224 OFFCURVE",
"226 269 CURVE",
"244 300 OFFCURVE",
"257 330 OFFCURVE",
"264 347 CURVE",
"216 325 OFFCURVE",
"173 312 OFFCURVE",
"135 308 CURVE",
"98 304 OFFCURVE",
"67 308 OFFCURVE",
"46 321 CURVE",
"29 332 OFFCURVE",
"20 348 OFFCURVE",
"20 366 CURVE",
"20 393 OFFCURVE",
"27 419 OFFCURVE",
"43 450 CURVE",
"57 477 OFFCURVE",
"78 507 OFFCURVE",
"110 547 CURVE",
"145 591 OFFCURVE",
"185 618 OFFCURVE",
"212 633 CURVE",
"248 652 OFFCURVE",
"277 659 OFFCURVE",
"292 659 CURVE",
"308 659 OFFCURVE",
"334 653 OFFCURVE",
"358 636 CURVE",
"376 623 OFFCURVE",
"398 599 OFFCURVE",
"398 558 CURVE",
"398 515 OFFCURVE",
"362 481 OFFCURVE",
"341 465 CURVE",
"311 442 OFFCURVE",
"274 426 OFFCURVE",
"251 426 CURVE",
"206 426 OFFCURVE",
"191 447 OFFCURVE",
"190 448 CURVE",
"202 456 LINE",
"202 456 LINE",
"202 456 OFFCURVE",
"214 440 OFFCURVE",
"251 440 CURVE",
"268 440 OFFCURVE",
"302 453 OFFCURVE",
"332 476 CURVE",
"352 491 OFFCURVE",
"384 521 OFFCURVE",
"384 558 CURVE",
"384 619 OFFCURVE",
"323 645 OFFCURVE",
"292 645 CURVE",
"262 645 OFFCURVE",
"181 614 OFFCURVE",
"121 538 CURVE",
"69 473 OFFCURVE",
"34 419 OFFCURVE",
"34 366 CURVE",
"34 353 OFFCURVE",
"41 341 OFFCURVE",
"54 333 CURVE",
"66 325 OFFCURVE",
"90 317 OFFCURVE",
"133 322 CURVE",
"174 326 OFFCURVE",
"221 342 OFFCURVE",
"274 367 CURVE",
"276 368 OFFCURVE",
"279 368 OFFCURVE",
"281 366 CURVE",
"284 364 OFFCURVE",
"284 361 OFFCURVE",
"283 358 CURVE",
"283 356 OFFCURVE",
"267 313 OFFCURVE",
"239 262 CURVE",
"200 194 OFFCURVE",
"158 148 OFFCURVE",
"113 125 CURVE",
"106 122 OFFCURVE",
"100 120 OFFCURVE",
"93 120 CURVE"
);
},
{
closed = 1;
nodes = (
"194 -16 OFFCURVE",
"175 12 OFFCURVE",
"175 38 CURVE",
"175 52 OFFCURVE",
"180 65 OFFCURVE",
"189 75 CURVE",
"199 86 OFFCURVE",
"213 92 OFFCURVE",
"230 92 CURVE",
"258 92 OFFCURVE",
"278 77 OFFCURVE",
"301 59 CURVE",
"305 56 OFFCURVE",
"310 53 OFFCURVE",
"314 49 CURVE",
"325 61 OFFCURVE",
"335 74 OFFCURVE",
"346 89 CURVE",
"381 140 OFFCURVE",
"408 199 OFFCURVE",
"410 231 CURVE",
"414 282 OFFCURVE",
"347 308 OFFCURVE",
"324 315 CURVE",
"317 273 OFFCURVE",
"299 232 OFFCURVE",
"271 194 CURVE",
"247 162 OFFCURVE",
"215 131 OFFCURVE",
"178 103 CURVE",
"113 56 OFFCURVE",
"53 32 OFFCURVE",
"50 31 CURVE",
"47 30 OFFCURVE",
"43 32 OFFCURVE",
"41 36 CURVE",
"40 39 OFFCURVE",
"42 43 OFFCURVE",
"45 45 CURVE",
"46 45 OFFCURVE",
"107 68 OFFCURVE",
"169 115 CURVE",
"227 157 OFFCURVE",
"298 228 OFFCURVE",
"311 325 CURVE",
"312 327 OFFCURVE",
"313 329 OFFCURVE",
"314 330 CURVE",
"316 331 OFFCURVE",
"318 331 OFFCURVE",
"320 331 CURVE",
"321 331 OFFCURVE",
"347 324 OFFCURVE",
"373 309 CURVE",
"409 288 OFFCURVE",
"427 261 OFFCURVE",
"424 230 CURVE",
"422 195 OFFCURVE",
"394 134 OFFCURVE",
"357 81 CURVE",
"347 67 OFFCURVE",
"336 53 OFFCURVE",
"326 41 CURVE",
"352 24 OFFCURVE",
"385 9 OFFCURVE",
"438 9 CURVE",
"479 9 OFFCURVE",
"510 28 OFFCURVE",
"531 65 CURVE",
"547 93 OFFCURVE",
"551 122 OFFCURVE",
"551 122 CURVE",
"551 126 OFFCURVE",
"555 129 OFFCURVE",
"559 128 CURVE",
"563 128 OFFCURVE",
"565 124 OFFCURVE",
"565 120 CURVE",
"565 119 OFFCURVE",
"560 89 OFFCURVE",
"543 58 CURVE",
"520 17 OFFCURVE",
"483 -5 OFFCURVE",
"438 -5 CURVE",
"380 -5 OFFCURVE",
"344 12 OFFCURVE",
"316 31 CURVE",
"310 25 OFFCURVE",
"304 19 OFFCURVE",
"298 14 CURVE",
"275 -6 OFFCURVE",
"254 -16 OFFCURVE",
"235 -16 CURVE"
);
},
{
closed = 1;
nodes = (
"203 78 OFFCURVE",
"189 58 OFFCURVE",
"189 38 CURVE",
"189 18 OFFCURVE",
"203 -2 OFFCURVE",
"235 -2 CURVE",
"254 -2 OFFCURVE",
"279 13 OFFCURVE",
"305 39 CURVE",
"300 42 OFFCURVE",
"296 45 OFFCURVE",
"292 48 CURVE",
"271 65 OFFCURVE",
"253 78 OFFCURVE",
"230 78 CURVE"
);
}
);
width = 585;
}
);
unicode = 0073;
},
